<svg xmlns="http://www.w3.org/2000/svg" height="582pt" version="1.1" viewBox="-64 0 582 582.28927" width="582pt">
<g id="surface1">
<path d="M 290.125 524.789062 L 305.910156 512.949219 L 194.933594 364.984375 L 179.152344 376.824219 L 229.460938 443.902344 L 86.425781 443.902344 L 149.066406 359.558594 L 133.28125 347.722656 L 4.058594 520.84375 L 19.84375 532.679688 L 71.628906 463.628906 L 244.257812 463.628906 Z M 290.125 524.789062 " style=" stroke:none;fill-rule:nonzero;fill:rgb(50.196078%,54.509804%,58.823529%);fill-opacity:1;" />
<path d="M 118.484375 335.390625 L 197.398438 335.390625 L 197.398438 503.085938 L 118.484375 503.085938 Z M 118.484375 335.390625 " style=" stroke:none;fill-rule:nonzero;fill:rgb(65.882353%,69.803922%,74.901961%);fill-opacity:1;" />
<path d="M 0.113281 503.085938 L 315.773438 503.085938 L 315.773438 582 L 0.113281 582 Z M 0.113281 503.085938 " style=" stroke:none;fill-rule:nonzero;fill:rgb(65.882353%,69.803922%,74.901961%);fill-opacity:1;" />
<path d="M 0.113281 542.542969 L 315.773438 542.542969 L 315.773438 582 L 0.113281 582 Z M 0.113281 542.542969 " style=" stroke:none;fill-rule:nonzero;fill:rgb(58.431373%,62.745098%,67.843137%);fill-opacity:1;" />
<path d="M 118.484375 335.390625 L 118.484375 413.429688 C 143.304688 426.261719 169.90625 435.308594 197.398438 440.261719 L 197.398438 335.390625 Z M 118.484375 335.390625 " style=" stroke:none;fill-rule:nonzero;fill:rgb(58.431373%,62.745098%,67.843137%);fill-opacity:1;" />
<path d="M 167.730469 288.347656 C 87.691406 207.679688 67.632812 97.097656 122.933594 41.355469 L 99.121094 65.175781 C 20.691406 144.25 19.585938 271.421875 96.625 351.84375 C 173.609375 432.257812 301.066406 435.457031 381.972656 358.996094 L 399.246094 344.695312 C 340.964844 385.699219 241.710938 362.921875 167.730469 288.347656 Z M 167.730469 288.347656 " style=" stroke:none;fill-rule:nonzero;fill:rgb(65.882353%,69.803922%,74.901961%);fill-opacity:1;" />
<path d="M 367.976562 86.503906 C 287.945312 5.832031 178.234375 -14.378906 122.933594 41.355469 C 67.632812 97.089844 87.691406 207.679688 167.730469 288.347656 C 241.710938 362.925781 340.96875 385.691406 399.246094 344.695312 L 412.769531 333.5 C 468.070312 277.753906 448.015625 167.175781 367.976562 86.503906 Z M 367.976562 86.503906 " style=" stroke:none;fill-rule:nonzero;fill:rgb(81.568627%,84.313725%,87.45098%);fill-opacity:1;" />
<path d="M 367.976562 86.503906 C 352.328125 70.742188 334.917969 56.84375 316.089844 45.074219 C 356.421875 124.835938 356.046875 208.824219 307.429688 257.789062 L 291.015625 271.324219 C 259.082031 293.785156 217.03125 300.324219 172.1875 292.5625 C 245.667969 363.664062 342.113281 384.882812 399.246094 344.695312 L 412.769531 333.5 C 468.070312 277.753906 448.015625 167.175781 367.976562 86.503906 Z M 367.976562 86.503906 " style=" stroke:none;fill-rule:nonzero;fill:rgb(76.470588%,78.823529%,81.960784%);fill-opacity:1;" />
<path d="M 226.007812 305.9375 C 242.265625 289.699219 237.6875 258.816406 215.796875 236.945312 C 193.90625 215.074219 162.964844 210.507812 146.746094 226.746094 C 140.296875 233.53125 136.851562 242.628906 137.167969 251.980469 C 146.363281 264.902344 156.589844 277.0625 167.746094 288.347656 C 177.414062 298.074219 187.742188 307.109375 198.664062 315.394531 C 208.703125 316.265625 218.648438 312.824219 226.007812 305.9375 Z M 226.007812 305.9375 " style=" stroke:none;fill-rule:nonzero;fill:rgb(76.470588%,78.823529%,81.960784%);fill-opacity:1;" />
<path d="M 159.914062 293.960938 C 156.070312 290.113281 156.070312 283.859375 159.914062 280.015625 L 387.714844 52.214844 L 401.664062 66.164062 L 173.855469 293.960938 C 170.007812 297.808594 163.761719 297.808594 159.914062 293.960938 Z M 159.914062 293.960938 " style=" stroke:none;fill-rule:nonzero;fill:rgb(50.196078%,54.509804%,58.823529%);fill-opacity:1;" />
<path d="M 404.554688 29.597656 L 215.441406 29.597656 C 209.996094 29.597656 205.578125 25.179688 205.578125 19.734375 C 205.578125 14.289062 209.996094 9.867188 215.441406 9.867188 L 404.550781 9.867188 L 404.550781 29.597656 Z M 404.554688 29.597656 " style=" stroke:none;fill-rule:nonzero;fill:rgb(50.196078%,54.509804%,58.823529%);fill-opacity:1;" />
<path d="M 434.144531 269.300781 C 428.699219 269.300781 424.28125 264.882812 424.28125 259.4375 L 424.28125 49.324219 L 444.007812 49.324219 L 444.007812 259.4375 C 444.011719 264.890625 439.589844 269.300781 434.144531 269.300781 Z M 434.144531 269.300781 " style=" stroke:none;fill-rule:nonzero;fill:rgb(50.196078%,54.509804%,58.823529%);fill-opacity:1;" />
<path d="M 414.417969 70.246094 C 413.902344 70.246094 413.429688 70.246094 412.878906 70.246094 C 404.15625 69.785156 396.050781 65.660156 390.535156 58.894531 C 380.710938 46.160156 381.980469 28.078125 393.496094 16.839844 L 401.316406 9.019531 C 413.339844 -3.007812 432.832031 -3.007812 444.859375 9.019531 C 450.628906 14.789062 453.875 22.621094 453.875 30.789062 C 453.894531 38.957031 450.648438 46.800781 444.859375 52.558594 L 436.1875 61.230469 C 430.40625 67.003906 422.585938 70.246094 414.417969 70.246094 Z M 414.417969 70.246094 " style=" stroke:none;fill-rule:nonzero;fill:rgb(81.568627%,84.313725%,87.45098%);fill-opacity:1;" />
</g>
</svg>