<svg xmlns="http://www.w3.org/2000/svg" height="582pt" version="1.1" viewBox="0 -5 582.288 582" width="582pt">
<g id="surface1">
<path d="M 277.621094 35.140625 L 104.503906 194.410156 C 81.90625 215.195312 69.050781 244.492188 69.050781 275.191406 C 69.050781 301.402344 59.679688 326.742188 42.625 346.636719 L 36.292969 354.015625 C 19.234375 373.914062 9.863281 399.253906 9.863281 425.464844 L 9.863281 439.746094 C 9.863281 512.941406 69.199219 572.277344 142.390625 572.277344 C 177.539062 572.277344 211.253906 558.316406 236.101562 533.457031 L 543.179688 226.378906 C 568.039062 201.53125 581.996094 167.816406 581.996094 132.667969 C 581.996094 59.476562 522.664062 0.140625 449.46875 0.140625 L 367.351562 0.140625 C 334.105469 0.140625 302.085938 12.628906 277.621094 35.140625 Z M 277.621094 35.140625 " style=" stroke:none;fill-rule:nonzero;fill:rgb(67.843137%,49.803922%,36.078431%);fill-opacity:1;" />
<path d="M 449.46875 0.140625 L 424.363281 0.140625 C 481.234375 46.167969 490.023438 129.574219 443.996094 186.441406 C 441.074219 190.050781 437.957031 193.503906 434.675781 196.789062 L 127.597656 503.867188 C 108.269531 523.140625 83.472656 535.976562 56.570312 540.613281 C 80.484375 561.0625 110.925781 572.296875 142.390625 572.277344 C 177.539062 572.277344 211.253906 558.316406 236.101562 533.460938 L 543.179688 226.382812 C 594.941406 174.625 594.941406 90.714844 543.179688 38.957031 C 518.324219 14.101562 484.617188 0.140625 449.46875 0.140625 Z M 449.46875 0.140625 " style=" stroke:none;fill-rule:nonzero;fill:rgb(60%,43.137255%,31.764706%);fill-opacity:1;" />
<path d="M 335.386719 301.003906 C 335.386719 320.074219 319.929688 335.53125 300.863281 335.53125 C 281.796875 335.53125 266.339844 320.074219 266.339844 301.003906 C 266.339844 281.9375 281.796875 266.480469 300.863281 266.480469 C 319.929688 266.480469 335.386719 281.9375 335.386719 301.003906 Z M 335.386719 301.003906 " style=" stroke:none;fill-rule:nonzero;fill:rgb(54.901961%,38.823529%,28.235294%);fill-opacity:1;" />
<path d="M 424.167969 266.480469 C 424.167969 277.375 415.335938 286.210938 404.4375 286.210938 C 393.542969 286.210938 384.710938 277.375 384.710938 266.480469 C 384.710938 255.585938 393.542969 246.75 404.4375 246.75 C 415.335938 246.75 424.167969 255.585938 424.167969 266.480469 Z M 424.167969 266.480469 " style=" stroke:none;fill-rule:nonzero;fill:rgb(54.901961%,38.823529%,28.235294%);fill-opacity:1;" />
<path d="M 339.472656 55.246094 C 347.039062 63.085938 346.820312 75.578125 338.988281 83.140625 C 331.34375 90.53125 319.21875 90.53125 311.574219 83.140625 " style=" stroke:none;fill-rule:nonzero;fill:rgb(54.901961%,38.823529%,28.235294%);fill-opacity:1;" />
<path d="M 115.480469 363.929688 C 123.046875 371.773438 122.832031 384.261719 115 391.828125 C 107.351562 399.214844 95.230469 399.214844 87.585938 391.828125 " style=" stroke:none;fill-rule:nonzero;fill:rgb(54.901961%,38.823529%,28.235294%);fill-opacity:1;" />
<path d="M 174.667969 482.304688 C 182.234375 490.144531 182.019531 502.632812 174.183594 510.199219 C 166.539062 517.585938 154.417969 517.585938 146.769531 510.199219 " style=" stroke:none;fill-rule:nonzero;fill:rgb(54.901961%,38.823529%,28.235294%);fill-opacity:1;" />
<path d="M 29.59375 117.953125 L 29.59375 123.683594 C 29.59375 128.992188 32.988281 133.707031 38.027344 135.382812 L 56.425781 141.519531 C 58.238281 142.121094 59.886719 143.136719 61.246094 144.476562 C 65.695312 148.917969 72.757812 149.3125 77.671875 145.386719 L 108.371094 120.824219 C 114.683594 115.773438 118.363281 108.128906 118.371094 100.039062 C 118.371094 85.332031 106.445312 73.40625 91.738281 73.40625 L 80.089844 73.40625 C 73.027344 73.40625 66.25 76.207031 61.246094 81.207031 L 33.203125 109.234375 C 30.894531 111.539062 29.59375 114.679688 29.59375 117.953125 Z M 29.59375 117.953125 " style=" stroke:none;fill-rule:nonzero;fill:rgb(67.843137%,49.803922%,36.078431%);fill-opacity:1;" />
<path d="M 420.359375 453.902344 L 408.988281 453.902344 C 402.871094 453.902344 397.160156 456.960938 393.765625 462.050781 L 387.777344 471.015625 C 382.945312 478.277344 383.902344 487.933594 390.066406 494.101562 C 395.53125 499.566406 403.878906 500.917969 410.78125 497.453125 L 428.539062 488.578125 C 434.734375 485.480469 438.648438 479.148438 438.648438 472.222656 C 438.667969 462.121094 430.492188 453.925781 420.390625 453.902344 C 420.378906 453.902344 420.371094 453.902344 420.359375 453.902344 Z M 420.359375 453.902344 " style=" stroke:none;fill-rule:nonzero;fill:rgb(67.843137%,49.803922%,36.078431%);fill-opacity:1;" />
<path d="M 522.8125 353.386719 L 522.8125 367.007812 C 522.8125 373.765625 526.628906 379.949219 532.675781 382.96875 C 538.722656 385.988281 545.953125 385.335938 551.359375 381.28125 L 574.855469 363.664062 C 579.363281 360.28125 582.007812 354.972656 581.996094 349.339844 L 581.996094 321.847656 C 581.988281 314.175781 577.074219 307.378906 569.796875 304.949219 L 565.988281 303.679688 C 558.054688 301.035156 549.347656 304.25 545.035156 311.421875 L 525.355469 344.230469 C 523.699219 346.992188 522.8125 350.160156 522.8125 353.386719 Z M 522.8125 353.386719 " style=" stroke:none;fill-rule:nonzero;fill:rgb(67.843137%,49.803922%,36.078431%);fill-opacity:1;" />
<path d="M 493.21875 128.378906 L 512.945312 128.378906 L 512.945312 148.109375 L 493.21875 148.109375 Z M 493.21875 128.378906 " style=" stroke:none;fill-rule:nonzero;fill:rgb(54.901961%,38.823529%,28.235294%);fill-opacity:1;" />
<path d="M 374.84375 98.785156 L 394.574219 98.785156 L 394.574219 118.515625 L 374.84375 118.515625 Z M 374.84375 98.785156 " style=" stroke:none;fill-rule:nonzero;fill:rgb(54.901961%,38.823529%,28.235294%);fill-opacity:1;" />
<path d="M 197.289062 414.445312 L 217.015625 414.445312 L 217.015625 434.175781 L 197.289062 434.175781 Z M 197.289062 414.445312 " style=" stroke:none;fill-rule:nonzero;fill:rgb(54.901961%,38.823529%,28.235294%);fill-opacity:1;" />
<path d="M 177.558594 246.75 L 197.289062 246.75 L 197.289062 266.480469 L 177.558594 266.480469 Z M 177.558594 246.75 " style=" stroke:none;fill-rule:nonzero;fill:rgb(54.901961%,38.823529%,28.235294%);fill-opacity:1;" />
<path d="M 157.828125 29.734375 L 177.558594 29.734375 L 177.558594 49.464844 L 157.828125 49.464844 Z M 157.828125 29.734375 " style=" stroke:none;fill-rule:nonzero;fill:rgb(54.901961%,38.823529%,28.235294%);fill-opacity:1;" />
<path d="M 315.660156 542.683594 L 335.390625 542.683594 L 335.390625 562.414062 L 315.660156 562.414062 Z M 315.660156 542.683594 " style=" stroke:none;fill-rule:nonzero;fill:rgb(54.901961%,38.823529%,28.235294%);fill-opacity:1;" />
<path d="M 0 286.210938 L 19.730469 286.210938 L 19.730469 305.9375 L 0 305.9375 Z M 0 286.210938 " style=" stroke:none;fill-rule:nonzero;fill:rgb(54.901961%,38.823529%,28.235294%);fill-opacity:1;" />
<path d="M 542.539062 483.496094 L 562.269531 483.496094 L 562.269531 503.226562 L 542.539062 503.226562 Z M 542.539062 483.496094 " style=" stroke:none;fill-rule:nonzero;fill:rgb(54.901961%,38.823529%,28.235294%);fill-opacity:1;" />
</g>
</svg>