<svg xmlns="http://www.w3.org/2000/svg" height="572pt" version="1.1" viewBox="-74 0 572 572.35609" width="572pt">
<g id="surface1">
<path d="M 79.039062 374.738281 L 79.039062 522.683594 L 65.121094 527.320312 C 55.757812 530.449219 49.449219 539.207031 49.449219 549.070312 C 49.449219 561.734375 59.714844 572 72.378906 572 L 167.804688 572 L 167.804688 374.738281 Z M 79.039062 374.738281 " style=" stroke:none;fill-rule:nonzero;fill:rgb(81.568627%,84.313725%,87.45098%);fill-opacity:1;" />
<path d="M 296.027344 374.738281 L 296.027344 522.683594 L 309.945312 527.320312 C 319.304688 530.449219 325.617188 539.207031 325.617188 549.070312 C 325.617188 561.734375 315.347656 572 302.683594 572 L 207.257812 572 L 207.257812 374.738281 Z M 296.027344 374.738281 " style=" stroke:none;fill-rule:nonzero;fill:rgb(81.568627%,84.313725%,87.45098%);fill-opacity:1;" />
<path d="M 79.039062 187.335938 L 296.027344 187.335938 L 296.027344 374.738281 L 79.039062 374.738281 Z M 79.039062 187.335938 " style=" stroke:none;fill-rule:nonzero;fill:rgb(81.568627%,84.313725%,87.45098%);fill-opacity:1;" />
<path d="M 246.710938 325.421875 L 128.355469 325.421875 C 122.910156 325.421875 118.492188 321.003906 118.492188 315.558594 L 118.492188 236.652344 C 118.492188 231.207031 122.910156 226.789062 128.355469 226.789062 L 246.710938 226.789062 C 252.15625 226.789062 256.574219 231.207031 256.574219 236.652344 L 256.574219 315.558594 C 256.574219 321.003906 252.15625 325.421875 246.710938 325.421875 Z M 138.214844 305.695312 L 236.847656 305.695312 L 236.847656 246.515625 L 138.214844 246.515625 Z M 138.214844 305.695312 " style=" stroke:none;fill-rule:nonzero;fill:rgb(65.882353%,69.803922%,74.901961%);fill-opacity:1;" />
<path d="M 167.804688 325.421875 L 128.355469 325.421875 C 122.910156 325.421875 118.492188 321.003906 118.492188 315.558594 L 118.492188 236.652344 C 118.492188 231.207031 122.910156 226.789062 128.355469 226.789062 L 167.804688 226.789062 C 173.25 226.789062 177.667969 231.207031 177.667969 236.652344 L 177.667969 315.558594 C 177.667969 321.003906 173.25 325.421875 167.804688 325.421875 Z M 138.214844 305.695312 L 157.941406 305.695312 L 157.941406 246.515625 L 138.214844 246.515625 Z M 138.214844 305.695312 " style=" stroke:none;fill-rule:nonzero;fill:rgb(65.882353%,69.803922%,74.901961%);fill-opacity:1;" />
<path d="M 197.394531 266.242188 L 217.121094 266.242188 L 217.121094 285.96875 L 197.394531 285.96875 Z M 197.394531 266.242188 " style=" stroke:none;fill-rule:nonzero;fill:rgb(16.470588%,56.470588%,87.058824%);fill-opacity:1;" />
<path d="M 305.890625 9.800781 L 232.535156 9.800781 C 271.191406 27.40625 296.007812 65.960938 296.027344 108.433594 L 296.027344 187.226562 L 345.339844 187.226562 L 345.339844 49.253906 C 345.34375 27.464844 327.675781 9.800781 305.890625 9.800781 Z M 305.890625 9.800781 " style=" stroke:none;fill-rule:nonzero;fill:rgb(65.882353%,69.803922%,74.901961%);fill-opacity:1;" />
<path d="M 79.039062 187.230469 L 79.039062 108.433594 C 79.058594 65.960938 103.871094 27.40625 142.527344 9.800781 L 69.171875 9.800781 C 47.386719 9.800781 29.722656 27.46875 29.722656 49.253906 L 29.722656 207.066406 " style=" stroke:none;fill-rule:nonzero;fill:rgb(65.882353%,69.803922%,74.901961%);fill-opacity:1;" />
<path d="M 232.539062 9.800781 C 178.015625 -15.054688 113.667969 8.992188 88.8125 63.515625 C 82.382812 77.621094 79.046875 92.9375 79.039062 108.433594 L 79.039062 187.335938 L 296.027344 187.335938 L 296.027344 108.433594 C 296.007812 65.953125 271.191406 27.40625 232.539062 9.800781 Z M 232.539062 9.800781 " style=" stroke:none;fill-rule:nonzero;fill:rgb(81.568627%,84.313725%,87.45098%);fill-opacity:1;" />
<path d="M 79.039062 414.191406 L 167.804688 414.191406 L 167.804688 433.917969 L 79.039062 433.917969 Z M 79.039062 414.191406 " style=" stroke:none;fill-rule:nonzero;fill:rgb(65.882353%,69.803922%,74.901961%);fill-opacity:1;" />
<path d="M 79.039062 463.503906 L 167.804688 463.503906 L 167.804688 483.230469 L 79.039062 483.230469 Z M 79.039062 463.503906 " style=" stroke:none;fill-rule:nonzero;fill:rgb(65.882353%,69.803922%,74.901961%);fill-opacity:1;" />
<path d="M 79.039062 512.820312 L 167.804688 512.820312 L 167.804688 532.546875 L 79.039062 532.546875 Z M 79.039062 512.820312 " style=" stroke:none;fill-rule:nonzero;fill:rgb(65.882353%,69.803922%,74.901961%);fill-opacity:1;" />
<path d="M 207.257812 414.191406 L 296.027344 414.191406 L 296.027344 433.917969 L 207.257812 433.917969 Z M 207.257812 414.191406 " style=" stroke:none;fill-rule:nonzero;fill:rgb(65.882353%,69.803922%,74.901961%);fill-opacity:1;" />
<path d="M 207.257812 463.503906 L 296.027344 463.503906 L 296.027344 483.230469 L 207.257812 483.230469 Z M 207.257812 463.503906 " style=" stroke:none;fill-rule:nonzero;fill:rgb(65.882353%,69.803922%,74.901961%);fill-opacity:1;" />
<path d="M 207.257812 512.820312 L 296.027344 512.820312 L 296.027344 532.546875 L 207.257812 532.546875 Z M 207.257812 512.820312 " style=" stroke:none;fill-rule:nonzero;fill:rgb(65.882353%,69.803922%,74.901961%);fill-opacity:1;" />
<path d="M 79.039062 187.335938 L 79.039062 384.601562 C 79.039062 406.386719 61.371094 424.054688 39.585938 424.054688 C 17.796875 424.054688 0.132812 406.386719 0.132812 384.601562 L 0.132812 266.242188 C 0.132812 222.65625 35.460938 187.335938 79.039062 187.335938 Z M 79.039062 187.335938 " style=" stroke:none;fill-rule:nonzero;fill:rgb(81.568627%,84.313725%,87.45098%);fill-opacity:1;" />
<path d="M 0.132812 315.558594 L 79.039062 315.558594 L 79.039062 335.285156 L 0.132812 335.285156 Z M 0.132812 315.558594 " style=" stroke:none;fill-rule:nonzero;fill:rgb(65.882353%,69.803922%,74.901961%);fill-opacity:1;" />
<path d="M 0.132812 256.378906 L 79.039062 256.378906 L 79.039062 276.105469 L 0.132812 276.105469 Z M 0.132812 256.378906 " style=" stroke:none;fill-rule:nonzero;fill:rgb(65.882353%,69.803922%,74.901961%);fill-opacity:1;" />
<path d="M 0.132812 364.875 L 79.039062 364.875 L 79.039062 384.601562 L 0.132812 384.601562 Z M 0.132812 364.875 " style=" stroke:none;fill-rule:nonzero;fill:rgb(65.882353%,69.803922%,74.901961%);fill-opacity:1;" />
<path d="M 125.226562 88.707031 C 108.792969 123.117188 123.371094 164.328125 157.785156 180.757812 C 192.195312 197.191406 233.40625 182.613281 249.835938 148.199219 C 258.824219 129.390625 258.824219 107.523438 249.835938 88.707031 C 249.835938 88.707031 125.226562 88.707031 125.226562 88.707031 Z M 125.226562 88.707031 " style=" stroke:none;fill-rule:nonzero;fill:rgb(16.470588%,56.470588%,87.058824%);fill-opacity:1;" />
<path d="M 249.835938 88.707031 L 210.382812 88.707031 C 226.789062 123.007812 212.277344 164.121094 177.976562 180.53125 C 174.691406 182.101562 171.296875 183.414062 167.804688 184.4375 C 204.261719 195.394531 242.695312 174.734375 253.65625 138.277344 C 258.597656 121.855469 257.234375 104.179688 249.835938 88.707031 Z M 249.835938 88.707031 " style=" stroke:none;fill-rule:nonzero;fill:rgb(16.470588%,40%,61.960784%);fill-opacity:1;" />
<path d="M 187.53125 49.253906 C 160.882812 49.261719 136.628906 64.621094 125.226562 88.707031 L 249.835938 88.707031 C 238.433594 64.621094 214.171875 49.261719 187.53125 49.253906 Z M 187.53125 49.253906 " style=" stroke:none;fill-rule:nonzero;fill:rgb(76.470588%,78.823529%,81.960784%);fill-opacity:1;" />
<path d="M 296.027344 187.335938 L 345.34375 187.335938 L 345.34375 108.433594 C 345.34375 86.644531 363.007812 68.980469 384.792969 68.980469 C 406.582031 68.980469 424.246094 86.644531 424.246094 108.433594 L 424.246094 203.367188 C 424.246094 238.09375 396.097656 266.242188 361.371094 266.242188 L 296.027344 266.242188 Z M 296.027344 187.335938 " style=" stroke:none;fill-rule:nonzero;fill:rgb(81.568627%,84.313725%,87.45098%);fill-opacity:1;" />
<path d="M 345.34375 118.296875 L 424.246094 118.296875 L 424.246094 138.023438 L 345.34375 138.023438 Z M 345.34375 118.296875 " style=" stroke:none;fill-rule:nonzero;fill:rgb(65.882353%,69.803922%,74.901961%);fill-opacity:1;" />
<path d="M 355.203125 266.242188 L 335.480469 266.242188 L 335.480469 187.335938 C 335.480469 181.894531 339.898438 177.476562 345.34375 177.476562 L 424.246094 177.476562 L 424.246094 197.203125 L 355.203125 197.203125 Z M 355.203125 266.242188 " style=" stroke:none;fill-rule:nonzero;fill:rgb(65.882353%,69.803922%,74.901961%);fill-opacity:1;" />
<path d="M 338.359375 194.308594 L 352.308594 180.363281 L 411.484375 239.539062 L 397.535156 253.484375 Z M 338.359375 194.308594 " style=" stroke:none;fill-rule:nonzero;fill:rgb(65.882353%,69.803922%,74.901961%);fill-opacity:1;" />
<path d="M 296.027344 266.242188 L 345.34375 266.242188 L 345.34375 374.738281 L 296.027344 374.738281 Z M 296.027344 266.242188 " style=" stroke:none;fill-rule:nonzero;fill:rgb(65.882353%,69.803922%,74.901961%);fill-opacity:1;" />
<path d="M 296.027344 266.242188 L 345.34375 266.242188 L 345.34375 295.832031 L 296.027344 295.832031 Z M 296.027344 266.242188 " style=" stroke:none;fill-rule:nonzero;fill:rgb(50.196078%,54.509804%,58.823529%);fill-opacity:1;" />
</g>
</svg>