<svg xmlns="http://www.w3.org/2000/svg" height="592.15599pt" version="1.1" viewBox="0 0 592.15599 592.15599" width="592.15599pt">
<g id="surface1">
<path d="M 313.199219 592 L 335.46875 592 L 252.773438 434.132812 L 266.398438 434.132812 L 266.398438 414.398438 L 217.066406 414.398438 L 217.066406 365.066406 L 197.332031 374.933594 L 197.332031 414.398438 L 148 414.398438 L 148 434.132812 L 162.089844 434.132812 L 79.398438 592 L 101.675781 592 L 184.367188 434.132812 L 198.132812 434.132812 L 198.132812 592 L 217.867188 592 L 217.867188 434.132812 L 230.503906 434.132812 Z M 313.199219 592 " style=" stroke:none;fill-rule:nonzero;fill:rgb(76.470588%,78.823529%,81.960784%);fill-opacity:1;" />
<path d="M 217.066406 394.667969 L 197.332031 394.667969 L 197.332031 374.933594 L 217.066406 365.066406 Z M 217.066406 394.667969 " style=" stroke:none;fill-rule:nonzero;fill:rgb(65.882353%,69.803922%,74.901961%);fill-opacity:1;" />
<path d="M 102.691406 434.132812 L 63.667969 364.871094 L 286.578125 236.800781 L 325.601562 306.0625 Z M 102.691406 434.132812 " style=" stroke:none;fill-rule:nonzero;fill:rgb(81.568627%,84.313725%,87.45098%);fill-opacity:1;" />
<path d="M 63.667969 364.871094 L 29.382812 384.574219 L 48.890625 419.207031 L 92.933594 416.816406 Z M 63.667969 364.871094 " style=" stroke:none;fill-rule:nonzero;fill:rgb(71.764706%,74.117647%,76.862745%);fill-opacity:1;" />
<path d="M 9.867188 349.941406 L 29.382812 384.574219 L 63.667969 364.871094 L 44.164062 330.238281 Z M 9.867188 349.941406 " style=" stroke:none;fill-rule:nonzero;fill:rgb(34.117647%,39.607843%,45.098039%);fill-opacity:1;" />
<path d="M 95.578125 300.621094 L 112.773438 290.933594 L 132.285156 325.570312 L 115.089844 335.257812 Z M 95.578125 300.621094 " style=" stroke:none;fill-rule:nonzero;fill:rgb(65.882353%,69.803922%,74.901961%);fill-opacity:1;" />
<path d="M 73.527344 302 L 124.976562 272.453125 L 134.804688 289.566406 L 83.351562 319.113281 Z M 73.527344 302 " style=" stroke:none;fill-rule:nonzero;fill:rgb(65.882353%,69.803922%,74.901961%);fill-opacity:1;" />
<path d="M 235.109375 266.246094 L 252.300781 256.558594 L 291.328125 325.820312 L 274.136719 335.507812 Z M 235.109375 266.246094 " style=" stroke:none;fill-rule:nonzero;fill:rgb(34.117647%,39.607843%,45.098039%);fill-opacity:1;" />
<path d="M 238.46875 355.25 L 187.023438 384.800781 L 148 315.535156 L 199.433594 285.984375 Z M 238.46875 355.25 " style=" stroke:none;fill-rule:nonzero;fill:rgb(34.117647%,39.607843%,45.098039%);fill-opacity:1;" />
<path d="M 0 572.265625 L 592 572.265625 L 592 592 L 0 592 Z M 0 572.265625 " style=" stroke:none;fill-rule:nonzero;fill:rgb(65.882353%,69.803922%,74.901961%);fill-opacity:1;" />
<path d="M 513.066406 49.332031 C 526.890625 44.726562 537.40625 33.371094 540.941406 19.230469 L 542.667969 12.332031 L 544.394531 19.238281 C 547.925781 33.378906 558.445312 44.722656 572.265625 49.332031 C 558.445312 53.941406 547.925781 65.296875 544.394531 79.433594 L 542.667969 86.339844 L 540.941406 79.433594 C 537.40625 65.296875 526.890625 53.941406 513.066406 49.332031 Z M 513.066406 49.332031 " style=" stroke:none;fill-rule:nonzero;fill:rgb(96.078431%,68.235294%,27.058824%);fill-opacity:1;" />
<path d="M 394.667969 98.667969 C 408.488281 94.058594 419.007812 82.703125 422.539062 68.5625 L 424.265625 61.664062 L 425.992188 68.570312 C 429.527344 82.710938 440.042969 94.058594 453.867188 98.664062 C 440.042969 103.273438 429.527344 114.628906 425.992188 128.769531 L 424.265625 135.675781 L 422.539062 128.769531 C 419.007812 114.632812 408.488281 103.273438 394.667969 98.667969 Z M 394.667969 98.667969 " style=" stroke:none;fill-rule:nonzero;fill:rgb(96.078431%,68.235294%,27.058824%);fill-opacity:1;" />
<path d="M 473.601562 177.597656 C 487.421875 172.992188 497.941406 161.636719 501.472656 147.496094 L 503.199219 140.589844 L 504.925781 147.496094 C 508.457031 161.636719 518.976562 172.992188 532.800781 177.597656 C 518.976562 182.207031 508.460938 193.5625 504.925781 207.703125 L 503.199219 214.609375 L 501.472656 207.703125 C 497.941406 193.5625 487.421875 182.207031 473.601562 177.597656 Z M 473.601562 177.597656 " style=" stroke:none;fill-rule:nonzero;fill:rgb(96.078431%,68.235294%,27.058824%);fill-opacity:1;" />
<path d="M 444 0 L 463.734375 0 L 463.734375 19.734375 L 444 19.734375 Z M 444 0 " style=" stroke:none;fill-rule:nonzero;fill:rgb(96.078431%,68.235294%,27.058824%);fill-opacity:1;" />
<path d="M 572.265625 118.398438 L 592 118.398438 L 592 138.132812 L 572.265625 138.132812 Z M 572.265625 118.398438 " style=" stroke:none;fill-rule:nonzero;fill:rgb(96.078431%,68.235294%,27.058824%);fill-opacity:1;" />
<path d="M 230.503906 434.132812 L 240.835938 453.867188 L 263.113281 453.867188 L 252.773438 434.132812 Z M 230.503906 434.132812 " style=" stroke:none;fill-rule:nonzero;fill:rgb(65.882353%,69.803922%,74.901961%);fill-opacity:1;" />
<path d="M 162.089844 434.132812 L 151.757812 453.867188 L 174.027344 453.867188 L 184.367188 434.132812 Z M 162.089844 434.132812 " style=" stroke:none;fill-rule:nonzero;fill:rgb(65.882353%,69.803922%,74.901961%);fill-opacity:1;" />
<path d="M 198.132812 434.132812 L 217.867188 434.132812 L 217.867188 453.867188 L 198.132812 453.867188 Z M 198.132812 434.132812 " style=" stroke:none;fill-rule:nonzero;fill:rgb(65.882353%,69.803922%,74.901961%);fill-opacity:1;" />
</g>
</svg>