<svg xmlns="http://www.w3.org/2000/svg" height="620pt" version="1.1" viewBox="1 1 620.914 620" width="620pt">
<g id="surface1">
<path d="M 54.625 391.058594 C -2.773438 430.738281 -17.125 509.433594 22.554688 566.832031 C 62.234375 624.230469 140.933594 638.582031 198.332031 598.902344 C 210.867188 590.238281 221.734375 579.371094 230.398438 566.832031 L 621 0.457031 Z M 54.625 391.058594 " style=" stroke:none;fill-rule:nonzero;fill:rgb(94.117647%,39.607843%,16.078431%);fill-opacity:1;" />
<path d="M 197.414062 498.074219 C 197.414062 538.960938 164.269531 572.101562 123.382812 572.101562 C 82.496094 572.101562 49.355469 538.960938 49.355469 498.074219 C 49.355469 457.1875 82.496094 424.042969 123.382812 424.042969 C 164.269531 424.042969 197.414062 457.1875 197.414062 498.074219 Z M 197.414062 498.074219 " style=" stroke:none;fill-rule:nonzero;fill:rgb(98.039216%,73.72549%,37.254902%);fill-opacity:1;" />
<path d="M 0 345.078125 L 19.742188 345.078125 L 19.742188 493.140625 L 0 493.140625 Z M 0 345.078125 " style=" stroke:none;fill-rule:nonzero;fill:rgb(94.117647%,39.607843%,16.078431%);fill-opacity:1;" />
<path d="M 10.621094 430.101562 L 59.996094 311.664062 L 78.21875 319.261719 L 28.84375 437.699219 Z M 10.621094 430.101562 " style=" stroke:none;fill-rule:nonzero;fill:rgb(94.117647%,39.607843%,16.078431%);fill-opacity:1;" />
<path d="M 31.816406 407.941406 L 216.808594 180.921875 L 232.113281 193.394531 L 47.117188 420.410156 Z M 31.816406 407.941406 " style=" stroke:none;fill-rule:nonzero;fill:rgb(94.117647%,39.607843%,16.078431%);fill-opacity:1;" />
<path d="M 128.316406 601.714844 L 296.117188 601.714844 L 296.117188 621.457031 L 128.316406 621.457031 Z M 128.316406 601.714844 " style=" stroke:none;fill-rule:nonzero;fill:rgb(94.117647%,39.607843%,16.078431%);fill-opacity:1;" />
<path d="M 183.742188 592.636719 L 341.667969 525.972656 L 349.34375 544.148438 L 191.417969 610.8125 Z M 183.742188 592.636719 " style=" stroke:none;fill-rule:nonzero;fill:rgb(94.117647%,39.607843%,16.078431%);fill-opacity:1;" />
<path d="M 201.304688 574.285156 L 398.757812 416.28125 L 411.105469 431.707031 L 213.652344 589.714844 Z M 201.304688 574.285156 " style=" stroke:none;fill-rule:nonzero;fill:rgb(94.117647%,39.607843%,16.078431%);fill-opacity:1;" />
<path d="M 72.3125 282.050781 L 109.347656 193.222656 L 127.566406 200.820312 L 90.535156 289.648438 Z M 72.3125 282.050781 " style=" stroke:none;fill-rule:nonzero;fill:rgb(94.117647%,27.843137%,16.078431%);fill-opacity:1;" />
<path d="M 229.242188 165.664062 L 248.980469 141.4375 L 264.285156 153.90625 L 244.542969 178.132812 Z M 229.242188 165.664062 " style=" stroke:none;fill-rule:nonzero;fill:rgb(94.117647%,27.843137%,16.078431%);fill-opacity:1;" />
<path d="M 0 275.984375 L 19.742188 275.984375 L 19.742188 325.339844 L 0 325.339844 Z M 0 275.984375 " style=" stroke:none;fill-rule:nonzero;fill:rgb(94.117647%,27.843137%,16.078431%);fill-opacity:1;" />
<path d="M 371.433594 513.558594 L 420.792969 493.832031 L 428.117188 512.164062 L 378.757812 531.890625 Z M 371.433594 513.558594 " style=" stroke:none;fill-rule:nonzero;fill:rgb(94.117647%,27.843137%,16.078431%);fill-opacity:1;" />
<path d="M 413.503906 404.164062 L 467.339844 357.359375 L 480.296875 372.265625 L 426.460938 419.070312 Z M 413.503906 404.164062 " style=" stroke:none;fill-rule:nonzero;fill:rgb(94.117647%,27.843137%,16.078431%);fill-opacity:1;" />
<path d="M 315.859375 601.714844 L 345.472656 601.714844 L 345.472656 621.457031 L 315.859375 621.457031 Z M 315.859375 601.714844 " style=" stroke:none;fill-rule:nonzero;fill:rgb(94.117647%,27.843137%,16.078431%);fill-opacity:1;" />
</g>
</svg>