<svg xmlns="http://www.w3.org/2000/svg" height="580pt" version="1.1" viewBox="0 -6 580.08501 580" width="580pt">
<g id="surface1">
<path d="M 98.835938 186.898438 C 104.292969 160.582031 110.816406 131.886719 133.597656 115.730469 C 153.710938 101.523438 178.113281 101.523438 201.074219 95.886719 C 250.117188 83.800781 287.4375 15.898438 341.308594 30.59375 L 351.480469 33.363281 C 384.753906 42.445312 438.367188 47.109375 471.453125 37.382812 L 478.992188 35.496094 C 500.21875 30.1875 520.800781 22.578125 540.371094 12.800781 C 549.261719 7.433594 558.753906 3.148438 568.660156 0.0429688 C 566.3125 26.8125 545.617188 57.117188 538.554688 84.144531 C 529.152344 117.054688 528.566406 151.847656 536.847656 185.054688 C 545.996094 218.605469 536.6875 248.34375 517.109375 276.253906 C 497.179688 302.53125 482.613281 332.480469 474.234375 364.382812 C 466.527344 398.226562 461.644531 428.640625 434.410156 453.347656 C 401.617188 483.089844 363.183594 476.707031 324.640625 490.738281 C 302.664062 498.742188 285.347656 518.074219 263.171875 526.507812 C 194.679688 552.558594 116.144531 500.683594 48.234375 541.398438 C 33.019531 551.761719 16.875 560.679688 0 568.042969 C 12.316406 536.5625 28.734375 509.308594 34.785156 474.910156 C 44.226562 421.1875 24.117188 369.914062 31.042969 316.964844 C 34.191406 292.886719 51.886719 277.140625 67.023438 260.253906 C 82.457031 242.363281 92.6875 220.59375 96.625 197.296875 C 97.394531 193.863281 98.105469 190.402344 98.835938 186.898438 Z M 98.835938 186.898438 " style=" stroke:none;fill-rule:nonzero;fill:rgb(89.019608%,38.431373%,58.431373%);fill-opacity:1;" />
<path d="M 163.777344 248.976562 C 171.117188 192.550781 222.539062 152.566406 279.03125 159.367188 C 296.960938 160.6875 314.742188 155.261719 328.875 144.152344 C 340.113281 134.992188 352.398438 127.1875 365.472656 120.910156 C 390.015625 111.25 417.960938 117.585938 435.929688 136.886719 C 450.101562 152.3125 455.171875 174.019531 449.292969 194.121094 C 438.78125 227.050781 433.226562 261.359375 432.8125 295.917969 C 431.132812 348.335938 387.269531 389.464844 334.863281 387.785156 C 333.234375 387.738281 331.605469 387.640625 329.988281 387.5 C 314.851562 386.355469 299.792969 390.621094 287.5 399.53125 L 251.835938 425.523438 C 217.921875 450.101562 171.265625 446.875 141.050781 417.863281 C 111.753906 389.800781 107.875 344.320312 132.011719 311.707031 L 147.21875 290.984375 C 156.296875 278.660156 162.007812 264.183594 163.777344 248.976562 Z M 163.777344 248.976562 " style=" stroke:none;fill-rule:nonzero;fill:rgb(16.470588%,56.470588%,87.058824%);fill-opacity:1;" />
<path d="M 461.585938 234.738281 L 481.324219 234.738281 L 481.324219 254.472656 L 461.585938 254.472656 Z M 461.585938 234.738281 " style=" stroke:none;fill-rule:nonzero;fill:rgb(41.176471%,80%,84.313725%);fill-opacity:1;" />
<path d="M 185.289062 7.777344 L 205.023438 7.777344 L 205.023438 27.511719 L 185.289062 27.511719 Z M 185.289062 7.777344 " style=" stroke:none;fill-rule:nonzero;fill:rgb(41.176471%,80%,84.313725%);fill-opacity:1;" />
<path d="M 27.402344 47.25 L 47.140625 47.25 L 47.140625 66.984375 L 27.402344 66.984375 Z M 27.402344 47.25 " style=" stroke:none;fill-rule:nonzero;fill:rgb(41.176471%,80%,84.313725%);fill-opacity:1;" />
<path d="M 175.421875 372.886719 L 195.15625 372.886719 L 195.15625 392.621094 L 175.421875 392.621094 Z M 175.421875 372.886719 " style=" stroke:none;fill-rule:nonzero;fill:rgb(41.176471%,80%,84.313725%);fill-opacity:1;" />
<path d="M 57.007812 363.019531 L 76.742188 363.019531 L 76.742188 382.753906 L 57.007812 382.753906 Z M 57.007812 363.019531 " style=" stroke:none;fill-rule:nonzero;fill:rgb(41.176471%,80%,84.313725%);fill-opacity:1;" />
<path d="M 17.535156 205.132812 L 37.273438 205.132812 L 37.273438 224.871094 L 17.535156 224.871094 Z M 17.535156 205.132812 " style=" stroke:none;fill-rule:nonzero;fill:rgb(41.176471%,80%,84.313725%);fill-opacity:1;" />
<path d="M 116.214844 461.695312 L 135.949219 461.695312 L 135.949219 481.433594 L 116.214844 481.433594 Z M 116.214844 461.695312 " style=" stroke:none;fill-rule:nonzero;fill:rgb(41.176471%,80%,84.313725%);fill-opacity:1;" />
<path d="M 441.851562 501.167969 L 461.585938 501.167969 L 461.585938 520.902344 L 441.851562 520.902344 Z M 441.851562 501.167969 " style=" stroke:none;fill-rule:nonzero;fill:rgb(41.176471%,80%,84.313725%);fill-opacity:1;" />
<path d="M 461.585938 86.71875 L 481.324219 86.71875 L 481.324219 106.457031 L 461.585938 106.457031 Z M 461.585938 86.71875 " style=" stroke:none;fill-rule:nonzero;fill:rgb(41.176471%,80%,84.313725%);fill-opacity:1;" />
<path d="M 560.265625 126.191406 L 580 126.191406 L 580 145.925781 L 560.265625 145.925781 Z M 560.265625 126.191406 " style=" stroke:none;fill-rule:nonzero;fill:rgb(41.176471%,80%,84.313725%);fill-opacity:1;" />
<path d="M 343.171875 540.636719 L 362.910156 540.636719 L 362.910156 560.375 L 343.171875 560.375 Z M 343.171875 540.636719 " style=" stroke:none;fill-rule:nonzero;fill:rgb(41.176471%,80%,84.313725%);fill-opacity:1;" />
<path d="M 501.058594 402.488281 L 520.792969 402.488281 L 520.792969 422.226562 L 501.058594 422.226562 Z M 501.058594 402.488281 " style=" stroke:none;fill-rule:nonzero;fill:rgb(41.176471%,80%,84.313725%);fill-opacity:1;" />
<path d="M 236.601562 257.542969 C 250.148438 228.679688 278.6875 209.8125 310.550781 208.648438 C 334.125 207.394531 362.246094 211.558594 366.117188 239.917969 C 368.957031 260.78125 356.800781 282.351562 345.757812 299.125 C 328.550781 325.304688 297.40625 334.492188 268.730469 342.03125 C 257.972656 345.699219 246.183594 344.734375 236.167969 339.375 C 209.878906 322.285156 225.667969 278.953125 236.601562 257.542969 Z M 236.601562 257.542969 " style=" stroke:none;fill-rule:nonzero;fill:rgb(13.72549%,47.45098%,72.941176%);fill-opacity:1;" />
</g>
</svg>