<svg xmlns="http://www.w3.org/2000/svg" height="582pt" version="1.1" viewBox="-5 0 582 582.286" width="582pt">
<g id="surface1">
<path d="M 394.714844 295.929688 C 394.714844 404.890625 306.386719 493.21875 197.429688 493.21875 C 88.46875 493.21875 0.140625 404.890625 0.140625 295.929688 C 0.140625 186.972656 88.46875 98.644531 197.429688 98.644531 C 306.386719 98.644531 394.714844 186.972656 394.714844 295.929688 Z M 394.714844 295.929688 " style=" stroke:none;fill-rule:nonzero;fill:rgb(98.039216%,73.72549%,37.254902%);fill-opacity:1;" />
<path d="M 572.277344 295.929688 C 572.277344 404.890625 483.945312 493.21875 374.988281 493.21875 C 266.027344 493.21875 177.699219 404.890625 177.699219 295.929688 C 177.699219 186.972656 266.027344 98.644531 374.988281 98.644531 C 483.945312 98.644531 572.277344 186.972656 572.277344 295.929688 Z M 572.277344 295.929688 " style=" stroke:none;fill-rule:nonzero;fill:rgb(38.823529%,25.490196%,16.078431%);fill-opacity:1;" />
<path d="M 10.003906 128.238281 L 29.734375 128.238281 L 29.734375 147.964844 L 10.003906 147.964844 Z M 10.003906 128.238281 " style=" stroke:none;fill-rule:nonzero;fill:rgb(98.039216%,73.72549%,37.254902%);fill-opacity:1;" />
<path d="M 148.105469 0 L 167.835938 0 L 167.835938 19.730469 L 148.105469 19.730469 Z M 148.105469 0 " style=" stroke:none;fill-rule:nonzero;fill:rgb(98.039216%,73.72549%,37.254902%);fill-opacity:1;" />
<path d="M 404.582031 29.59375 L 424.308594 29.59375 L 424.308594 49.324219 L 404.582031 49.324219 Z M 404.582031 29.59375 " style=" stroke:none;fill-rule:nonzero;fill:rgb(98.039216%,73.72549%,37.254902%);fill-opacity:1;" />
<path d="M 374.988281 542.542969 L 394.714844 542.542969 L 394.714844 562.273438 L 374.988281 562.273438 Z M 374.988281 542.542969 " style=" stroke:none;fill-rule:nonzero;fill:rgb(98.039216%,73.72549%,37.254902%);fill-opacity:1;" />
<path d="M 118.511719 562.269531 L 138.242188 562.269531 L 138.242188 582 L 118.511719 582 Z M 118.511719 562.269531 " style=" stroke:none;fill-rule:nonzero;fill:rgb(98.039216%,73.72549%,37.254902%);fill-opacity:1;" />
<path d="M 39.597656 503.085938 L 59.328125 503.085938 L 59.328125 522.8125 L 39.597656 522.8125 Z M 39.597656 503.085938 " style=" stroke:none;fill-rule:nonzero;fill:rgb(98.039216%,73.72549%,37.254902%);fill-opacity:1;" />
<path d="M 503.222656 78.914062 C 517.042969 74.308594 527.558594 62.953125 531.089844 48.820312 L 532.816406 41.921875 L 534.542969 48.828125 C 538.074219 62.964844 548.589844 74.308594 562.410156 78.914062 C 548.589844 83.519531 538.078125 94.875 534.542969 109.011719 L 532.816406 115.914062 L 531.089844 109.011719 C 527.558594 94.875 517.042969 83.523438 503.222656 78.914062 Z M 503.222656 78.914062 " style=" stroke:none;fill-rule:nonzero;fill:rgb(98.039216%,73.72549%,37.254902%);fill-opacity:1;" />
<path d="M 473.632812 532.679688 C 487.453125 528.070312 497.96875 516.71875 501.5 502.582031 L 503.226562 495.675781 L 504.953125 502.582031 C 508.484375 516.71875 519 528.070312 532.820312 532.679688 C 519 537.285156 508.484375 548.636719 504.953125 562.773438 L 503.226562 569.679688 L 501.5 562.773438 C 497.96875 548.636719 487.449219 537.285156 473.632812 532.679688 Z M 473.632812 532.679688 " style=" stroke:none;fill-rule:nonzero;fill:rgb(98.039216%,73.72549%,37.254902%);fill-opacity:1;" />
<path d="M 10.003906 49.320312 C 23.824219 44.714844 34.339844 33.363281 37.871094 19.226562 L 39.597656 12.328125 L 41.324219 19.234375 C 44.855469 33.371094 55.371094 44.714844 69.191406 49.320312 C 55.371094 53.925781 44.855469 65.28125 41.324219 79.417969 L 39.597656 86.3125 L 37.871094 79.40625 C 34.339844 65.273438 23.824219 53.929688 10.003906 49.320312 Z M 10.003906 49.320312 " style=" stroke:none;fill-rule:nonzero;fill:rgb(98.039216%,73.72549%,37.254902%);fill-opacity:1;" />
</g>
</svg>