<svg xmlns="http://www.w3.org/2000/svg" height="572pt" version="1.1" viewBox="0 0 572.42624 572" width="572pt">
<g id="surface1">
<path d="M 331.578125 309.671875 C 323.410156 301.496094 323.410156 288.261719 331.578125 280.085938 L 563.835938 47.828125 C 569.0625 42.601562 572 35.5 572 28.101562 C 572 12.699219 559.515625 0.214844 544.109375 0.214844 C 536.714844 0.214844 529.613281 3.152344 524.386719 8.378906 L 409.277344 123.488281 C 401.101562 131.652344 387.867188 131.652344 379.691406 123.488281 C 371.527344 115.3125 371.527344 102.078125 379.691406 93.902344 L 437.671875 35.921875 C 445.835938 27.757812 445.847656 14.511719 437.671875 6.335938 C 433.746094 2.421875 428.429688 0.214844 422.878906 0.214844 C 417.324219 0.214844 412.007812 2.414062 408.085938 6.335938 L 34.910156 379.511719 C 15.089844 398.792969 2.832031 424.523438 0.335938 452.054688 C -4.398438 513.503906 41.585938 567.144531 103.027344 571.878906 C 108.726562 572.3125 114.457031 572.3125 120.15625 571.878906 C 147.691406 569.382812 173.421875 557.125 192.703125 537.300781 L 565.875 164.128906 C 569.800781 160.203125 572 154.886719 572 149.335938 C 572 137.785156 562.640625 128.417969 551.082031 128.417969 C 545.53125 128.417969 540.203125 130.617188 536.289062 134.542969 L 361.164062 309.671875 C 352.988281 317.835938 339.753906 317.835938 331.578125 309.671875 Z M 331.578125 309.671875 " style=" stroke:none;fill-rule:nonzero;fill:rgb(94.117647%,39.607843%,16.078431%);fill-opacity:1;" />
<path d="M 187.386719 458.792969 C 187.386719 499.640625 154.269531 532.757812 113.421875 532.757812 C 72.574219 532.757812 39.457031 499.640625 39.457031 458.792969 C 39.457031 417.945312 72.574219 384.828125 113.421875 384.828125 C 154.269531 384.828125 187.386719 417.945312 187.386719 458.792969 Z M 187.386719 458.792969 " style=" stroke:none;fill-rule:nonzero;fill:rgb(98.039216%,73.72549%,37.254902%);fill-opacity:1;" />
<path d="M 138.078125 355.242188 C 132.632812 355.242188 128.214844 350.824219 128.214844 345.382812 C 128.214844 342.769531 129.25 340.261719 131.105469 338.410156 L 269.171875 200.34375 C 273.085938 196.554688 279.328125 196.664062 283.117188 200.589844 C 286.804688 204.414062 286.804688 210.46875 283.117188 214.285156 L 145.050781 352.355469 C 143.195312 354.207031 140.691406 355.242188 138.078125 355.242188 Z M 138.078125 355.242188 " style=" stroke:none;fill-rule:nonzero;fill:rgb(83.137255%,29.019608%,5.882353%);fill-opacity:1;" />
<path d="M 305.730469 187.589844 C 300.285156 187.589844 295.867188 183.171875 295.867188 177.730469 C 295.867188 175.117188 296.902344 172.609375 298.757812 170.757812 L 318.480469 151.03125 C 322.394531 147.246094 328.636719 147.355469 332.425781 151.28125 C 336.113281 155.105469 336.113281 161.160156 332.425781 164.976562 L 312.703125 184.699219 C 310.847656 186.554688 308.34375 187.589844 305.730469 187.589844 Z M 305.730469 187.589844 " style=" stroke:none;fill-rule:nonzero;fill:rgb(83.137255%,29.019608%,5.882353%);fill-opacity:1;" />
<path d="M 207.109375 374.964844 C 201.667969 374.964844 197.25 370.546875 197.25 365.105469 C 197.25 362.492188 198.285156 359.984375 200.136719 358.132812 L 249.449219 308.824219 C 253.363281 305.035156 259.605469 305.144531 263.390625 309.070312 C 267.082031 312.894531 267.082031 318.949219 263.390625 322.765625 L 214.082031 372.074219 C 212.226562 373.929688 209.722656 374.964844 207.109375 374.964844 Z M 207.109375 374.964844 " style=" stroke:none;fill-rule:nonzero;fill:rgb(83.137255%,29.019608%,5.882353%);fill-opacity:1;" />
<path d="M 226.832031 434.136719 C 221.390625 434.136719 216.972656 429.71875 216.972656 424.277344 C 216.972656 421.664062 218.007812 419.15625 219.863281 417.304688 L 259.308594 377.855469 C 263.222656 374.070312 269.464844 374.175781 273.253906 378.101562 C 276.941406 381.929688 276.941406 387.984375 273.253906 391.800781 L 233.804688 431.25 C 231.953125 433.101562 229.449219 434.136719 226.832031 434.136719 Z M 226.832031 434.136719 " style=" stroke:none;fill-rule:nonzero;fill:rgb(83.137255%,29.019608%,5.882353%);fill-opacity:1;" />
</g>
</svg>