<svg xmlns="http://www.w3.org/2000/svg" height="578pt" version="1.1" viewBox="0 0 578 578.85246" width="578pt">
<g id="surface1">
<path d="M 472.738281 120.921875 C 388.390625 43.988281 237.441406 56.457031 136.257812 148.730469 C 81.371094 198.816406 49.878906 264.4375 49.878906 328.769531 C 49.265625 377.871094 69.605469 424.910156 105.804688 458.089844 C 144.628906 491.871094 194.707031 509.867188 246.148438 508.546875 C 318.933594 507.480469 388.765625 479.609375 442.28125 430.273438 C 497.1875 380.183594 528.679688 314.566406 528.679688 250.230469 C 529.292969 201.128906 508.945312 154.101562 472.738281 120.921875 Z M 472.738281 120.921875 " style=" stroke:none;fill-rule:nonzero;fill:rgb(14.901961%,51.372549%,78.823529%);fill-opacity:1;" />
<path d="M 416.183594 210.5625 C 380.863281 153.792969 295.425781 143.121094 225.347656 186.722656 C 155.273438 230.324219 127.097656 311.6875 162.414062 368.453125 C 197.734375 425.21875 283.175781 435.894531 353.25 392.292969 C 423.328125 348.691406 451.503906 267.328125 416.183594 210.5625 Z M 416.183594 210.5625 " style=" stroke:none;fill-rule:nonzero;fill:rgb(16.470588%,56.470588%,87.058824%);fill-opacity:1;" />
<path d="M 347.867188 253.066406 C 331.566406 226.867188 292.132812 221.945312 259.785156 242.070312 C 227.441406 262.195312 214.433594 299.75 230.730469 325.945312 C 247.03125 352.144531 286.46875 357.070312 318.8125 336.941406 C 351.160156 316.816406 364.167969 279.265625 347.867188 253.066406 Z M 347.867188 253.066406 " style=" stroke:none;fill-rule:nonzero;fill:rgb(41.176471%,80%,84.313725%);fill-opacity:1;" />
<path d="M 114.777344 575.78125 C 111.105469 579.808594 104.855469 580.09375 100.828125 576.421875 L 94.183594 570.363281 C 44.992188 525.257812 17.34375 461.328125 18.171875 394.585938 C 18.171875 306.804688 61.210938 217.199219 136.269531 148.726562 L 149.574219 163.328125 C 78.625 228.046875 37.925781 312.335938 37.925781 394.585938 C 37.125 455.761719 62.425781 514.378906 107.480469 555.769531 L 114.136719 561.832031 C 118.164062 565.503906 118.457031 571.753906 114.777344 575.78125 Z M 114.777344 575.78125 " style=" stroke:none;fill-rule:nonzero;fill:rgb(14.901961%,51.372549%,78.823529%);fill-opacity:1;" />
<path d="M 442.28125 430.273438 L 428.957031 415.671875 C 499.914062 350.953125 540.613281 266.667969 540.613281 184.414062 C 541.414062 123.238281 516.113281 64.621094 471.058594 23.230469 L 464.40625 17.167969 C 460.375 13.496094 460.089844 7.246094 463.761719 3.21875 C 467.433594 -0.808594 473.683594 -1.09375 477.710938 2.578125 L 484.355469 8.636719 C 533.546875 53.742188 561.199219 117.671875 560.367188 184.414062 C 560.359375 272.195312 517.308594 361.800781 442.28125 430.273438 Z M 442.28125 430.273438 " style=" stroke:none;fill-rule:nonzero;fill:rgb(14.901961%,51.372549%,78.823529%);fill-opacity:1;" />
<path d="M 297.097656 526.808594 C 224.71875 526.808594 156.445312 504.28125 105.804688 458.082031 L 119.101562 443.5 C 226.851562 541.792969 421.085938 524.566406 552.058594 405.097656 L 561.613281 396.390625 C 565.628906 392.71875 571.871094 392.996094 575.550781 397.015625 C 579.222656 401.042969 578.9375 407.28125 574.910156 410.960938 L 565.363281 419.679688 C 492.183594 487.191406 396.664062 525.335938 297.097656 526.808594 Z M 297.097656 526.808594 " style=" stroke:none;fill-rule:nonzero;fill:rgb(14.901961%,51.372549%,78.823529%);fill-opacity:1;" />
<path d="M 2.988281 181.988281 C -0.664062 177.957031 -0.378906 171.75 3.632812 168.078125 L 13.175781 159.359375 C 151.480469 33.199219 357.640625 15.984375 472.738281 120.960938 L 459.4375 135.5 C 351.667969 37.207031 157.441406 54.445312 26.484375 173.910156 L 16.925781 182.617188 C 12.910156 186.289062 6.671875 186.015625 2.988281 181.988281 Z M 2.988281 181.988281 " style=" stroke:none;fill-rule:nonzero;fill:rgb(14.901961%,51.372549%,78.823529%);fill-opacity:1;" />
</g>
</svg>