<svg xmlns="http://www.w3.org/2000/svg" height="572pt" version="1.1" viewBox="0 0 572 572.41935" width="572pt">
<g id="surface1">
<path d="M 572.207031 285.996094 C 572.207031 443.949219 444.160156 571.996094 286.207031 571.996094 C 128.253906 571.996094 0.210938 443.949219 0.210938 285.996094 C 0.210938 128.046875 128.253906 0 286.207031 0 C 444.160156 0 572.207031 128.046875 572.207031 285.996094 Z M 572.207031 285.996094 " style=" stroke:none;fill-rule:nonzero;fill:rgb(60%,43.137255%,31.764706%);fill-opacity:1;" />
<path d="M 538.675781 332.785156 C 510.332031 283.796875 447.648438 267.054688 398.652344 295.398438 C 394.953125 297.539062 391.382812 299.914062 387.980469 302.496094 L 364.3125 320.457031 L 339.570312 291.246094 C 303.730469 248.925781 240.378906 243.671875 198.058594 279.507812 C 194.707031 282.351562 191.539062 285.40625 188.59375 288.660156 C 161.757812 318.289062 155.042969 361.011719 171.511719 397.441406 L 173.601562 402.074219 C 183.730469 424.503906 197.734375 444.964844 214.964844 462.53125 L 320.289062 569.878906 C 424.542969 557.332031 513.554688 488.703125 552.195312 391.070312 C 553.605469 370.722656 548.890625 350.425781 538.675781 332.785156 Z M 538.675781 332.785156 " style=" stroke:none;fill-rule:nonzero;fill:rgb(67.843137%,49.803922%,36.078431%);fill-opacity:1;" />
<path d="M 572.207031 285.996094 C 572.273438 238.757812 560.578125 192.25 538.191406 150.660156 C 526.109375 198.453125 507.726562 244.429688 483.546875 287.378906 C 506.8125 295.335938 526.417969 311.453125 538.714844 332.742188 C 548.882812 350.40625 553.578125 370.691406 552.195312 391.027344 C 564.71875 357.390625 571.484375 321.886719 572.207031 285.996094 Z M 572.207031 285.996094 " style=" stroke:none;fill-rule:nonzero;fill:rgb(54.901961%,38.823529%,28.235294%);fill-opacity:1;" />
<path d="M 66.996094 469.621094 C 128.957031 543.839844 224.3125 581.59375 320.289062 569.90625 L 218.867188 466.53125 C 168.671875 474.984375 117.496094 476.019531 66.996094 469.621094 Z M 66.996094 469.621094 " style=" stroke:none;fill-rule:nonzero;fill:rgb(54.901961%,38.823529%,28.235294%);fill-opacity:1;" />
<path d="M 377.925781 556.878906 C 408.199219 546.632812 436.535156 531.375 461.75 511.730469 L 461.839844 511.660156 C 476.820312 499.996094 490.597656 486.867188 502.984375 472.480469 C 523.835938 448.289062 540.472656 420.773438 552.226562 391.078125 C 555.460938 344.945312 527.285156 302.398438 483.546875 287.378906 C 456.269531 336.699219 417.285156 378.554688 370.035156 409.273438 C 323.863281 438.042969 272.511719 457.488281 218.871094 466.53125 L 320.292969 569.90625 C 339.789062 567.589844 359 563.257812 377.609375 556.984375 Z M 377.925781 556.878906 " style=" stroke:none;fill-rule:nonzero;fill:rgb(63.921569%,44.705882%,30.196078%);fill-opacity:1;" />
</g>
</svg>