<svg xmlns="http://www.w3.org/2000/svg" height="592pt" version="1.1" viewBox="0 -51 592.15499 592" width="592pt">
<g id="surface1">
<path d="M 0 470.761719 L 78.933594 470.761719 L 78.933594 490.496094 L 0 490.496094 Z M 0 470.761719 " style=" stroke:none;fill-rule:nonzero;fill:rgb(94.117647%,61.960784%,14.901961%);fill-opacity:1;" />
<path d="M 48.710938 484.101562 L 30.222656 477.195312 L 89.421875 319.328125 C 90.367188 316.8125 92.300781 314.789062 94.777344 313.734375 L 187.464844 273.429688 L 195.242188 291.5625 L 106.441406 330.171875 Z M 48.710938 484.101562 " style=" stroke:none;fill-rule:nonzero;fill:rgb(94.117647%,61.960784%,14.901961%);fill-opacity:1;" />
<path d="M 55.824219 412.164062 L 217.039062 353.511719 L 223.78125 372.042969 L 62.570312 430.699219 Z M 55.824219 412.164062 " style=" stroke:none;fill-rule:nonzero;fill:rgb(94.117647%,61.960784%,14.901961%);fill-opacity:1;" />
<path d="M 92.28125 330.25 L 105.117188 315.273438 L 174.191406 374.480469 L 161.355469 389.457031 Z M 92.28125 330.25 " style=" stroke:none;fill-rule:nonzero;fill:rgb(94.117647%,61.960784%,14.901961%);fill-opacity:1;" />
<path d="M 513.066406 470.761719 L 592 470.761719 L 592 490.496094 L 513.066406 490.496094 Z M 513.066406 470.761719 " style=" stroke:none;fill-rule:nonzero;fill:rgb(94.117647%,61.960784%,14.901961%);fill-opacity:1;" />
<path d="M 543.289062 484.101562 L 485.566406 330.183594 L 396.769531 291.574219 L 404.53125 273.429688 L 497.222656 313.695312 C 499.695312 314.75 501.632812 316.773438 502.578125 319.289062 L 561.777344 477.15625 Z M 543.289062 484.101562 " style=" stroke:none;fill-rule:nonzero;fill:rgb(94.117647%,61.960784%,14.901961%);fill-opacity:1;" />
<path d="M 529.425781 430.695312 L 387.917969 380.769531 L 394.667969 362.230469 L 536.175781 412.164062 Z M 529.425781 430.695312 " style=" stroke:none;fill-rule:nonzero;fill:rgb(94.117647%,61.960784%,14.901961%);fill-opacity:1;" />
<path d="M 417.867188 374.472656 L 486.914062 315.242188 L 499.753906 330.214844 L 430.707031 389.445312 Z M 417.867188 374.472656 " style=" stroke:none;fill-rule:nonzero;fill:rgb(94.117647%,61.960784%,14.901961%);fill-opacity:1;" />
<path d="M 424.265625 293.160156 L 167.734375 293.160156 L 167.734375 164.894531 L 207.199219 115.5625 L 384.800781 115.5625 L 424.265625 164.894531 Z M 424.265625 293.160156 " style=" stroke:none;fill-rule:nonzero;fill:rgb(94.117647%,61.960784%,14.901961%);fill-opacity:1;" />
<path d="M 167.734375 293.160156 L 424.265625 293.160156 L 424.265625 381.960938 L 167.734375 381.960938 Z M 167.734375 293.160156 " style=" stroke:none;fill-rule:nonzero;fill:rgb(94.117647%,61.960784%,14.901961%);fill-opacity:1;" />
<path d="M 286.132812 66.230469 L 305.867188 66.230469 L 305.867188 115.5625 L 286.132812 115.5625 Z M 286.132812 66.230469 " style=" stroke:none;fill-rule:nonzero;fill:rgb(89.019608%,53.333333%,0%);fill-opacity:1;" />
<path d="M 325.601562 46.496094 C 325.601562 62.84375 312.347656 76.09375 296 76.09375 C 279.652344 76.09375 266.398438 62.84375 266.398438 46.496094 C 266.398438 30.148438 279.652344 16.894531 296 16.894531 C 312.347656 16.894531 325.601562 30.148438 325.601562 46.496094 Z M 325.601562 46.496094 " style=" stroke:none;fill-rule:nonzero;fill:rgb(94.117647%,61.960784%,14.901961%);fill-opacity:1;" />
<path d="M 308.753906 19.792969 L 328.484375 0.0625 L 342.4375 14.015625 L 322.707031 33.746094 Z M 308.753906 19.792969 " style=" stroke:none;fill-rule:nonzero;fill:rgb(94.117647%,61.960784%,14.901961%);fill-opacity:1;" />
<path d="M 167.734375 184.628906 C 167.734375 200.976562 154.480469 214.230469 138.132812 214.230469 C 121.785156 214.230469 108.53125 200.976562 108.53125 184.628906 C 108.53125 168.28125 121.785156 155.027344 138.132812 155.027344 C 154.480469 155.027344 167.734375 168.28125 167.734375 184.628906 Z M 167.734375 184.628906 " style=" stroke:none;fill-rule:nonzero;fill:rgb(94.117647%,61.960784%,14.901961%);fill-opacity:1;" />
<path d="M 256.53125 470.761719 L 335.464844 470.761719 L 335.464844 490.496094 L 256.53125 490.496094 Z M 256.53125 470.761719 " style=" stroke:none;fill-rule:nonzero;fill:rgb(96.078431%,68.235294%,27.058824%);fill-opacity:1;" />
<path d="M 286.132812 293.160156 L 305.867188 293.160156 L 305.867188 480.628906 L 286.132812 480.628906 Z M 286.132812 293.160156 " style=" stroke:none;fill-rule:nonzero;fill:rgb(96.078431%,68.235294%,27.058824%);fill-opacity:1;" />
<path d="M 296 441.160156 C 293.691406 441.160156 291.460938 440.351562 289.683594 438.882812 L 230.484375 389.550781 C 226.609375 386.324219 225.789062 380.679688 228.589844 376.484375 L 287.792969 287.6875 C 291.1875 283.15625 297.609375 282.230469 302.136719 285.613281 C 302.925781 286.207031 303.617188 286.894531 304.210938 287.6875 L 363.410156 376.484375 C 366.210938 380.679688 365.394531 386.324219 361.515625 389.550781 L 302.316406 438.882812 C 300.539062 440.363281 298.308594 441.171875 296 441.160156 Z M 249.933594 380.058594 L 296 418.46875 L 342.070312 380.078125 L 296 310.921875 Z M 249.933594 380.058594 " style=" stroke:none;fill-rule:nonzero;fill:rgb(96.078431%,68.235294%,27.058824%);fill-opacity:1;" />
<path d="M 424.265625 194.496094 L 345.332031 225.132812 L 345.332031 254.730469 L 424.265625 293.160156 L 453.867188 273.429688 L 453.867188 214.226562 Z M 424.265625 194.496094 " style=" stroke:none;fill-rule:nonzero;fill:rgb(98.039216%,73.72549%,37.254902%);fill-opacity:1;" />
<path d="M 404.425781 202.203125 L 345.332031 225.132812 L 345.332031 254.730469 L 382.589844 272.867188 C 396.867188 252.878906 404.542969 228.929688 404.53125 204.363281 C 404.53125 203.632812 404.433594 202.921875 404.425781 202.203125 Z M 404.425781 202.203125 " style=" stroke:none;fill-rule:nonzero;fill:rgb(96.078431%,68.235294%,27.058824%);fill-opacity:1;" />
<path d="M 384.800781 204.363281 C 384.800781 253.40625 345.042969 293.160156 296 293.160156 C 246.957031 293.160156 207.199219 253.40625 207.199219 204.363281 C 207.199219 155.320312 246.957031 115.5625 296 115.5625 C 345.042969 115.5625 384.800781 155.320312 384.800781 204.363281 Z M 384.800781 204.363281 " style=" stroke:none;fill-rule:nonzero;fill:rgb(98.039216%,73.72549%,37.254902%);fill-opacity:1;" />
<path d="M 216.542969 164.894531 C 205.757812 186.375 204.238281 211.339844 212.359375 233.960938 L 379.636719 233.960938 C 387.757812 211.339844 386.238281 186.375 375.453125 164.894531 Z M 216.542969 164.894531 " style=" stroke:none;fill-rule:nonzero;fill:rgb(50.196078%,54.509804%,58.823529%);fill-opacity:1;" />
<path d="M 208.582031 219.734375 C 209.449219 224.570312 210.710938 229.335938 212.359375 233.960938 L 379.640625 233.960938 C 387.257812 212.855469 386.40625 189.621094 377.269531 169.128906 Z M 208.582031 219.734375 " style=" stroke:none;fill-rule:nonzero;fill:rgb(34.117647%,39.607843%,45.098039%);fill-opacity:1;" />
<path d="M 258.722656 184.628906 L 251.046875 253.695312 L 340.953125 253.695312 L 333.277344 184.628906 Z M 258.722656 184.628906 " style=" stroke:none;fill-rule:nonzero;fill:rgb(94.117647%,61.960784%,14.901961%);fill-opacity:1;" />
<path d="M 246.667969 293.160156 L 345.332031 293.160156 L 340.953125 253.695312 L 251.046875 253.695312 Z M 246.667969 293.160156 " style=" stroke:none;fill-rule:nonzero;fill:rgb(96.078431%,68.235294%,27.058824%);fill-opacity:1;" />
<path d="M 325.601562 115.5625 L 266.398438 115.5625 L 258.722656 184.628906 L 333.277344 184.628906 Z M 325.601562 115.5625 " style=" stroke:none;fill-rule:nonzero;fill:rgb(96.078431%,68.235294%,27.058824%);fill-opacity:1;" />
</g>
</svg>