<svg xmlns="http://www.w3.org/2000/svg" height="582pt" version="1.1" viewBox="-133 0 582 582.286" width="582pt">
<g id="surface1">
<path d="M 297.726562 142.410156 L 182.90625 310.796875 L 226.613281 150.558594 L 207.574219 145.371094 L 157.90625 327.5 L 108.242188 145.371094 L 89.203125 150.558594 L 132.910156 310.796875 L 18.089844 142.410156 L 1.792969 153.519531 L 149.761719 370.535156 C 150.304688 371.324219 150.972656 372.023438 151.734375 372.609375 C 151.941406 372.777344 152.167969 372.914062 152.394531 373.070312 C 152.976562 373.464844 153.605469 373.792969 154.257812 374.058594 C 154.523438 374.167969 154.769531 374.273438 155.046875 374.363281 C 156.910156 374.996094 158.925781 374.996094 160.789062 374.363281 C 161.0625 374.273438 161.3125 374.167969 161.578125 374.058594 C 162.238281 373.792969 162.859375 373.464844 163.453125 373.070312 C 163.667969 372.914062 163.894531 372.785156 164.101562 372.609375 C 164.863281 372.027344 165.535156 371.324219 166.074219 370.535156 L 314.042969 153.519531 Z M 297.726562 142.410156 " style=" stroke:none;fill-rule:nonzero;fill:rgb(65.882353%,69.803922%,74.901961%);fill-opacity:1;" />
<path d="M 226.613281 150.558594 L 207.574219 145.371094 L 198.796875 177.558594 L 219.246094 177.558594 Z M 226.613281 150.558594 " style=" stroke:none;fill-rule:nonzero;fill:rgb(50.196078%,54.509804%,58.823529%);fill-opacity:1;" />
<path d="M 314.023438 153.519531 L 297.726562 142.410156 L 273.753906 177.558594 L 297.636719 177.558594 Z M 314.023438 153.519531 " style=" stroke:none;fill-rule:nonzero;fill:rgb(50.196078%,54.509804%,58.823529%);fill-opacity:1;" />
<path d="M 18.089844 142.410156 L 1.792969 153.519531 L 18.179688 177.558594 L 42.058594 177.558594 Z M 18.089844 142.410156 " style=" stroke:none;fill-rule:nonzero;fill:rgb(50.196078%,54.509804%,58.823529%);fill-opacity:1;" />
<path d="M 108.242188 145.371094 L 89.203125 150.558594 L 96.570312 177.558594 L 117.019531 177.558594 Z M 108.242188 145.371094 " style=" stroke:none;fill-rule:nonzero;fill:rgb(50.196078%,54.509804%,58.823529%);fill-opacity:1;" />
<path d="M 167.773438 0 L 148.042969 0 C 66.367188 0.0898438 0.167969 66.289062 0.078125 147.964844 L 0.078125 157.832031 L 315.738281 157.832031 L 315.738281 147.964844 C 315.648438 66.289062 249.449219 0.0898438 167.773438 0 Z M 167.773438 0 " style=" stroke:none;fill-rule:nonzero;fill:rgb(94.117647%,39.607843%,16.078431%);fill-opacity:1;" />
<path d="M 90.25 157.832031 L 110.15625 157.832031 L 108.035156 142.433594 C 102.953125 96.464844 121.773438 51.097656 157.90625 22.222656 C 193.941406 50.949219 212.785156 96.117188 207.839844 141.9375 L 205.257812 157.828125 L 225.242188 157.828125 L 227.390625 144.609375 C 233.546875 88.996094 209.164062 34.386719 163.640625 1.84375 C 160.207031 -0.601562 155.609375 -0.601562 152.175781 1.84375 C 106.59375 34.457031 82.21875 89.175781 88.464844 144.878906 Z M 90.25 157.832031 " style=" stroke:none;fill-rule:nonzero;fill:rgb(87.843137%,33.72549%,10.196078%);fill-opacity:1;" />
<path d="M 268.035156 39.457031 L 47.78125 39.457031 C 41.261719 45.484375 35.292969 52.09375 29.945312 59.1875 L 285.867188 59.1875 C 280.523438 52.09375 274.554688 45.484375 268.035156 39.457031 Z M 268.035156 39.457031 " style=" stroke:none;fill-rule:nonzero;fill:rgb(83.137255%,31.764706%,9.803922%);fill-opacity:1;" />
<path d="M 12.515625 88.78125 C 9.753906 95.179688 7.445312 101.78125 5.613281 108.507812 L 310.234375 108.507812 C 308.398438 101.78125 306.089844 95.183594 303.328125 88.78125 Z M 12.515625 88.78125 " style=" stroke:none;fill-rule:nonzero;fill:rgb(83.137255%,31.764706%,9.803922%);fill-opacity:1;" />
<path d="M 217.09375 404.441406 L 98.722656 404.441406 L 34.898438 568.566406 C 32.925781 573.644531 35.441406 579.355469 40.519531 581.328125 C 41.664062 581.773438 42.867188 582 44.09375 582 L 271.722656 582 C 277.167969 582 281.585938 577.582031 281.585938 572.136719 C 281.585938 570.914062 281.359375 569.710938 280.917969 568.566406 Z M 217.09375 404.441406 " style=" stroke:none;fill-rule:nonzero;fill:rgb(81.568627%,84.313725%,87.45098%);fill-opacity:1;" />
<path d="M 207.230469 503.085938 L 108.585938 503.085938 L 128.316406 443.898438 L 187.5 443.898438 Z M 207.230469 503.085938 " style=" stroke:none;fill-rule:nonzero;fill:rgb(16.470588%,56.470588%,87.058824%);fill-opacity:1;" />
<path d="M 217.09375 404.441406 L 98.722656 404.441406 L 108.585938 364.984375 L 207.230469 364.984375 Z M 217.09375 404.441406 " style=" stroke:none;fill-rule:nonzero;fill:rgb(76.470588%,78.823529%,81.960784%);fill-opacity:1;" />
<path d="M 108.585938 532.679688 L 128.316406 532.679688 L 128.316406 552.40625 L 108.585938 552.40625 Z M 108.585938 532.679688 " style=" stroke:none;fill-rule:nonzero;fill:rgb(65.882353%,69.803922%,74.901961%);fill-opacity:1;" />
<path d="M 187.5 532.679688 L 207.230469 532.679688 L 207.230469 552.40625 L 187.5 552.40625 Z M 187.5 532.679688 " style=" stroke:none;fill-rule:nonzero;fill:rgb(65.882353%,69.803922%,74.901961%);fill-opacity:1;" />
<path d="M 148.042969 532.679688 L 167.773438 532.679688 L 167.773438 552.40625 L 148.042969 552.40625 Z M 148.042969 532.679688 " style=" stroke:none;fill-rule:nonzero;fill:rgb(65.882353%,69.803922%,74.901961%);fill-opacity:1;" />
<path d="M 128.316406 364.984375 L 148.042969 364.984375 L 148.042969 404.441406 L 128.316406 404.441406 Z M 128.316406 364.984375 " style=" stroke:none;fill-rule:nonzero;fill:rgb(65.882353%,69.803922%,74.901961%);fill-opacity:1;" />
<path d="M 167.773438 364.984375 L 187.5 364.984375 L 187.5 404.441406 L 167.773438 404.441406 Z M 167.773438 364.984375 " style=" stroke:none;fill-rule:nonzero;fill:rgb(65.882353%,69.803922%,74.901961%);fill-opacity:1;" />
<path d="M 191.199219 454.996094 L 143.109375 503.085938 L 207.230469 503.085938 Z M 191.199219 454.996094 " style=" stroke:none;fill-rule:nonzero;fill:rgb(13.72549%,47.45098%,72.941176%);fill-opacity:1;" />
</g>
</svg>