<svg xmlns="http://www.w3.org/2000/svg" height="582pt" version="1.1" viewBox="0 -5 582.286 582" width="582pt">
<g id="surface1">
<path d="M 59.1875 0.140625 L 157.828125 0.140625 L 157.828125 79.054688 L 59.1875 79.054688 Z M 59.1875 0.140625 " style=" stroke:none;fill-rule:nonzero;fill:rgb(16.470588%,56.470588%,87.058824%);fill-opacity:1;" />
<path d="M 69.050781 79.054688 L 157.832031 79.054688 L 157.832031 0.140625 L 147.964844 0.140625 Z M 69.050781 79.054688 " style=" stroke:none;fill-rule:nonzero;fill:rgb(14.901961%,51.372549%,78.823529%);fill-opacity:1;" />
<path d="M 147.964844 0.140625 L 167.695312 0.140625 L 167.695312 266.480469 L 147.964844 266.480469 Z M 147.964844 0.140625 " style=" stroke:none;fill-rule:nonzero;fill:rgb(65.882353%,69.803922%,74.901961%);fill-opacity:1;" />
<path d="M 147.964844 128.378906 L 167.695312 128.378906 L 167.695312 157.972656 L 147.964844 157.972656 Z M 147.964844 128.378906 " style=" stroke:none;fill-rule:nonzero;fill:rgb(50.196078%,54.509804%,58.823529%);fill-opacity:1;" />
<path d="M 453.761719 414.445312 C 453.761719 501.613281 383.097656 572.277344 295.929688 572.277344 C 208.765625 572.277344 138.101562 501.613281 138.101562 414.445312 C 138.101562 327.277344 208.765625 256.613281 295.929688 256.613281 C 383.097656 256.613281 453.761719 327.277344 453.761719 414.445312 Z M 453.761719 414.445312 " style=" stroke:none;fill-rule:nonzero;fill:rgb(60%,43.137255%,31.764706%);fill-opacity:1;" />
<path d="M 341.851562 263.453125 C 387.179688 337.828125 363.621094 434.875 289.234375 480.191406 C 250.832031 503.589844 204.25 509.488281 161.234375 496.390625 C 206.523438 570.816406 303.566406 594.441406 377.996094 549.164062 C 452.421875 503.886719 476.046875 406.828125 430.769531 332.402344 C 410.605469 299.269531 378.960938 274.726562 341.851562 263.453125 Z M 341.851562 263.453125 " style=" stroke:none;fill-rule:nonzero;fill:rgb(54.901961%,38.823529%,28.235294%);fill-opacity:1;" />
<path d="M 295.929688 266.480469 L 248.9375 266.480469 C 242.199219 266.480469 236.746094 261.023438 236.746094 254.285156 C 236.746094 249.671875 239.359375 245.449219 243.484375 243.378906 L 256.476562 236.886719 L 256.476562 187.5625 L 295.933594 187.5625 L 295.933594 266.480469 Z M 295.929688 266.480469 " style=" stroke:none;fill-rule:nonzero;fill:rgb(76.470588%,78.823529%,81.960784%);fill-opacity:1;" />
<path d="M 295.929688 266.480469 L 342.925781 266.480469 C 349.664062 266.480469 355.117188 261.023438 355.117188 254.285156 C 355.117188 249.671875 352.503906 245.449219 348.378906 243.378906 L 335.386719 236.886719 L 335.386719 187.5625 L 295.929688 187.5625 Z M 295.929688 266.480469 " style=" stroke:none;fill-rule:nonzero;fill:rgb(76.470588%,78.823529%,81.960784%);fill-opacity:1;" />
<path d="M 256.472656 217.15625 L 295.929688 217.15625 L 295.929688 236.886719 L 256.472656 236.886719 Z M 256.472656 217.15625 " style=" stroke:none;fill-rule:nonzero;fill:rgb(65.882353%,69.803922%,74.901961%);fill-opacity:1;" />
<path d="M 295.929688 217.15625 L 335.390625 217.15625 L 335.390625 236.886719 L 295.929688 236.886719 Z M 295.929688 217.15625 " style=" stroke:none;fill-rule:nonzero;fill:rgb(65.882353%,69.803922%,74.901961%);fill-opacity:1;" />
<path d="M 374.847656 187.5625 L 217.015625 187.5625 L 217.015625 39.597656 C 217.015625 17.808594 234.683594 0.140625 256.476562 0.140625 L 335.390625 0.140625 C 357.179688 0.140625 374.847656 17.808594 374.847656 39.597656 Z M 374.847656 187.5625 " style=" stroke:none;fill-rule:nonzero;fill:rgb(71.764706%,74.117647%,76.862745%);fill-opacity:1;" />
<path d="M 335.390625 0.140625 L 295.933594 0.140625 C 317.722656 0.140625 335.390625 17.808594 335.390625 39.597656 L 335.390625 187.5625 L 374.847656 187.5625 L 374.847656 39.597656 C 374.847656 17.808594 357.179688 0.140625 335.390625 0.140625 Z M 335.390625 0.140625 " style=" stroke:none;fill-rule:nonzero;fill:rgb(65.882353%,69.803922%,74.901961%);fill-opacity:1;" />
<path d="M 335.390625 69.191406 C 335.390625 90.984375 317.722656 108.648438 295.929688 108.648438 C 274.140625 108.648438 256.472656 90.984375 256.472656 69.191406 C 256.472656 47.398438 274.140625 29.734375 295.929688 29.734375 C 317.722656 29.734375 335.390625 47.398438 335.390625 69.191406 Z M 335.390625 69.191406 " style=" stroke:none;fill-rule:nonzero;fill:rgb(16.470588%,56.470588%,87.058824%);fill-opacity:1;" />
<path d="M 315.433594 35.082031 C 315.542969 36.578125 315.660156 38.039062 315.660156 39.597656 C 315.660156 67.625 296 91.808594 268.566406 97.542969 C 284.144531 112.714844 309.070312 112.378906 324.242188 96.800781 C 339.414062 81.226562 339.078125 56.300781 323.503906 41.128906 C 321.085938 38.777344 318.375 36.746094 315.433594 35.082031 Z M 315.433594 35.082031 " style=" stroke:none;fill-rule:nonzero;fill:rgb(16.470588%,40%,61.960784%);fill-opacity:1;" />
<path d="M 157.832031 148.105469 L 256.472656 148.105469 L 256.472656 108.648438 L 157.832031 108.648438 C 146.929688 108.648438 138.101562 117.476562 138.101562 128.378906 C 138.101562 139.277344 146.929688 148.105469 157.832031 148.105469 Z M 157.832031 148.105469 " style=" stroke:none;fill-rule:nonzero;fill:rgb(76.470588%,78.823529%,81.960784%);fill-opacity:1;" />
<path d="M 256.472656 108.648438 L 335.390625 108.648438 L 335.390625 187.5625 L 256.472656 187.5625 Z M 256.472656 108.648438 " style=" stroke:none;fill-rule:nonzero;fill:rgb(76.470588%,78.823529%,81.960784%);fill-opacity:1;" />
<path d="M 236.746094 444.039062 C 209.511719 444.039062 187.425781 421.953125 187.425781 394.714844 C 187.425781 367.480469 209.511719 345.394531 236.746094 345.394531 C 263.980469 345.394531 286.066406 367.480469 286.066406 394.714844 C 286.039062 421.941406 263.972656 444.007812 236.746094 444.039062 Z M 236.746094 365.125 C 220.402344 365.125 207.152344 378.371094 207.152344 394.714844 C 207.152344 411.0625 220.398438 424.308594 236.746094 424.308594 C 253.089844 424.308594 266.339844 411.0625 266.339844 394.714844 C 266.339844 378.371094 253.089844 365.125 236.746094 365.125 Z M 236.746094 365.125 " style=" stroke:none;fill-rule:nonzero;fill:rgb(38.823529%,25.490196%,16.078431%);fill-opacity:1;" />
<path d="M 335.390625 493.359375 C 319.046875 493.359375 305.796875 480.113281 305.796875 463.765625 C 305.796875 447.421875 319.042969 434.171875 335.390625 434.171875 C 351.734375 434.171875 364.984375 447.421875 364.984375 463.765625 C 364.984375 480.113281 351.734375 493.359375 335.390625 493.359375 Z M 335.390625 453.902344 C 329.945312 453.902344 325.527344 458.320312 325.527344 463.765625 C 325.527344 469.210938 329.945312 473.632812 335.390625 473.632812 C 340.835938 473.632812 345.253906 469.210938 345.253906 463.765625 C 345.253906 458.320312 340.835938 453.902344 335.390625 453.902344 Z M 335.390625 453.902344 " style=" stroke:none;fill-rule:nonzero;fill:rgb(38.823529%,25.490196%,16.078431%);fill-opacity:1;" />
<path d="M 355.117188 355.257812 L 374.847656 355.257812 L 374.847656 374.988281 L 355.117188 374.988281 Z M 355.117188 355.257812 " style=" stroke:none;fill-rule:nonzero;fill:rgb(38.823529%,25.490196%,16.078431%);fill-opacity:1;" />
<path d="M 473.492188 10.003906 L 493.21875 10.003906 L 493.21875 69.191406 L 473.492188 69.191406 Z M 473.492188 10.003906 " style=" stroke:none;fill-rule:nonzero;fill:rgb(98.039216%,73.72549%,37.254902%);fill-opacity:1;" />
<path d="M 453.761719 29.734375 L 512.949219 29.734375 L 512.949219 49.460938 L 453.761719 49.460938 Z M 453.761719 29.734375 " style=" stroke:none;fill-rule:nonzero;fill:rgb(98.039216%,73.72549%,37.254902%);fill-opacity:1;" />
<path d="M 562.269531 49.460938 L 582 49.460938 L 582 69.191406 L 562.269531 69.191406 Z M 562.269531 49.460938 " style=" stroke:none;fill-rule:nonzero;fill:rgb(98.039216%,73.72549%,37.254902%);fill-opacity:1;" />
<path d="M 532.679688 167.835938 L 552.40625 167.835938 L 552.40625 227.019531 L 532.679688 227.019531 Z M 532.679688 167.835938 " style=" stroke:none;fill-rule:nonzero;fill:rgb(98.039216%,73.72549%,37.254902%);fill-opacity:1;" />
<path d="M 512.949219 187.5625 L 572.136719 187.5625 L 572.136719 207.292969 L 512.949219 207.292969 Z M 512.949219 187.5625 " style=" stroke:none;fill-rule:nonzero;fill:rgb(98.039216%,73.72549%,37.254902%);fill-opacity:1;" />
<path d="M 19.730469 157.972656 L 39.457031 157.972656 L 39.457031 217.15625 L 19.730469 217.15625 Z M 19.730469 157.972656 " style=" stroke:none;fill-rule:nonzero;fill:rgb(98.039216%,73.72549%,37.254902%);fill-opacity:1;" />
<path d="M 0 177.699219 L 59.1875 177.699219 L 59.1875 197.429688 L 0 197.429688 Z M 0 177.699219 " style=" stroke:none;fill-rule:nonzero;fill:rgb(98.039216%,73.72549%,37.254902%);fill-opacity:1;" />
<path d="M 59.1875 305.9375 L 78.914062 305.9375 L 78.914062 325.664062 L 59.1875 325.664062 Z M 59.1875 305.9375 " style=" stroke:none;fill-rule:nonzero;fill:rgb(98.039216%,73.72549%,37.254902%);fill-opacity:1;" />
<path d="M 503.085938 404.582031 L 522.8125 404.582031 L 522.8125 424.308594 L 503.085938 424.308594 Z M 503.085938 404.582031 " style=" stroke:none;fill-rule:nonzero;fill:rgb(98.039216%,73.72549%,37.254902%);fill-opacity:1;" />
<path d="M 286.066406 138.242188 L 305.796875 138.242188 L 305.796875 157.972656 L 286.066406 157.972656 Z M 286.066406 138.242188 " style=" stroke:none;fill-rule:nonzero;fill:rgb(41.176471%,80%,84.313725%);fill-opacity:1;" />
<path d="M 286.066406 197.429688 L 305.796875 197.429688 L 305.796875 266.480469 L 286.066406 266.480469 Z M 286.066406 197.429688 " style=" stroke:none;fill-rule:nonzero;fill:rgb(50.196078%,54.509804%,58.823529%);fill-opacity:1;" />
<path d="M 374.847656 108.648438 L 335.390625 108.648438 L 335.390625 148.105469 L 374.847656 148.105469 L 374.847656 177.699219 C 374.847656 188.601562 383.675781 197.429688 394.574219 197.429688 C 405.476562 197.429688 414.304688 188.601562 414.304688 177.699219 L 414.304688 148.105469 C 414.304688 126.316406 396.636719 108.648438 374.847656 108.648438 Z M 374.847656 108.648438 " style=" stroke:none;fill-rule:nonzero;fill:rgb(76.470588%,78.823529%,81.960784%);fill-opacity:1;" />
<path d="M 167.695312 108.648438 L 187.425781 108.648438 L 187.425781 148.105469 L 167.695312 148.105469 Z M 167.695312 108.648438 " style=" stroke:none;fill-rule:nonzero;fill:rgb(65.882353%,69.803922%,74.901961%);fill-opacity:1;" />
<path d="M 207.152344 108.648438 L 226.882812 108.648438 L 226.882812 148.105469 L 207.152344 148.105469 Z M 207.152344 108.648438 " style=" stroke:none;fill-rule:nonzero;fill:rgb(65.882353%,69.803922%,74.901961%);fill-opacity:1;" />
<path d="M 374.847656 148.105469 L 414.304688 148.105469 L 414.304688 167.835938 L 374.847656 167.835938 Z M 374.847656 148.105469 " style=" stroke:none;fill-rule:nonzero;fill:rgb(65.882353%,69.803922%,74.901961%);fill-opacity:1;" />
<path d="M 384.710938 110.039062 C 381.496094 109.160156 378.183594 108.6875 374.847656 108.648438 L 364.984375 108.648438 L 364.984375 148.105469 L 384.714844 148.105469 L 384.714844 110.039062 Z M 384.710938 110.039062 " style=" stroke:none;fill-rule:nonzero;fill:rgb(65.882353%,69.803922%,74.901961%);fill-opacity:1;" />
</g>
</svg>