<svg xmlns="http://www.w3.org/2000/svg" height="572pt" version="1.1" viewBox="0 -39 572.41699 572" width="572pt">
<g id="surface1">
<path d="M 2.882812 66.332031 L 16.832031 52.382812 L 145.035156 180.589844 L 131.089844 194.535156 Z M 2.882812 66.332031 " style=" stroke:none;fill-rule:nonzero;fill:rgb(65.882353%,69.803922%,74.901961%);fill-opacity:1;" />
<path d="M 473.378906 286.179688 L 552.273438 286.179688 L 552.273438 384.800781 L 473.378906 384.800781 Z M 473.378906 286.179688 " style=" stroke:none;fill-rule:nonzero;fill:rgb(65.882353%,69.803922%,74.901961%);fill-opacity:1;" />
<path d="M 502.964844 286.179688 L 522.691406 286.179688 L 522.691406 384.800781 L 502.964844 384.800781 Z M 502.964844 286.179688 " style=" stroke:none;fill-rule:nonzero;fill:rgb(50.196078%,54.509804%,58.823529%);fill-opacity:1;" />
<path d="M 345.171875 325.628906 L 424.070312 325.628906 L 424.070312 384.800781 L 345.171875 384.800781 Z M 345.171875 325.628906 " style=" stroke:none;fill-rule:nonzero;fill:rgb(65.882353%,69.803922%,74.901961%);fill-opacity:1;" />
<path d="M 451.167969 218.773438 C 442.757812 213.171875 431.394531 215.449219 425.792969 223.871094 C 425.378906 224.492188 425.003906 225.144531 424.660156 225.8125 L 394.480469 286.179688 L 345.171875 286.179688 C 334.273438 286.179688 325.449219 295.003906 325.449219 305.902344 C 325.449219 316.800781 334.273438 325.625 345.171875 325.625 L 404.039062 325.625 C 416.140625 325.625 427.015625 318.261719 431.503906 307.027344 L 458.003906 240.8125 C 461.238281 232.777344 458.378906 223.574219 451.167969 218.773438 Z M 451.167969 218.773438 " style=" stroke:none;fill-rule:nonzero;fill:rgb(81.568627%,84.313725%,87.45098%);fill-opacity:1;" />
<path d="M 29.585938 365.074219 L 118.34375 365.074219 L 118.34375 404.523438 L 29.585938 404.523438 Z M 29.585938 365.074219 " style=" stroke:none;fill-rule:nonzero;fill:rgb(65.882353%,69.803922%,74.901961%);fill-opacity:1;" />
<path d="M 118.34375 384.800781 L 572 384.800781 L 572 424.25 L 118.34375 424.25 Z M 118.34375 384.800781 " style=" stroke:none;fill-rule:nonzero;fill:rgb(65.882353%,69.803922%,74.901961%);fill-opacity:1;" />
<path d="M 88.757812 148.109375 L 108.484375 148.109375 L 108.484375 365.085938 L 88.757812 365.085938 Z M 88.757812 148.109375 " style=" stroke:none;fill-rule:nonzero;fill:rgb(65.882353%,69.803922%,74.901961%);fill-opacity:1;" />
<path d="M 49.308594 335.488281 L 69.035156 335.488281 L 69.035156 365.074219 L 49.308594 365.074219 Z M 49.308594 335.488281 " style=" stroke:none;fill-rule:nonzero;fill:rgb(98.039216%,73.72549%,37.254902%);fill-opacity:1;" />
<path d="M 266.277344 296.042969 L 226.828125 296.042969 L 216.964844 256.59375 L 266.277344 246.730469 Z M 266.277344 296.042969 " style=" stroke:none;fill-rule:nonzero;fill:rgb(65.882353%,69.803922%,74.901961%);fill-opacity:1;" />
<path d="M 295.859375 384.800781 L 276.136719 384.800781 L 276.136719 305.902344 L 229.597656 305.902344 L 224.363281 286.179688 L 286 286.179688 C 291.445312 286.179688 295.859375 290.597656 295.859375 296.042969 Z M 295.859375 384.800781 " style=" stroke:none;fill-rule:nonzero;fill:rgb(65.882353%,69.803922%,74.901961%);fill-opacity:1;" />
<path d="M 147.929688 276.316406 L 167.65625 276.316406 L 167.65625 384.800781 L 147.929688 384.800781 Z M 147.929688 276.316406 " style=" stroke:none;fill-rule:nonzero;fill:rgb(98.039216%,73.72549%,37.254902%);fill-opacity:1;" />
<path d="M 128.207031 266.457031 L 187.378906 266.457031 L 187.378906 286.179688 L 128.207031 286.179688 Z M 128.207031 266.457031 " style=" stroke:none;fill-rule:nonzero;fill:rgb(98.039216%,73.72549%,37.254902%);fill-opacity:1;" />
<path d="M 0 177.699219 L 19.726562 118.523438 L 69.035156 69.214844 L 128.207031 49.488281 L 98.621094 148.109375 Z M 0 177.699219 " style=" stroke:none;fill-rule:nonzero;fill:rgb(94.117647%,61.960784%,14.901961%);fill-opacity:1;" />
<path d="M 103.589844 131.542969 L 77.339844 66.441406 L 69.035156 69.214844 L 60.59375 77.65625 L 82.664062 132.390625 L 27.289062 110.960938 L 19.726562 118.523438 L 16.578125 127.960938 L 81.71875 153.179688 L 98.621094 148.109375 Z M 103.589844 131.542969 " style=" stroke:none;fill-rule:nonzero;fill:rgb(98.039216%,73.72549%,37.254902%);fill-opacity:1;" />
<path d="M 502.964844 49.488281 C 516.78125 44.882812 527.292969 33.535156 530.824219 19.402344 L 532.550781 12.507812 L 534.277344 19.410156 C 537.808594 33.542969 548.320312 44.882812 562.136719 49.488281 C 548.320312 54.09375 537.808594 65.445312 534.277344 79.578125 L 532.550781 86.480469 L 530.824219 79.578125 C 527.292969 65.445312 516.78125 54.09375 502.964844 49.488281 Z M 502.964844 49.488281 " style=" stroke:none;fill-rule:nonzero;fill:rgb(94.117647%,61.960784%,14.901961%);fill-opacity:1;" />
<path d="M 384.621094 98.800781 C 398.4375 94.195312 408.949219 82.84375 412.480469 68.710938 L 414.207031 61.816406 L 415.933594 68.71875 C 419.464844 82.851562 429.976562 94.191406 443.792969 98.800781 C 429.976562 103.40625 419.464844 114.753906 415.933594 128.886719 L 414.207031 135.789062 L 412.480469 128.886719 C 408.949219 114.757812 398.4375 103.40625 384.621094 98.800781 Z M 384.621094 98.800781 " style=" stroke:none;fill-rule:nonzero;fill:rgb(94.117647%,61.960784%,14.901961%);fill-opacity:1;" />
<path d="M 433.929688 0.179688 L 453.65625 0.179688 L 453.65625 19.90625 L 433.929688 19.90625 Z M 433.929688 0.179688 " style=" stroke:none;fill-rule:nonzero;fill:rgb(94.117647%,61.960784%,14.901961%);fill-opacity:1;" />
<path d="M 493.101562 128.386719 L 512.828125 128.386719 L 512.828125 148.109375 L 493.101562 148.109375 Z M 493.101562 128.386719 " style=" stroke:none;fill-rule:nonzero;fill:rgb(94.117647%,61.960784%,14.901961%);fill-opacity:1;" />
<path d="M 276.136719 365.074219 L 295.863281 365.074219 L 295.863281 384.800781 L 276.136719 384.800781 Z M 276.136719 365.074219 " style=" stroke:none;fill-rule:nonzero;fill:rgb(50.196078%,54.509804%,58.823529%);fill-opacity:1;" />
<path d="M 345.171875 365.074219 L 424.070312 365.074219 L 424.070312 384.800781 L 345.171875 384.800781 Z M 345.171875 365.074219 " style=" stroke:none;fill-rule:nonzero;fill:rgb(50.196078%,54.509804%,58.823529%);fill-opacity:1;" />
<path d="M 216.964844 424.25 C 216.964844 462.375 186.058594 493.285156 147.929688 493.285156 C 109.804688 493.285156 78.894531 462.375 78.894531 424.25 C 78.894531 386.121094 109.804688 355.214844 147.929688 355.214844 C 186.058594 355.214844 216.964844 386.121094 216.964844 424.25 Z M 216.964844 424.25 " style=" stroke:none;fill-rule:nonzero;fill:rgb(34.117647%,39.607843%,45.098039%);fill-opacity:1;" />
<path d="M 532.550781 424.25 C 532.550781 462.375 501.644531 493.285156 463.515625 493.285156 C 425.390625 493.285156 394.480469 462.375 394.480469 424.25 C 394.480469 386.121094 425.390625 355.214844 463.515625 355.214844 C 501.644531 355.214844 532.550781 386.121094 532.550781 424.25 Z M 532.550781 424.25 " style=" stroke:none;fill-rule:nonzero;fill:rgb(34.117647%,39.607843%,45.098039%);fill-opacity:1;" />
<path d="M 147.929688 384.800781 C 126.144531 384.800781 108.484375 402.464844 108.484375 424.25 C 108.484375 446.035156 126.144531 463.695312 147.929688 463.695312 C 169.714844 463.695312 187.378906 446.035156 187.378906 424.25 C 187.378906 402.464844 169.714844 384.800781 147.929688 384.800781 Z M 147.929688 404.523438 C 149.636719 404.542969 151.332031 404.800781 152.96875 405.261719 L 128.945312 429.289062 C 128.484375 427.652344 128.226562 425.953125 128.207031 424.25 C 128.207031 413.351562 137.03125 404.523438 147.929688 404.523438 Z M 147.929688 443.972656 C 146.226562 443.953125 144.527344 443.695312 142.890625 443.234375 L 166.917969 419.207031 C 167.378906 420.84375 167.636719 422.542969 167.65625 424.246094 C 167.65625 435.144531 158.828125 443.972656 147.929688 443.972656 Z M 147.929688 443.972656 " style=" stroke:none;fill-rule:nonzero;fill:rgb(81.568627%,84.313725%,87.45098%);fill-opacity:1;" />
<path d="M 463.515625 384.800781 C 441.730469 384.800781 424.070312 402.464844 424.070312 424.25 C 424.070312 446.035156 441.730469 463.695312 463.515625 463.695312 C 485.300781 463.695312 502.964844 446.035156 502.964844 424.25 C 502.964844 402.464844 485.300781 384.800781 463.515625 384.800781 Z M 463.515625 404.523438 C 465.222656 404.542969 466.917969 404.800781 468.554688 405.261719 L 444.53125 429.289062 C 444.066406 427.652344 443.8125 425.953125 443.792969 424.25 C 443.792969 413.351562 452.617188 404.523438 463.515625 404.523438 Z M 463.515625 443.972656 C 461.8125 443.953125 460.113281 443.695312 458.476562 443.234375 L 482.503906 419.207031 C 482.964844 420.84375 483.222656 422.542969 483.242188 424.246094 C 483.242188 435.144531 474.414062 443.972656 463.515625 443.972656 Z M 463.515625 443.972656 " style=" stroke:none;fill-rule:nonzero;fill:rgb(81.568627%,84.313725%,87.45098%);fill-opacity:1;" />
</g>
</svg>