<svg xmlns="http://www.w3.org/2000/svg" height="572pt" version="1.1" viewBox="0 0 572.41782 572" width="572pt">
<g id="surface1">
<path d="M 0 448.527344 L 92.753906 355.773438 L 216.425781 479.449219 L 123.671875 572.199219 Z M 0 448.527344 " style=" stroke:none;fill-rule:nonzero;fill:rgb(96.078431%,68.235294%,27.058824%);fill-opacity:1;" />
<path d="M 128.207031 391.226562 L 128.207031 567.679688 L 216.433594 479.453125 Z M 128.207031 391.226562 " style=" stroke:none;fill-rule:nonzero;fill:rgb(94.117647%,61.960784%,14.901961%);fill-opacity:1;" />
<path d="M 154.59375 263.023438 L 262.808594 154.808594 L 417.402344 309.402344 L 309.1875 417.617188 Z M 154.59375 263.023438 " style=" stroke:none;fill-rule:nonzero;fill:rgb(96.078431%,68.235294%,27.058824%);fill-opacity:1;" />
<path d="M 417.40625 309.390625 L 266.277344 158.265625 L 266.277344 374.699219 L 309.1875 417.609375 Z M 417.40625 309.390625 " style=" stroke:none;fill-rule:nonzero;fill:rgb(94.117647%,61.960784%,14.901961%);fill-opacity:1;" />
<path d="M 239.621094 239.824219 L 293.730469 185.714844 L 386.484375 278.46875 L 332.375 332.578125 Z M 239.621094 239.824219 " style=" stroke:none;fill-rule:nonzero;fill:rgb(89.019608%,53.333333%,0%);fill-opacity:1;" />
<path d="M 224.910156 333.339844 L 279.015625 279.234375 L 292.960938 293.179688 L 238.855469 347.285156 Z M 224.910156 333.339844 " style=" stroke:none;fill-rule:nonzero;fill:rgb(89.019608%,53.333333%,0%);fill-opacity:1;" />
<path d="M 309.199219 475.707031 C 297.886719 475.726562 287.027344 471.238281 279.03125 463.230469 L 108.976562 293.179688 C 92.339844 276.511719 92.339844 249.519531 108.976562 232.851562 L 232.648438 109.183594 C 249.316406 92.535156 276.308594 92.535156 292.972656 109.183594 L 463.027344 279.234375 C 479.664062 295.898438 479.664062 322.894531 463.027344 339.558594 L 339.355469 463.230469 C 331.367188 471.238281 320.511719 475.726562 309.199219 475.707031 Z M 262.847656 116.421875 C 256.761719 116.410156 250.933594 118.828125 246.632812 123.125 L 122.921875 246.757812 C 113.988281 255.722656 113.988281 270.230469 122.921875 279.195312 L 292.972656 449.285156 C 301.9375 458.222656 316.445312 458.222656 325.410156 449.285156 L 449.082031 325.65625 C 458.015625 316.691406 458.015625 302.183594 449.082031 293.21875 L 279.03125 123.125 C 274.730469 118.828125 268.890625 116.410156 262.804688 116.421875 C 262.808594 116.421875 262.847656 116.421875 262.847656 116.421875 Z M 262.847656 116.421875 " style=" stroke:none;fill-rule:nonzero;fill:rgb(71.764706%,74.117647%,76.862745%);fill-opacity:1;" />
<path d="M 355.558594 92.960938 L 448.308594 0.207031 L 571.984375 123.882812 L 479.230469 216.636719 Z M 355.558594 92.960938 " style=" stroke:none;fill-rule:nonzero;fill:rgb(96.078431%,68.235294%,27.058824%);fill-opacity:1;" />
<path d="M 483.246094 35.125 L 483.246094 212.644531 L 572.003906 123.886719 Z M 483.246094 35.125 " style=" stroke:none;fill-rule:nonzero;fill:rgb(94.117647%,61.960784%,14.901961%);fill-opacity:1;" />
<path d="M 333.128906 225.128906 L 503.179688 55.078125 L 517.128906 69.023438 L 347.074219 239.078125 Z M 333.128906 225.128906 " style=" stroke:none;fill-rule:nonzero;fill:rgb(54.901961%,38.823529%,28.235294%);fill-opacity:1;" />
<path d="M 410.425781 38.089844 L 424.375 24.140625 L 548.054688 147.824219 L 534.105469 161.769531 Z M 410.425781 38.089844 " style=" stroke:none;fill-rule:nonzero;fill:rgb(54.901961%,38.823529%,28.235294%);fill-opacity:1;" />
<path d="M 379.519531 69.019531 L 393.464844 55.074219 L 517.132812 178.742188 L 503.1875 192.6875 Z M 379.519531 69.019531 " style=" stroke:none;fill-rule:nonzero;fill:rgb(54.901961%,38.823529%,28.235294%);fill-opacity:1;" />
<path d="M 379.519531 116.914062 L 472.277344 24.152344 L 486.222656 38.097656 L 393.464844 130.859375 Z M 379.519531 116.914062 " style=" stroke:none;fill-rule:nonzero;fill:rgb(54.901961%,38.823529%,28.235294%);fill-opacity:1;" />
<path d="M 441.351562 178.75 L 534.113281 85.988281 L 548.058594 99.933594 L 455.296875 192.695312 Z M 441.351562 178.75 " style=" stroke:none;fill-rule:nonzero;fill:rgb(54.901961%,38.823529%,28.235294%);fill-opacity:1;" />
<path d="M 54.863281 503.390625 L 224.917969 333.335938 L 238.863281 347.28125 L 68.808594 517.335938 Z M 54.863281 503.390625 " style=" stroke:none;fill-rule:nonzero;fill:rgb(54.901961%,38.823529%,28.235294%);fill-opacity:1;" />
<path d="M 23.929688 424.582031 L 37.875 410.636719 L 161.558594 534.316406 L 147.609375 548.265625 Z M 23.929688 424.582031 " style=" stroke:none;fill-rule:nonzero;fill:rgb(54.901961%,38.823529%,28.235294%);fill-opacity:1;" />
<path d="M 54.863281 393.652344 L 68.8125 379.707031 L 192.476562 503.375 L 178.53125 517.320312 Z M 54.863281 393.652344 " style=" stroke:none;fill-rule:nonzero;fill:rgb(54.901961%,38.823529%,28.235294%);fill-opacity:1;" />
<path d="M 23.949219 472.472656 L 116.710938 379.710938 L 130.65625 393.65625 L 37.894531 486.417969 Z M 23.949219 472.472656 " style=" stroke:none;fill-rule:nonzero;fill:rgb(54.901961%,38.823529%,28.235294%);fill-opacity:1;" />
<path d="M 85.785156 534.304688 L 178.542969 441.546875 L 192.488281 455.492188 L 99.730469 548.253906 Z M 85.785156 534.304688 " style=" stroke:none;fill-rule:nonzero;fill:rgb(54.901961%,38.823529%,28.235294%);fill-opacity:1;" />
<path d="M 215.675781 154.042969 L 201.730469 140.097656 L 139.894531 201.933594 L 177.785156 239.824219 L 239.621094 177.988281 Z M 215.675781 154.042969 " style=" stroke:none;fill-rule:nonzero;fill:rgb(89.019608%,53.333333%,0%);fill-opacity:1;" />
<path d="M 418.164062 356.53125 L 394.21875 332.585938 L 332.382812 394.421875 L 370.273438 432.3125 L 432.109375 370.476562 Z M 418.164062 356.53125 " style=" stroke:none;fill-rule:nonzero;fill:rgb(89.019608%,53.333333%,0%);fill-opacity:1;" />
<path d="M 192.578125 208.90625 C 192.578125 217.078125 185.957031 223.699219 177.785156 223.699219 C 169.617188 223.699219 162.992188 217.078125 162.992188 208.90625 C 162.992188 200.738281 169.617188 194.113281 177.785156 194.113281 C 185.957031 194.113281 192.578125 200.738281 192.578125 208.90625 Z M 192.578125 208.90625 " style=" stroke:none;fill-rule:nonzero;fill:rgb(98.039216%,73.72549%,37.254902%);fill-opacity:1;" />
<path d="M 223.496094 177.988281 C 223.496094 186.160156 216.875 192.78125 208.703125 192.78125 C 200.535156 192.78125 193.910156 186.160156 193.910156 177.988281 C 193.910156 169.820312 200.535156 163.195312 208.703125 163.195312 C 216.875 163.195312 223.496094 169.820312 223.496094 177.988281 Z M 223.496094 177.988281 " style=" stroke:none;fill-rule:nonzero;fill:rgb(98.039216%,73.72549%,37.254902%);fill-opacity:1;" />
<path d="M 378.09375 394.421875 C 378.09375 402.59375 371.472656 409.214844 363.300781 409.214844 C 355.132812 409.214844 348.507812 402.59375 348.507812 394.421875 C 348.507812 386.253906 355.132812 379.628906 363.300781 379.628906 C 371.472656 379.628906 378.09375 386.253906 378.09375 394.421875 Z M 378.09375 394.421875 " style=" stroke:none;fill-rule:nonzero;fill:rgb(98.039216%,73.72549%,37.254902%);fill-opacity:1;" />
<path d="M 409.011719 363.503906 C 409.011719 371.675781 402.390625 378.296875 394.21875 378.296875 C 386.046875 378.296875 379.425781 371.675781 379.425781 363.503906 C 379.425781 355.335938 386.046875 348.710938 394.21875 348.710938 C 402.390625 348.710938 409.011719 355.335938 409.011719 363.503906 Z M 409.011719 363.503906 " style=" stroke:none;fill-rule:nonzero;fill:rgb(98.039216%,73.72549%,37.254902%);fill-opacity:1;" />
</g>
</svg>