<svg xmlns="http://www.w3.org/2000/svg" height="592.15599pt" version="1.1" viewBox="0 0 592.15599 592.15599" width="592.15599pt">
<g id="surface1">
<path d="M 333.375 280.6875 C 332.140625 275.300781 329.457031 270.355469 325.601562 266.398438 C 316.738281 258.132812 304.121094 255.269531 292.566406 258.910156 C 284.527344 261.109375 277.195312 265.402344 271.332031 271.332031 C 261.109375 281.050781 256.199219 295.101562 258.152344 309.070312 C 259.117188 315.308594 262 321.078125 266.398438 325.597656 C 275.261719 333.867188 287.878906 336.730469 299.433594 333.085938 C 307.472656 330.886719 314.804688 326.59375 320.667969 320.667969 C 331.53125 310.433594 336.34375 295.320312 333.375 280.6875 Z M 333.375 280.6875 " style=" stroke:none;fill-rule:nonzero;fill:rgb(16.470588%,56.470588%,87.058824%);fill-opacity:1;" />
<path d="M 445.875 74.542969 C 511.566406 141.910156 494.617188 268.5 408.035156 357.292969 C 359.933594 406.625 291.351562 416.273438 254.867188 378.851562 C 238.675781 362.246094 240.734375 332.761719 258.160156 309.074219 C 256.207031 295.101562 261.109375 281.050781 271.332031 271.332031 C 277.191406 265.402344 284.523438 261.109375 292.566406 258.910156 C 273.445312 247.613281 244.671875 253.769531 223.617188 275.367188 C 175.507812 324.703125 166.09375 395.023438 202.59375 432.445312 C 268.273438 499.804688 391.707031 482.480469 478.316406 393.679688 C 549.289062 320.855469 585.09375 229.046875 581.867188 148.226562 C 572.316406 115.441406 554.714844 85.574219 530.660156 61.339844 C 460.773438 -8.503906 348.609375 -17.367188 243.105469 28.1875 C 320.152344 8.773438 395.652344 23.058594 445.875 74.542969 Z M 445.875 74.542969 " style=" stroke:none;fill-rule:nonzero;fill:rgb(89.019608%,38.431373%,58.431373%);fill-opacity:1;" />
<path d="M 113.683594 198.320312 C 200.273438 109.519531 323.726562 92.15625 389.40625 159.515625 C 425.914062 196.9375 416.492188 267.269531 368.382812 316.589844 C 347.328125 338.191406 318.554688 344.347656 299.433594 333.046875 C 287.878906 336.699219 275.261719 333.847656 266.402344 325.601562 C 262 321.082031 259.121094 315.308594 258.152344 309.074219 C 240.726562 332.753906 238.664062 362.246094 254.855469 378.851562 C 291.363281 416.273438 359.929688 406.625 408.027344 357.292969 C 494.609375 268.492188 511.558594 141.910156 445.867188 74.542969 C 395.652344 23.058594 320.152344 8.773438 243.105469 28.1875 C 195.476562 49.039062 152.222656 78.695312 115.609375 115.609375 C 17.828125 213.386719 -19.96875 343.152344 10.132812 443.773438 C 6.90625 362.953125 42.710938 271.144531 113.683594 198.320312 Z M 113.683594 198.320312 " style=" stroke:none;fill-rule:nonzero;fill:rgb(16.470588%,56.470588%,87.058824%);fill-opacity:1;" />
<path d="M 146.125 517.457031 C 80.433594 450.089844 97.382812 323.5 183.964844 234.707031 C 232.066406 185.375 300.648438 175.726562 337.132812 213.148438 C 346.28125 223.253906 350.1875 237.035156 347.710938 250.4375 C 345.976562 261.703125 340.992188 272.210938 333.367188 280.6875 C 336.335938 295.308594 331.53125 310.4375 320.667969 320.667969 C 314.804688 326.597656 307.476562 330.890625 299.433594 333.089844 C 318.554688 344.386719 347.324219 338.230469 368.382812 316.632812 C 416.492188 267.296875 425.90625 196.976562 389.40625 159.554688 C 323.722656 92.195312 200.292969 109.570312 113.683594 198.320312 C 42.710938 271.144531 6.90625 362.953125 10.132812 443.773438 C 19.683594 476.558594 37.285156 506.425781 61.339844 530.660156 C 131.1875 600.503906 243.390625 609.367188 348.894531 563.8125 C 271.847656 583.226562 196.347656 568.941406 146.125 517.457031 Z M 146.125 517.457031 " style=" stroke:none;fill-rule:nonzero;fill:rgb(89.019608%,38.431373%,58.431373%);fill-opacity:1;" />
<path d="M 581.867188 148.226562 C 585.101562 229.046875 549.304688 320.894531 478.316406 393.640625 C 391.726562 482.441406 268.273438 499.804688 202.59375 432.445312 C 166.085938 395.023438 175.507812 324.691406 223.617188 275.371094 C 244.671875 253.773438 273.445312 247.613281 292.566406 258.914062 C 304.121094 255.269531 316.738281 258.132812 325.597656 266.402344 C 329.457031 270.359375 332.140625 275.300781 333.375 280.6875 C 341 272.210938 345.984375 261.707031 347.71875 250.4375 C 350.207031 237.027344 346.300781 223.226562 337.144531 213.121094 C 300.636719 175.695312 232.070312 185.347656 183.972656 234.679688 C 97.390625 323.480469 80.441406 450.058594 146.132812 517.429688 C 196.335938 568.914062 271.855469 583.199219 348.902344 563.800781 C 396.53125 542.953125 439.785156 513.292969 476.398438 476.382812 C 574.171875 378.613281 611.96875 248.847656 581.867188 148.226562 Z M 581.867188 148.226562 " style=" stroke:none;fill-rule:nonzero;fill:rgb(16.470588%,56.470588%,87.058824%);fill-opacity:1;" />
<path d="M 312.417969 411.519531 C 288.246094 412.210938 264.859375 402.894531 247.78125 385.785156 C 227.546875 365.066406 229.6875 328.019531 252.714844 299.691406 L 268.019531 312.140625 C 251.550781 332.367188 248.859375 358.664062 261.863281 372.011719 C 275.261719 385.285156 293.523438 392.445312 312.371094 391.835938 C 346.171875 390.179688 377.964844 375.320312 400.925781 350.453125 C 483.664062 265.601562 500.644531 144.941406 438.773438 81.488281 C 404.070312 46.9375 356.660156 28.199219 307.714844 29.699219 C 230.507812 29.699219 149.441406 67.417969 85.308594 133.179688 L 76.605469 142.058594 L 62.476562 128.246094 L 71.1875 119.367188 C 139.011719 49.855469 225.214844 9.964844 307.710938 9.964844 C 362 8.398438 414.527344 29.265625 452.9375 67.65625 C 522.230469 138.695312 505.230469 271.738281 415.089844 364.179688 C 388.539062 393.007812 351.578125 410.046875 312.417969 411.519531 Z M 312.417969 411.519531 " style=" stroke:none;fill-rule:nonzero;fill:rgb(16.470588%,40%,61.960784%);fill-opacity:1;" />
<path d="M 62.773438 589.039062 L 56.160156 582.261719 C -34.988281 488.796875 -12.351562 313.492188 106.628906 191.492188 C 157.9375 138.855469 223.253906 108.671875 285.796875 108.671875 C 327.179688 107.488281 367.207031 123.402344 396.472656 152.6875 C 436.621094 193.851562 427.1875 270.496094 375.445312 323.546875 C 349.910156 349.734375 313.199219 356.375 290.078125 339.019531 L 301.921875 323.230469 C 316.925781 334.46875 342.996094 328.578125 361.316406 309.765625 C 405.648438 264.316406 415.070312 200.027344 382.34375 166.46875 C 356.769531 141.042969 321.839844 127.269531 285.796875 128.40625 C 228.570312 128.40625 168.382812 156.417969 120.746094 205.273438 C 9.1875 319.679688 -13.449219 482.597656 70.289062 568.46875 L 76.902344 575.246094 Z M 62.773438 589.039062 " style=" stroke:none;fill-rule:nonzero;fill:rgb(16.470588%,40%,61.960784%);fill-opacity:1;" />
<path d="M 284.277344 582.035156 C 229.992188 583.613281 177.460938 562.746094 139.0625 524.34375 C 69.765625 453.304688 86.765625 320.261719 176.910156 227.820312 C 203.449219 198.980469 240.410156 181.929688 279.582031 180.460938 C 303.753906 179.789062 327.136719 189.113281 344.21875 206.242188 C 363.101562 225.609375 362.835938 258.625 343.585938 286.546875 L 327.34375 275.339844 C 340.949219 255.605469 342.144531 232.339844 330.085938 220.015625 C 316.6875 206.746094 298.425781 199.582031 279.578125 200.195312 C 245.777344 201.851562 213.984375 216.710938 191.027344 241.574219 C 108.285156 326.429688 91.304688 447.089844 153.179688 510.542969 C 187.898438 545.09375 235.320312 563.820312 284.277344 562.300781 C 361.492188 562.300781 442.558594 524.582031 506.691406 458.820312 L 515.394531 449.890625 L 529.523438 463.703125 L 520.8125 472.632812 C 452.988281 542.144531 366.78125 582.035156 284.277344 582.035156 Z M 284.277344 582.035156 " style=" stroke:none;fill-rule:nonzero;fill:rgb(16.470588%,40%,61.960784%);fill-opacity:1;" />
<path d="M 306.203125 483.347656 C 264.820312 484.53125 224.792969 468.617188 195.527344 439.332031 C 155.378906 398.167969 164.8125 321.523438 216.554688 268.472656 C 242.089844 242.285156 278.800781 235.636719 301.921875 253 L 290.078125 268.789062 C 275.09375 257.558594 249.003906 263.449219 230.683594 282.253906 C 186.351562 327.703125 176.929688 391.992188 209.65625 425.546875 C 235.230469 450.976562 270.160156 464.75 306.203125 463.613281 C 363.429688 463.613281 423.617188 435.601562 471.253906 386.742188 C 582.8125 272.289062 605.4375 109.402344 521.710938 23.53125 L 515.097656 16.753906 L 529.226562 2.941406 L 535.839844 9.71875 C 626.988281 103.183594 604.351562 278.484375 485.371094 400.488281 C 434.042969 453.167969 368.746094 483.347656 306.203125 483.347656 Z M 306.203125 483.347656 " style=" stroke:none;fill-rule:nonzero;fill:rgb(16.470588%,40%,61.960784%);fill-opacity:1;" />
<path d="M 19.734375 0 L 39.46875 0 L 39.46875 59.199219 L 19.734375 59.199219 Z M 19.734375 0 " style=" stroke:none;fill-rule:nonzero;fill:rgb(98.039216%,73.72549%,37.254902%);fill-opacity:1;" />
<path d="M 0 19.734375 L 59.199219 19.734375 L 59.199219 39.46875 L 0 39.46875 Z M 0 19.734375 " style=" stroke:none;fill-rule:nonzero;fill:rgb(98.039216%,73.72549%,37.254902%);fill-opacity:1;" />
<path d="M 19.734375 167.734375 L 39.46875 167.734375 L 39.46875 187.46875 L 19.734375 187.46875 Z M 19.734375 167.734375 " style=" stroke:none;fill-rule:nonzero;fill:rgb(98.039216%,73.72549%,37.254902%);fill-opacity:1;" />
<path d="M 522.933594 532.800781 L 542.667969 532.800781 L 542.667969 592 L 522.933594 592 Z M 522.933594 532.800781 " style=" stroke:none;fill-rule:nonzero;fill:rgb(98.039216%,73.72549%,37.254902%);fill-opacity:1;" />
<path d="M 503.199219 552.535156 L 562.398438 552.535156 L 562.398438 572.265625 L 503.199219 572.265625 Z M 503.199219 552.535156 " style=" stroke:none;fill-rule:nonzero;fill:rgb(98.039216%,73.72549%,37.254902%);fill-opacity:1;" />
<path d="M 453.867188 19.734375 L 473.601562 19.734375 L 473.601562 39.46875 L 453.867188 39.46875 Z M 453.867188 19.734375 " style=" stroke:none;fill-rule:nonzero;fill:rgb(98.039216%,73.72549%,37.254902%);fill-opacity:1;" />
<path d="M 572.265625 404.53125 L 592 404.53125 L 592 424.265625 L 572.265625 424.265625 Z M 572.265625 404.53125 " style=" stroke:none;fill-rule:nonzero;fill:rgb(98.039216%,73.72549%,37.254902%);fill-opacity:1;" />
<path d="M 128.265625 572.265625 L 148 572.265625 L 148 592 L 128.265625 592 Z M 128.265625 572.265625 " style=" stroke:none;fill-rule:nonzero;fill:rgb(98.039216%,73.72549%,37.254902%);fill-opacity:1;" />
<path d="M 0 236.800781 L 19.734375 236.800781 L 19.734375 256.535156 L 0 256.535156 Z M 0 236.800781 " style=" stroke:none;fill-rule:nonzero;fill:rgb(98.039216%,73.72549%,37.254902%);fill-opacity:1;" />
<path d="M 148 0 L 167.734375 0 L 167.734375 19.734375 L 148 19.734375 Z M 148 0 " style=" stroke:none;fill-rule:nonzero;fill:rgb(98.039216%,73.72549%,37.254902%);fill-opacity:1;" />
</g>
</svg>