<svg xmlns="http://www.w3.org/2000/svg" height="592.155pt" version="1.1" viewBox="0 0 592.155 592.155" width="592.155pt">
<g id="surface1">
<path d="M 113.464844 374.933594 C 94.394531 374.933594 78.933594 359.472656 78.933594 340.398438 C 78.933594 321.328125 94.394531 305.867188 113.464844 305.867188 C 132.539062 305.867188 148 321.328125 148 340.398438 C 148 359.472656 132.539062 374.933594 113.464844 374.933594 Z M 113.464844 374.933594 " style=" stroke:none;fill-rule:nonzero;fill:rgb(50.196078%,54.509804%,58.823529%);fill-opacity:1;" />
<path d="M 9.867188 157.867188 L 88.800781 157.867188 L 88.800781 197.332031 L 9.867188 197.332031 Z M 9.867188 157.867188 " style=" stroke:none;fill-rule:nonzero;fill:rgb(50.196078%,54.509804%,58.823529%);fill-opacity:1;" />
<path d="M 127.28125 320.144531 L 109.617188 311.324219 L 167.734375 195.003906 L 167.734375 41.007812 L 59.199219 132.84375 L 59.199219 157.867188 L 39.464844 157.867188 L 39.464844 128.265625 C 39.464844 125.363281 40.75 122.613281 42.960938 120.738281 L 171.226562 12.203125 C 175.390625 8.683594 181.617188 9.207031 185.128906 13.359375 C 186.636719 15.144531 187.46875 17.40625 187.46875 19.734375 L 187.46875 197.332031 C 187.46875 198.863281 187.113281 200.371094 186.429688 201.746094 Z M 127.28125 320.144531 " style=" stroke:none;fill-rule:nonzero;fill:rgb(50.196078%,54.509804%,58.823529%);fill-opacity:1;" />
<path d="M 177.597656 39.464844 C 166.695312 39.464844 157.867188 30.636719 157.867188 19.734375 C 157.867188 8.828125 166.699219 0 177.597656 0 C 188.5 0 197.332031 8.832031 197.332031 19.734375 C 197.332031 30.636719 188.503906 39.464844 177.597656 39.464844 Z M 177.597656 39.464844 " style=" stroke:none;fill-rule:nonzero;fill:rgb(50.196078%,54.509804%,58.823529%);fill-opacity:1;" />
<path d="M 177.597656 217.066406 C 166.695312 217.066406 157.867188 208.238281 157.867188 197.332031 C 157.867188 186.429688 166.699219 177.601562 177.597656 177.601562 C 188.5 177.601562 197.332031 186.429688 197.332031 197.332031 C 197.332031 208.234375 188.503906 217.066406 177.597656 217.066406 Z M 177.597656 217.066406 " style=" stroke:none;fill-rule:nonzero;fill:rgb(50.196078%,54.509804%,58.823529%);fill-opacity:1;" />
<path d="M 69.066406 592 C 30.921875 592 0 561.078125 0 522.933594 C 0 484.789062 30.921875 453.867188 69.066406 453.867188 C 107.210938 453.867188 138.132812 484.789062 138.132812 522.933594 C 138.09375 561.058594 107.191406 591.960938 69.066406 592 Z M 69.066406 473.601562 C 41.824219 473.601562 19.734375 495.691406 19.734375 522.933594 C 19.734375 550.175781 41.824219 572.265625 69.066406 572.265625 C 96.308594 572.265625 118.398438 550.175781 118.398438 522.933594 C 118.371094 495.703125 96.296875 473.628906 69.066406 473.601562 Z M 69.066406 473.601562 " style=" stroke:none;fill-rule:nonzero;fill:rgb(50.196078%,54.509804%,58.823529%);fill-opacity:1;" />
<path d="M 59.199219 463.734375 L 78.933594 463.734375 L 78.933594 582.132812 L 59.199219 582.132812 Z M 59.199219 463.734375 " style=" stroke:none;fill-rule:nonzero;fill:rgb(50.196078%,54.509804%,58.823529%);fill-opacity:1;" />
<path d="M 12.851562 544 L 115.402344 484.808594 L 125.265625 501.902344 L 22.71875 561.089844 Z M 12.851562 544 " style=" stroke:none;fill-rule:nonzero;fill:rgb(50.196078%,54.509804%,58.823529%);fill-opacity:1;" />
<path d="M 12.839844 501.878906 L 22.707031 484.792969 L 125.238281 543.992188 L 115.371094 561.078125 Z M 12.839844 501.878906 " style=" stroke:none;fill-rule:nonzero;fill:rgb(50.196078%,54.509804%,58.823529%);fill-opacity:1;" />
<path d="M 296 592 C 257.855469 592 226.933594 561.078125 226.933594 522.933594 C 226.933594 484.789062 257.855469 453.867188 296 453.867188 C 334.144531 453.867188 365.066406 484.789062 365.066406 522.933594 C 365.027344 561.058594 334.125 591.960938 296 592 Z M 296 473.601562 C 268.757812 473.601562 246.667969 495.691406 246.667969 522.933594 C 246.667969 550.175781 268.757812 572.265625 296 572.265625 C 323.242188 572.265625 345.332031 550.175781 345.332031 522.933594 C 345.304688 495.703125 323.230469 473.628906 296 473.601562 Z M 296 473.601562 " style=" stroke:none;fill-rule:nonzero;fill:rgb(50.196078%,54.509804%,58.823529%);fill-opacity:1;" />
<path d="M 286.132812 463.734375 L 305.867188 463.734375 L 305.867188 582.132812 L 286.132812 582.132812 Z M 286.132812 463.734375 " style=" stroke:none;fill-rule:nonzero;fill:rgb(50.196078%,54.509804%,58.823529%);fill-opacity:1;" />
<path d="M 239.796875 544 L 342.34375 484.8125 L 352.210938 501.902344 L 249.660156 561.09375 Z M 239.796875 544 " style=" stroke:none;fill-rule:nonzero;fill:rgb(50.196078%,54.509804%,58.823529%);fill-opacity:1;" />
<path d="M 239.777344 501.898438 L 249.640625 484.8125 L 352.175781 544.007812 L 342.308594 561.097656 Z M 239.777344 501.898438 " style=" stroke:none;fill-rule:nonzero;fill:rgb(50.196078%,54.509804%,58.823529%);fill-opacity:1;" />
<path d="M 522.933594 592 C 484.789062 592 453.867188 561.078125 453.867188 522.933594 C 453.867188 484.789062 484.789062 453.867188 522.933594 453.867188 C 561.078125 453.867188 592 484.789062 592 522.933594 C 591.960938 561.058594 561.058594 591.960938 522.933594 592 Z M 522.933594 473.601562 C 495.691406 473.601562 473.601562 495.691406 473.601562 522.933594 C 473.601562 550.175781 495.691406 572.265625 522.933594 572.265625 C 550.175781 572.265625 572.265625 550.175781 572.265625 522.933594 C 572.238281 495.703125 550.164062 473.628906 522.933594 473.601562 Z M 522.933594 473.601562 " style=" stroke:none;fill-rule:nonzero;fill:rgb(50.196078%,54.509804%,58.823529%);fill-opacity:1;" />
<path d="M 513.066406 463.734375 L 532.800781 463.734375 L 532.800781 582.132812 L 513.066406 582.132812 Z M 513.066406 463.734375 " style=" stroke:none;fill-rule:nonzero;fill:rgb(50.196078%,54.509804%,58.823529%);fill-opacity:1;" />
<path d="M 466.742188 544.011719 L 569.289062 484.824219 L 579.152344 501.914062 L 476.605469 561.105469 Z M 466.742188 544.011719 " style=" stroke:none;fill-rule:nonzero;fill:rgb(50.196078%,54.509804%,58.823529%);fill-opacity:1;" />
<path d="M 466.707031 501.898438 L 476.574219 484.8125 L 579.105469 544.011719 L 569.238281 561.097656 Z M 466.707031 501.898438 " style=" stroke:none;fill-rule:nonzero;fill:rgb(50.196078%,54.509804%,58.823529%);fill-opacity:1;" />
<path d="M 138.132812 325.601562 L 453.867188 325.601562 L 453.867188 434.132812 L 138.132812 434.132812 Z M 138.132812 325.601562 " style=" stroke:none;fill-rule:nonzero;fill:rgb(81.568627%,84.313725%,87.45098%);fill-opacity:1;" />
<path d="M 305.867188 463.734375 L 286.132812 463.734375 L 286.132812 430.621094 L 187.289062 385.6875 L 78.933594 430.847656 L 78.933594 463.734375 L 59.199219 463.734375 L 59.199219 424.265625 C 59.199219 420.28125 61.597656 416.6875 65.269531 415.160156 L 183.667969 365.828125 C 186.203125 364.75 189.066406 364.800781 191.5625 365.957031 L 300.09375 415.289062 C 303.605469 416.898438 305.867188 420.398438 305.867188 424.265625 Z M 305.867188 463.734375 " style=" stroke:none;fill-rule:nonzero;fill:rgb(50.196078%,54.509804%,58.823529%);fill-opacity:1;" />
<path d="M 532.800781 463.734375 L 513.066406 463.734375 L 513.066406 434.132812 L 453.867188 434.132812 L 453.867188 414.398438 L 522.933594 414.398438 C 528.378906 414.398438 532.800781 418.820312 532.800781 424.265625 Z M 532.800781 463.734375 " style=" stroke:none;fill-rule:nonzero;fill:rgb(50.196078%,54.509804%,58.823529%);fill-opacity:1;" />
<path d="M 453.867188 325.601562 L 345.332031 325.601562 L 345.332031 296 L 394.667969 266.398438 L 453.867188 266.398438 Z M 453.867188 325.601562 " style=" stroke:none;fill-rule:nonzero;fill:rgb(76.470588%,78.823529%,81.960784%);fill-opacity:1;" />
<path d="M 453.867188 424.265625 L 562.398438 335.46875 L 503.199219 226.933594 L 453.867188 266.398438 Z M 453.867188 424.265625 " style=" stroke:none;fill-rule:nonzero;fill:rgb(76.470588%,78.823529%,81.960784%);fill-opacity:1;" />
<path d="M 217.066406 128.265625 L 355.199219 128.265625 L 355.199219 187.464844 L 217.066406 187.464844 Z M 217.066406 128.265625 " style=" stroke:none;fill-rule:nonzero;fill:rgb(81.568627%,84.313725%,87.45098%);fill-opacity:1;" />
<path d="M 355.199219 157.867188 C 355.199219 174.214844 341.949219 187.46875 325.601562 187.46875 C 309.253906 187.46875 296 174.214844 296 157.867188 C 296 141.519531 309.253906 128.265625 325.601562 128.265625 C 341.949219 128.265625 355.199219 141.519531 355.199219 157.867188 Z M 355.199219 157.867188 " style=" stroke:none;fill-rule:nonzero;fill:rgb(16.470588%,56.470588%,87.058824%);fill-opacity:1;" />
<path d="M 335.464844 157.867188 C 335.464844 163.316406 331.046875 167.734375 325.601562 167.734375 C 320.152344 167.734375 315.734375 163.316406 315.734375 157.867188 C 315.734375 152.417969 320.152344 148 325.601562 148 C 331.046875 148 335.464844 152.417969 335.464844 157.867188 Z M 335.464844 157.867188 " style=" stroke:none;fill-rule:nonzero;fill:rgb(13.72549%,47.45098%,72.941176%);fill-opacity:1;" />
<path d="M 266.398438 187.46875 L 305.867188 187.46875 L 305.867188 325.601562 L 266.398438 325.601562 Z M 266.398438 187.46875 " style=" stroke:none;fill-rule:nonzero;fill:rgb(76.470588%,78.823529%,81.960784%);fill-opacity:1;" />
<path d="M 305.867188 276.265625 L 345.332031 276.265625 L 345.332031 325.601562 L 305.867188 325.601562 Z M 305.867188 276.265625 " style=" stroke:none;fill-rule:nonzero;fill:rgb(76.470588%,78.823529%,81.960784%);fill-opacity:1;" />
<path d="M 384.800781 365.066406 L 404.535156 365.066406 L 404.535156 384.800781 L 384.800781 384.800781 Z M 384.800781 365.066406 " style=" stroke:none;fill-rule:nonzero;fill:rgb(50.196078%,54.509804%,58.823529%);fill-opacity:1;" />
<path d="M 345.332031 365.066406 L 365.066406 365.066406 L 365.066406 384.800781 L 345.332031 384.800781 Z M 345.332031 365.066406 " style=" stroke:none;fill-rule:nonzero;fill:rgb(50.196078%,54.509804%,58.823529%);fill-opacity:1;" />
<path d="M 305.867188 365.066406 L 325.601562 365.066406 L 325.601562 384.800781 L 305.867188 384.800781 Z M 305.867188 365.066406 " style=" stroke:none;fill-rule:nonzero;fill:rgb(50.196078%,54.509804%,58.823529%);fill-opacity:1;" />
<path d="M 187.46875 394.667969 C 176.5625 394.667969 167.734375 385.835938 167.734375 374.933594 C 167.734375 364.03125 176.566406 355.199219 187.46875 355.199219 C 198.367188 355.199219 207.199219 364.03125 207.199219 374.933594 C 207.199219 385.835938 198.367188 394.667969 187.46875 394.667969 Z M 187.46875 394.667969 " style=" stroke:none;fill-rule:nonzero;fill:rgb(50.196078%,54.509804%,58.823529%);fill-opacity:1;" />
<path d="M 535.722656 286.558594 L 453.867188 352.792969 L 453.867188 378.179688 L 545.332031 304.167969 Z M 535.722656 286.558594 " style=" stroke:none;fill-rule:nonzero;fill:rgb(50.196078%,54.509804%,58.823529%);fill-opacity:1;" />
</g>
</svg>