<svg xmlns="http://www.w3.org/2000/svg" height="582pt" version="1.1" viewBox="0 -5 582.286 582" width="582pt">
<g id="surface1">
<path d="M 286.066406 0.140625 C 422.265625 0.140625 532.675781 110.554688 532.675781 246.75 L 532.675781 276.34375 L 39.457031 276.34375 L 39.457031 246.75 C 39.457031 110.550781 149.871094 0.140625 286.066406 0.140625 Z M 286.066406 0.140625 " style=" stroke:none;fill-rule:nonzero;fill:rgb(76.470588%,78.823529%,81.960784%);fill-opacity:1;" />
<path d="M 452.125 64.4375 C 352.632812 183.933594 172.714844 229.46875 39.457031 246.613281 L 39.457031 276.34375 L 532.679688 276.34375 L 532.679688 246.75 C 532.757812 177.335938 503.5 111.113281 452.125 64.4375 Z M 452.125 64.4375 " style=" stroke:none;fill-rule:nonzero;fill:rgb(71.764706%,74.117647%,76.862745%);fill-opacity:1;" />
<path d="M 493.21875 39.597656 C 507.039062 34.992188 517.554688 23.636719 521.085938 9.503906 L 522.8125 2.605469 L 524.539062 9.511719 C 528.070312 23.648438 538.585938 34.992188 552.40625 39.597656 C 538.585938 44.203125 528.070312 55.558594 524.539062 69.695312 L 522.8125 76.597656 L 521.085938 69.695312 C 517.554688 55.558594 507.039062 44.203125 493.21875 39.597656 Z M 493.21875 39.597656 " style=" stroke:none;fill-rule:nonzero;fill:rgb(98.039216%,73.72549%,37.254902%);fill-opacity:1;" />
<path d="M 9.863281 39.597656 C 23.683594 34.992188 34.199219 23.636719 37.730469 9.503906 L 39.457031 2.605469 L 41.183594 9.511719 C 44.714844 23.648438 55.230469 34.992188 69.050781 39.597656 C 55.230469 44.203125 44.714844 55.558594 41.183594 69.695312 L 39.457031 76.589844 L 37.730469 69.683594 C 34.199219 55.546875 23.683594 44.203125 9.863281 39.597656 Z M 9.863281 39.597656 " style=" stroke:none;fill-rule:nonzero;fill:rgb(98.039216%,73.72549%,37.254902%);fill-opacity:1;" />
<path d="M 9.863281 128.378906 L 29.59375 128.378906 L 29.59375 148.105469 L 9.863281 148.105469 Z M 9.863281 128.378906 " style=" stroke:none;fill-rule:nonzero;fill:rgb(98.039216%,73.72549%,37.254902%);fill-opacity:1;" />
<path d="M 434.035156 0.140625 L 453.761719 0.140625 L 453.761719 19.871094 L 434.035156 19.871094 Z M 434.035156 0.140625 " style=" stroke:none;fill-rule:nonzero;fill:rgb(98.039216%,73.72549%,37.254902%);fill-opacity:1;" />
<path d="M 562.269531 118.511719 L 582 118.511719 L 582 138.242188 L 562.269531 138.242188 Z M 562.269531 118.511719 " style=" stroke:none;fill-rule:nonzero;fill:rgb(98.039216%,73.72549%,37.254902%);fill-opacity:1;" />
<path d="M 39.457031 315.800781 L 532.675781 315.800781 L 532.675781 493.359375 L 39.457031 493.359375 Z M 39.457031 315.800781 " style=" stroke:none;fill-rule:nonzero;fill:rgb(76.470588%,78.823529%,81.960784%);fill-opacity:1;" />
<path d="M 39.457031 315.800781 L 532.675781 315.800781 L 532.675781 345.394531 L 39.457031 345.394531 Z M 39.457031 315.800781 " style=" stroke:none;fill-rule:nonzero;fill:rgb(71.764706%,74.117647%,76.862745%);fill-opacity:1;" />
<path d="M 0 276.34375 L 572.136719 276.34375 L 572.136719 315.800781 L 0 315.800781 Z M 0 276.34375 " style=" stroke:none;fill-rule:nonzero;fill:rgb(76.470588%,78.823529%,81.960784%);fill-opacity:1;" />
<path d="M 0 493.359375 L 572.136719 493.359375 L 572.136719 572.277344 L 0 572.277344 Z M 0 493.359375 " style=" stroke:none;fill-rule:nonzero;fill:rgb(76.470588%,78.823529%,81.960784%);fill-opacity:1;" />
<path d="M 167.695312 522.953125 L 187.425781 522.953125 L 187.425781 542.683594 L 167.695312 542.683594 Z M 167.695312 522.953125 " style=" stroke:none;fill-rule:nonzero;fill:rgb(50.196078%,54.509804%,58.823529%);fill-opacity:1;" />
<path d="M 384.710938 522.953125 L 404.441406 522.953125 L 404.441406 542.683594 L 384.710938 542.683594 Z M 384.710938 522.953125 " style=" stroke:none;fill-rule:nonzero;fill:rgb(50.196078%,54.509804%,58.823529%);fill-opacity:1;" />
<path d="M 177.558594 0.140625 L 236.746094 0.140625 L 236.746094 276.34375 L 177.558594 276.34375 Z M 177.558594 0.140625 " style=" stroke:none;fill-rule:nonzero;fill:rgb(81.568627%,84.313725%,87.45098%);fill-opacity:1;" />
<path d="M 108.507812 236.886719 L 177.558594 236.886719 L 177.558594 276.34375 L 108.507812 276.34375 Z M 108.507812 236.886719 " style=" stroke:none;fill-rule:nonzero;fill:rgb(81.568627%,84.313725%,87.45098%);fill-opacity:1;" />
<path d="M 335.390625 0.140625 L 394.574219 0.140625 L 394.574219 276.34375 L 335.390625 276.34375 Z M 335.390625 0.140625 " style=" stroke:none;fill-rule:nonzero;fill:rgb(81.568627%,84.313725%,87.45098%);fill-opacity:1;" />
<path d="M 394.574219 236.886719 L 463.628906 236.886719 L 463.628906 276.34375 L 394.574219 276.34375 Z M 394.574219 236.886719 " style=" stroke:none;fill-rule:nonzero;fill:rgb(81.568627%,84.313725%,87.45098%);fill-opacity:1;" />
<path d="M 236.746094 39.597656 L 335.390625 39.597656 L 335.390625 217.15625 L 236.746094 217.15625 Z M 236.746094 39.597656 " style=" stroke:none;fill-rule:nonzero;fill:rgb(14.901961%,51.372549%,78.823529%);fill-opacity:1;" />
<path d="M 335.390625 128.378906 C 335.390625 155.617188 313.308594 177.699219 286.066406 177.699219 C 258.828125 177.699219 236.746094 155.617188 236.746094 128.378906 C 236.746094 101.136719 258.828125 79.054688 286.066406 79.054688 C 313.308594 79.054688 335.390625 101.136719 335.390625 128.378906 Z M 335.390625 128.378906 " style=" stroke:none;fill-rule:nonzero;fill:rgb(81.568627%,84.313725%,87.45098%);fill-opacity:1;" />
<path d="M 305.796875 128.378906 C 305.796875 139.273438 296.964844 148.105469 286.066406 148.105469 C 275.171875 148.105469 266.339844 139.273438 266.339844 128.378906 C 266.339844 117.480469 275.171875 108.648438 286.066406 108.648438 C 296.964844 108.648438 305.796875 117.480469 305.796875 128.378906 Z M 305.796875 128.378906 " style=" stroke:none;fill-rule:nonzero;fill:rgb(65.882353%,69.803922%,74.901961%);fill-opacity:1;" />
<path d="M 39.457031 345.394531 L 532.675781 345.394531 L 532.675781 365.125 L 39.457031 365.125 Z M 39.457031 345.394531 " style=" stroke:none;fill-rule:nonzero;fill:rgb(50.196078%,54.509804%,58.823529%);fill-opacity:1;" />
<path d="M 39.457031 453.902344 L 532.675781 453.902344 L 532.675781 493.359375 L 39.457031 493.359375 Z M 39.457031 453.902344 " style=" stroke:none;fill-rule:nonzero;fill:rgb(71.764706%,74.117647%,76.862745%);fill-opacity:1;" />
<path d="M 217.015625 414.445312 L 355.117188 414.445312 L 355.117188 572.277344 L 217.015625 572.277344 Z M 217.015625 414.445312 " style=" stroke:none;fill-rule:nonzero;fill:rgb(81.568627%,84.313725%,87.45098%);fill-opacity:1;" />
<path d="M 256.472656 453.902344 L 315.660156 453.902344 L 315.660156 572.277344 L 256.472656 572.277344 Z M 256.472656 453.902344 " style=" stroke:none;fill-rule:nonzero;fill:rgb(54.901961%,38.823529%,28.235294%);fill-opacity:1;" />
<path d="M 256.472656 453.902344 L 315.660156 453.902344 L 315.660156 483.496094 L 256.472656 483.496094 Z M 256.472656 453.902344 " style=" stroke:none;fill-rule:nonzero;fill:rgb(38.823529%,25.490196%,16.078431%);fill-opacity:1;" />
</g>
</svg>