<svg xmlns="http://www.w3.org/2000/svg" height="592pt" version="1.1" viewBox="0 0 592 592.155" width="592pt">
<g id="surface1">
<path d="M 296.078125 434.132812 C 219.789062 434.132812 157.945312 372.289062 157.945312 296 C 157.945312 219.710938 219.789062 157.867188 296.078125 157.867188 C 372.367188 157.867188 434.210938 219.710938 434.210938 296 C 434.132812 372.257812 372.335938 434.054688 296.078125 434.132812 Z M 296.078125 177.597656 C 230.691406 177.597656 177.675781 230.613281 177.675781 296 C 177.675781 361.386719 230.691406 414.398438 296.078125 414.398438 C 361.464844 414.398438 414.476562 361.386719 414.476562 296 C 414.40625 230.644531 361.433594 177.667969 296.078125 177.597656 Z M 296.078125 177.597656 " style=" stroke:none;fill-rule:nonzero;fill:rgb(81.568627%,84.313725%,87.45098%);fill-opacity:1;" />
<path d="M 296.078125 513.066406 C 176.199219 513.066406 79.011719 415.878906 79.011719 296 C 79.011719 176.117188 176.199219 78.933594 296.078125 78.933594 C 415.957031 78.933594 513.144531 176.121094 513.144531 296 C 513.007812 415.832031 415.910156 512.929688 296.078125 513.066406 Z M 296.078125 98.667969 C 187.089844 98.667969 98.742188 187.011719 98.742188 296 C 98.742188 404.988281 187.089844 493.332031 296.078125 493.332031 C 405.066406 493.332031 493.410156 404.988281 493.410156 296 C 493.28125 187.070312 405.003906 98.796875 296.078125 98.667969 Z M 296.078125 98.667969 " style=" stroke:none;fill-rule:nonzero;fill:rgb(81.568627%,84.313725%,87.45098%);fill-opacity:1;" />
<path d="M 296.078125 592 C 132.597656 592 0.078125 459.480469 0.078125 296 C 0.078125 132.519531 132.597656 0 296.078125 0 C 459.558594 0 592.078125 132.519531 592.078125 296 C 591.890625 459.402344 459.480469 591.8125 296.078125 592 Z M 296.078125 19.734375 C 143.5 19.734375 19.808594 143.421875 19.808594 296 C 19.808594 448.578125 143.5 572.265625 296.078125 572.265625 C 448.65625 572.265625 572.34375 448.578125 572.34375 296 C 572.167969 143.492188 448.585938 19.910156 296.078125 19.734375 Z M 296.078125 19.734375 " style=" stroke:none;fill-rule:nonzero;fill:rgb(81.568627%,84.313725%,87.45098%);fill-opacity:1;" />
<path d="M 355.277344 296 C 355.277344 328.695312 328.773438 355.199219 296.078125 355.199219 C 263.382812 355.199219 236.878906 328.695312 236.878906 296 C 236.878906 263.304688 263.382812 236.800781 296.078125 236.800781 C 328.773438 236.800781 355.277344 263.304688 355.277344 296 Z M 355.277344 296 " style=" stroke:none;fill-rule:nonzero;fill:rgb(16.470588%,56.470588%,87.058824%);fill-opacity:1;" />
<path d="M 138.210938 78.933594 C 138.210938 95.28125 124.957031 108.535156 108.609375 108.535156 C 92.261719 108.535156 79.011719 95.28125 79.011719 78.933594 C 79.011719 62.585938 92.261719 49.332031 108.609375 49.332031 C 124.957031 49.332031 138.210938 62.585938 138.210938 78.933594 Z M 138.210938 78.933594 " style=" stroke:none;fill-rule:nonzero;fill:rgb(41.176471%,80%,84.313725%);fill-opacity:1;" />
<path d="M 157.945312 414.398438 C 157.945312 430.746094 144.691406 444 128.34375 444 C 111.996094 444 98.742188 430.746094 98.742188 414.398438 C 98.742188 398.050781 111.996094 384.800781 128.34375 384.800781 C 144.691406 384.800781 157.945312 398.050781 157.945312 414.398438 Z M 157.945312 414.398438 " style=" stroke:none;fill-rule:nonzero;fill:rgb(41.176471%,80%,84.313725%);fill-opacity:1;" />
<path d="M 444.078125 345.332031 C 444.078125 361.679688 430.824219 374.933594 414.476562 374.933594 C 398.128906 374.933594 384.875 361.679688 384.875 345.332031 C 384.875 328.984375 398.128906 315.734375 414.476562 315.734375 C 430.824219 315.734375 444.078125 328.984375 444.078125 345.332031 Z M 444.078125 345.332031 " style=" stroke:none;fill-rule:nonzero;fill:rgb(41.176471%,80%,84.313725%);fill-opacity:1;" />
</g>
</svg>