<svg xmlns="http://www.w3.org/2000/svg" height="572pt" version="1.1" viewBox="-79 0 572 572.417" width="572pt">
<g id="surface1">
<path d="M 312.039062 530.085938 L 305.875 572 L 365.046875 572 L 358.46875 530.085938 Z M 312.039062 530.085938 " style=" stroke:none;fill-rule:nonzero;fill:rgb(50.196078%,54.509804%,58.823529%);fill-opacity:1;" />
<path d="M 335.460938 118.34375 C 310.203125 143.601562 296.011719 177.863281 296.011719 213.582031 L 296.011719 532.550781 L 374.910156 532.550781 L 374.910156 213.582031 C 374.910156 177.863281 360.71875 143.601562 335.460938 118.34375 Z M 335.460938 118.34375 " style=" stroke:none;fill-rule:nonzero;fill:rgb(96.078431%,68.235294%,27.058824%);fill-opacity:1;" />
<path d="M 335.550781 118.445312 C 348.359375 140.40625 355.136719 165.378906 355.183594 190.800781 L 355.183594 532.550781 L 374.910156 532.550781 L 374.910156 213.582031 C 374.910156 177.910156 360.757812 143.691406 335.550781 118.445312 Z M 335.550781 118.445312 " style=" stroke:none;fill-rule:nonzero;fill:rgb(94.117647%,61.960784%,14.901961%);fill-opacity:1;" />
<path d="M 296.011719 276.136719 L 374.910156 276.136719 L 374.910156 295.863281 L 296.011719 295.863281 Z M 296.011719 276.136719 " style=" stroke:none;fill-rule:nonzero;fill:rgb(89.019608%,53.333333%,0%);fill-opacity:1;" />
<path d="M 296.011719 374.757812 L 374.910156 374.757812 L 374.910156 394.480469 L 296.011719 394.480469 Z M 296.011719 374.757812 " style=" stroke:none;fill-rule:nonzero;fill:rgb(89.019608%,53.333333%,0%);fill-opacity:1;" />
<path d="M 297.128906 197.242188 C 296.425781 202.664062 296.050781 208.121094 296.011719 213.582031 L 296.011719 216.964844 L 374.910156 216.964844 L 374.910156 213.582031 C 374.871094 208.117188 374.496094 202.664062 373.796875 197.242188 Z M 297.128906 197.242188 " style=" stroke:none;fill-rule:nonzero;fill:rgb(89.019608%,53.333333%,0%);fill-opacity:1;" />
<path d="M 361.949219 552.273438 L 358.46875 530.085938 L 312.039062 530.085938 L 308.773438 552.273438 Z M 361.949219 552.273438 " style=" stroke:none;fill-rule:nonzero;fill:rgb(34.117647%,39.607843%,45.098039%);fill-opacity:1;" />
<path d="M 79.046875 118.34375 C 53.789062 143.601562 39.597656 177.863281 39.597656 213.582031 L 39.597656 532.550781 L 118.496094 532.550781 L 118.496094 213.582031 C 118.496094 177.863281 104.304688 143.601562 79.046875 118.34375 Z M 79.046875 118.34375 " style=" stroke:none;fill-rule:nonzero;fill:rgb(96.078431%,68.235294%,27.058824%);fill-opacity:1;" />
<path d="M 79.136719 118.445312 C 91.945312 140.40625 98.722656 165.378906 98.773438 190.800781 L 98.773438 532.550781 L 118.496094 532.550781 L 118.496094 213.582031 C 118.496094 177.910156 104.34375 143.691406 79.136719 118.445312 Z M 79.136719 118.445312 " style=" stroke:none;fill-rule:nonzero;fill:rgb(94.117647%,61.960784%,14.901961%);fill-opacity:1;" />
<path d="M 39.597656 276.136719 L 118.496094 276.136719 L 118.496094 295.863281 L 39.597656 295.863281 Z M 39.597656 276.136719 " style=" stroke:none;fill-rule:nonzero;fill:rgb(89.019608%,53.333333%,0%);fill-opacity:1;" />
<path d="M 39.597656 374.757812 L 118.496094 374.757812 L 118.496094 394.480469 L 39.597656 394.480469 Z M 39.597656 374.757812 " style=" stroke:none;fill-rule:nonzero;fill:rgb(89.019608%,53.333333%,0%);fill-opacity:1;" />
<path d="M 40.714844 197.242188 C 40.011719 202.664062 39.636719 208.121094 39.597656 213.582031 L 39.597656 216.964844 L 118.496094 216.964844 L 118.496094 213.582031 C 118.457031 208.117188 118.082031 202.664062 117.382812 197.242188 Z M 40.714844 197.242188 " style=" stroke:none;fill-rule:nonzero;fill:rgb(89.019608%,53.333333%,0%);fill-opacity:1;" />
<path d="M 55.625 530.085938 L 49.460938 572 L 108.632812 572 L 102.054688 530.085938 Z M 55.625 530.085938 " style=" stroke:none;fill-rule:nonzero;fill:rgb(50.196078%,54.509804%,58.823529%);fill-opacity:1;" />
<path d="M 105.539062 552.273438 L 102.054688 530.085938 L 55.625 530.085938 L 52.359375 552.273438 Z M 105.539062 552.273438 " style=" stroke:none;fill-rule:nonzero;fill:rgb(34.117647%,39.607843%,45.098039%);fill-opacity:1;" />
<path d="M 207.253906 0 C 151.800781 36.964844 118.496094 99.203125 118.496094 165.851562 L 118.496094 502.964844 L 296.011719 502.964844 L 296.011719 165.851562 C 296.011719 99.203125 262.707031 36.964844 207.253906 0 Z M 207.253906 0 " style=" stroke:none;fill-rule:nonzero;fill:rgb(94.117647%,39.607843%,16.078431%);fill-opacity:1;" />
<path d="M 207.253906 0 L 207.195312 0 C 226.613281 34.488281 236.820312 73.394531 236.839844 112.96875 L 236.839844 502.964844 L 296.011719 502.964844 L 296.011719 165.851562 C 296.011719 99.203125 262.707031 36.964844 207.253906 0 Z M 207.253906 0 " style=" stroke:none;fill-rule:nonzero;fill:rgb(87.058824%,34.901961%,12.156863%);fill-opacity:1;" />
<path d="M 118.496094 197.242188 L 296.011719 197.242188 L 296.011719 216.964844 L 118.496094 216.964844 Z M 118.496094 197.242188 " style=" stroke:none;fill-rule:nonzero;fill:rgb(83.137255%,31.764706%,9.803922%);fill-opacity:1;" />
<path d="M 256.566406 512.828125 L 157.945312 512.828125 L 157.945312 244.882812 C 157.945312 209.214844 176.664062 176.144531 207.253906 157.792969 C 237.84375 176.148438 256.5625 209.214844 256.5625 244.882812 L 256.5625 512.828125 Z M 256.566406 512.828125 " style=" stroke:none;fill-rule:nonzero;fill:rgb(81.568627%,84.313725%,87.45098%);fill-opacity:1;" />
<path d="M 0.152344 502.964844 L 157.945312 502.964844 L 157.945312 266.277344 L 98.773438 404.34375 L 33.976562 443.222656 C 12.992188 455.816406 0.152344 478.488281 0.152344 502.964844 Z M 0.152344 502.964844 " style=" stroke:none;fill-rule:nonzero;fill:rgb(71.764706%,74.117647%,76.862745%);fill-opacity:1;" />
<path d="M 414.355469 502.964844 L 256.566406 502.964844 L 256.566406 266.277344 L 315.738281 404.34375 L 380.53125 443.222656 C 401.515625 455.816406 414.355469 478.488281 414.355469 502.964844 Z M 414.355469 502.964844 " style=" stroke:none;fill-rule:nonzero;fill:rgb(71.764706%,74.117647%,76.862745%);fill-opacity:1;" />
<path d="M 207.253906 532.550781 L 157.945312 532.550781 L 157.945312 512.828125 C 157.945312 491.042969 175.605469 473.378906 197.390625 473.378906 L 207.253906 473.378906 Z M 207.253906 532.550781 " style=" stroke:none;fill-rule:nonzero;fill:rgb(71.764706%,74.117647%,76.862745%);fill-opacity:1;" />
<path d="M 207.253906 532.550781 L 256.5625 532.550781 L 256.5625 512.828125 C 256.5625 491.042969 238.902344 473.378906 217.117188 473.378906 L 207.253906 473.378906 Z M 207.253906 532.550781 " style=" stroke:none;fill-rule:nonzero;fill:rgb(71.764706%,74.117647%,76.862745%);fill-opacity:1;" />
<path d="M 197.390625 424.070312 L 217.117188 424.070312 L 217.117188 532.550781 L 197.390625 532.550781 Z M 197.390625 424.070312 " style=" stroke:none;fill-rule:nonzero;fill:rgb(50.196078%,54.509804%,58.823529%);fill-opacity:1;" />
<path d="M 157.945312 532.550781 L 207.253906 532.550781 L 207.253906 572 L 157.945312 572 Z M 157.945312 532.550781 " style=" stroke:none;fill-rule:nonzero;fill:rgb(50.196078%,54.509804%,58.823529%);fill-opacity:1;" />
<path d="M 207.253906 532.550781 L 256.5625 532.550781 L 256.5625 572 L 207.253906 572 Z M 207.253906 532.550781 " style=" stroke:none;fill-rule:nonzero;fill:rgb(50.196078%,54.509804%,58.823529%);fill-opacity:1;" />
<path d="M 218.773438 252.023438 C 214.148438 245.664062 205.242188 244.253906 198.882812 248.878906 C 197.679688 249.757812 196.613281 250.820312 195.738281 252.023438 L 179.328125 241.078125 C 189.574219 225.652344 210.382812 221.453125 225.804688 231.699219 C 229.523438 234.164062 232.710938 237.359375 235.1875 241.078125 Z M 218.773438 252.023438 " style=" stroke:none;fill-rule:nonzero;fill:rgb(50.196078%,54.509804%,58.823529%);fill-opacity:1;" />
<path d="M 157.945312 542.414062 L 0.152344 532.550781 L 0.152344 502.964844 L 157.945312 502.964844 Z M 157.945312 542.414062 " style=" stroke:none;fill-rule:nonzero;fill:rgb(50.196078%,54.509804%,58.823529%);fill-opacity:1;" />
<path d="M 256.566406 542.414062 L 414.355469 532.550781 L 414.355469 502.964844 L 256.566406 502.964844 Z M 256.566406 542.414062 " style=" stroke:none;fill-rule:nonzero;fill:rgb(50.196078%,54.509804%,58.823529%);fill-opacity:1;" />
<path d="M 197.390625 532.550781 L 217.117188 532.550781 L 217.117188 572 L 197.390625 572 Z M 197.390625 532.550781 " style=" stroke:none;fill-rule:nonzero;fill:rgb(34.117647%,39.607843%,45.098039%);fill-opacity:1;" />
<path d="M 276.289062 312.300781 L 256.566406 266.277344 L 256.566406 502.964844 L 276.289062 502.964844 Z M 276.289062 312.300781 " style=" stroke:none;fill-rule:nonzero;fill:rgb(65.882353%,69.803922%,74.901961%);fill-opacity:1;" />
<path d="M 256.566406 502.964844 L 256.566406 542.414062 L 276.289062 541.179688 L 276.289062 502.964844 Z M 256.566406 502.964844 " style=" stroke:none;fill-rule:nonzero;fill:rgb(34.117647%,39.607843%,45.098039%);fill-opacity:1;" />
</g>
</svg>