<svg xmlns="http://www.w3.org/2000/svg" height="592pt" version="1.1" viewBox="0 0 592 592.78516" width="592pt">
<g id="surface1">
<path d="M 346.257812 296.5 C 346.257812 323.761719 324.15625 345.863281 296.894531 345.863281 C 269.632812 345.863281 247.53125 323.761719 247.53125 296.5 C 247.53125 269.234375 269.632812 247.132812 296.894531 247.132812 C 324.15625 247.132812 346.257812 269.234375 346.257812 296.5 Z M 346.257812 296.5 " style=" stroke:none;fill-rule:nonzero;fill:rgb(98.039216%,73.72549%,37.254902%);fill-opacity:1;" />
<path d="M 179.644531 533.339844 C 147.398438 534.769531 115.945312 523.082031 92.457031 500.9375 C 59.996094 468.472656 51.585938 416.464844 68.761719 354.5 C 85.410156 294.496094 124.277344 231.742188 178.203125 177.777344 C 232.128906 123.8125 294.882812 84.972656 354.929688 68.335938 C 416.917969 51.160156 468.910156 59.558594 501.363281 92.03125 C 533.816406 124.503906 542.234375 176.503906 525.058594 238.464844 C 508.410156 298.472656 469.542969 361.222656 415.617188 415.191406 C 361.691406 469.15625 298.9375 507.996094 238.890625 524.628906 C 219.621094 530.179688 199.695312 533.113281 179.644531 533.339844 Z M 414.105469 79.40625 C 395.851562 79.632812 377.703125 82.328125 360.167969 87.402344 C 303.402344 103.199219 243.738281 140.222656 192.183594 191.789062 C 140.628906 243.355469 103.554688 303.003906 87.796875 359.773438 C 72.59375 414.585938 79.210938 459.765625 106.417969 486.976562 C 133.628906 514.183594 178.796875 520.789062 233.621094 505.59375 C 290.386719 489.796875 350.050781 452.773438 401.605469 401.207031 C 453.160156 349.640625 490.234375 289.992188 505.992188 233.222656 C 521.195312 178.410156 514.578125 133.230469 487.371094 106.023438 C 467.535156 87.640625 441.117188 78.035156 414.105469 79.40625 Z M 414.105469 79.40625 " style=" stroke:none;fill-rule:nonzero;fill:rgb(81.568627%,84.313725%,87.45098%);fill-opacity:1;" />
<path d="M 186.554688 474.535156 C 168.242188 475.484375 150.324219 468.984375 136.886719 456.507812 C 93.832031 413.453125 130.378906 309.402344 220.105469 219.707031 C 309.828125 130.011719 413.847656 93.445312 456.902344 136.488281 C 499.957031 179.535156 463.410156 283.59375 373.683594 373.289062 C 309.433594 437.550781 237.835938 474.535156 186.554688 474.535156 Z M 407.183594 137.953125 C 362.203125 137.953125 293.488281 174.242188 234.0625 233.667969 C 154.902344 312.839844 116.792969 408.484375 150.847656 442.546875 C 184.898438 476.609375 280.566406 438.5 359.726562 359.328125 C 438.886719 280.160156 476.996094 184.511719 442.945312 150.449219 C 433.1875 141.644531 420.292969 137.140625 407.183594 137.953125 Z M 407.183594 137.953125 " style=" stroke:none;fill-rule:nonzero;fill:rgb(81.568627%,84.313725%,87.45098%);fill-opacity:1;" />
<path d="M 174.472656 593 C 123.183594 593 79.503906 576.800781 48.101562 545.363281 C 4.53125 501.855469 -9.816406 434.894531 7.621094 356.78125 C 24.699219 280.277344 70.410156 201.847656 136.332031 135.9375 C 202.253906 70.027344 280.671875 24.304688 357.179688 7.226562 C 435.292969 -10.199219 502.308594 4.132812 545.75 47.632812 C 589.191406 91.132812 603.59375 158.101562 586.160156 236.207031 C 569.078125 312.710938 523.367188 391.140625 457.449219 457.050781 C 391.527344 522.960938 313.117188 568.691406 236.609375 585.773438 C 216.222656 590.441406 195.382812 592.871094 174.472656 593 Z M 419.316406 19.753906 C 399.867188 19.882812 380.476562 22.140625 361.523438 26.496094 C 288.628906 42.769531 213.625 86.59375 150.332031 149.90625 C 87.035156 213.222656 43.164062 288.195312 26.890625 361.085938 C 10.976562 432.367188 23.417969 492.851562 61.988281 531.402344 C 100.5625 569.957031 161.023438 582.40625 232.304688 566.5 C 305.195312 550.230469 380.199219 506.40625 443.496094 443.089844 C 506.789062 379.773438 550.625 304.800781 566.894531 231.910156 C 582.8125 160.628906 570.339844 100.148438 531.796875 61.59375 C 504.222656 33.980469 465.304688 19.753906 419.316406 19.753906 Z M 419.316406 19.753906 " style=" stroke:none;fill-rule:nonzero;fill:rgb(81.568627%,84.313725%,87.45098%);fill-opacity:1;" />
<path d="M 168.546875 143.46875 C 168.546875 157.101562 157.496094 168.152344 143.867188 168.152344 C 130.234375 168.152344 119.183594 157.101562 119.183594 143.46875 C 119.183594 129.839844 130.234375 118.789062 143.867188 118.789062 C 157.496094 118.789062 168.546875 129.839844 168.546875 143.46875 Z M 168.546875 143.46875 " style=" stroke:none;fill-rule:nonzero;fill:rgb(54.901961%,38.823529%,28.235294%);fill-opacity:1;" />
<path d="M 217.910156 518.636719 C 217.910156 532.269531 206.859375 543.320312 193.230469 543.320312 C 179.597656 543.320312 168.546875 532.269531 168.546875 518.636719 C 168.546875 505.003906 179.597656 493.957031 193.230469 493.957031 C 206.859375 493.957031 217.910156 505.003906 217.910156 518.636719 Z M 217.910156 518.636719 " style=" stroke:none;fill-rule:nonzero;fill:rgb(94.117647%,39.607843%,16.078431%);fill-opacity:1;" />
<path d="M 484.476562 192.835938 C 484.476562 206.464844 473.425781 217.515625 459.796875 217.515625 C 446.164062 217.515625 435.113281 206.464844 435.113281 192.835938 C 435.113281 179.203125 446.164062 168.152344 459.796875 168.152344 C 473.425781 168.152344 484.476562 179.203125 484.476562 192.835938 Z M 484.476562 192.835938 " style=" stroke:none;fill-rule:nonzero;fill:rgb(16.470588%,56.470588%,87.058824%);fill-opacity:1;" />
</g>
</svg>