<svg xmlns="http://www.w3.org/2000/svg" height="572pt" version="1.1" viewBox="0 -108 572.42601 572" width="572pt">
<g id="surface1">
<path d="M 522.070312 246.679688 L 49.308594 246.679688 L 49.308594 88.890625 L 392.335938 88.890625 C 419.585938 88.890625 446.371094 96 470.027344 109.519531 L 546.832031 153.40625 C 562.394531 162.289062 571.992188 178.839844 571.992188 196.757812 C 571.992188 224.320312 549.644531 246.679688 522.070312 246.679688 Z M 522.070312 246.679688 " style=" stroke:none;fill-rule:nonzero;fill:rgb(81.568627%,84.313725%,87.45098%);fill-opacity:1;" />
<path d="M 567.898438 216.492188 C 563.636719 206.523438 556.242188 198.21875 546.832031 192.824219 L 470.027344 148.9375 C 446.371094 135.425781 419.585938 128.328125 392.335938 128.335938 L 49.308594 128.335938 L 49.308594 246.679688 L 522.070312 246.679688 C 542 246.667969 560.019531 234.804688 567.898438 216.492188 Z M 567.898438 216.492188 " style=" stroke:none;fill-rule:nonzero;fill:rgb(76.470588%,78.823529%,81.960784%);fill-opacity:1;" />
<path d="M 49.308594 187.507812 L 0 197.371094 L 0 128.335938 L 49.308594 138.199219 Z M 49.308594 187.507812 " style=" stroke:none;fill-rule:nonzero;fill:rgb(50.196078%,54.509804%,58.823529%);fill-opacity:1;" />
<path d="M 138.066406 88.890625 L 49.308594 88.890625 L 19.722656 0.132812 L 49.742188 0.132812 C 61.914062 0.132812 73.390625 5.753906 80.867188 15.359375 Z M 138.066406 88.890625 " style=" stroke:none;fill-rule:nonzero;fill:rgb(76.470588%,78.823529%,81.960784%);fill-opacity:1;" />
<path d="M 325.441406 246.679688 L 187.375 246.679688 L 167.652344 355.160156 L 192.671875 355.160156 C 201.953125 355.160156 210.886719 351.679688 217.730469 345.417969 Z M 325.441406 246.679688 " style=" stroke:none;fill-rule:nonzero;fill:rgb(81.568627%,84.313725%,87.45098%);fill-opacity:1;" />
<path d="M 197.238281 148.058594 L 276.132812 148.058594 L 276.132812 167.785156 L 197.238281 167.785156 Z M 197.238281 148.058594 " style=" stroke:none;fill-rule:nonzero;fill:rgb(34.117647%,39.607843%,45.098039%);fill-opacity:1;" />
<path d="M 295.855469 148.058594 L 374.75 148.058594 L 374.75 167.785156 L 295.855469 167.785156 Z M 295.855469 148.058594 " style=" stroke:none;fill-rule:nonzero;fill:rgb(34.117647%,39.607843%,45.098039%);fill-opacity:1;" />
<path d="M 546.832031 153.40625 L 529.800781 143.683594 L 512.820312 177.648438 L 404.335938 177.648438 L 384.613281 207.234375 L 187.375 207.234375 L 147.929688 157.921875 L 49.308594 157.921875 L 49.308594 246.679688 L 522.070312 246.679688 C 549.644531 246.691406 572 224.34375 572 196.769531 C 572.011719 178.839844 562.40625 162.292969 546.832031 153.40625 Z M 546.832031 153.40625 " style=" stroke:none;fill-rule:nonzero;fill:rgb(34.117647%,39.607843%,45.098039%);fill-opacity:1;" />
<path d="M 42.730469 69.164062 L 49.308594 88.890625 L 138.066406 88.890625 L 122.722656 69.164062 Z M 42.730469 69.164062 " style=" stroke:none;fill-rule:nonzero;fill:rgb(71.764706%,74.117647%,76.862745%);fill-opacity:1;" />
<path d="M 283.304688 246.679688 L 207.871094 315.832031 C 201.023438 322.09375 192.089844 325.574219 182.808594 325.574219 L 173.027344 325.574219 L 167.652344 355.160156 L 192.671875 355.160156 C 201.953125 355.160156 210.886719 351.679688 217.730469 345.417969 L 325.441406 246.679688 Z M 283.304688 246.679688 " style=" stroke:none;fill-rule:nonzero;fill:rgb(34.117647%,39.607843%,45.098039%);fill-opacity:1;" />
<path d="M 29.585938 134.253906 L 29.585938 191.453125 L 49.308594 187.507812 L 49.308594 138.199219 Z M 29.585938 134.253906 " style=" stroke:none;fill-rule:nonzero;fill:rgb(34.117647%,39.607843%,45.098039%);fill-opacity:1;" />
</g>
</svg>