<svg xmlns="http://www.w3.org/2000/svg" height="572pt" version="1.1" viewBox="0 -99 572.417 572" width="572pt">
<g id="surface1">
<path d="M 534.21875 256.550781 L 49.308594 256.550781 L 49.308594 118.480469 L 432.53125 118.480469 C 458.683594 118.480469 483.773438 128.875 502.265625 147.367188 L 522.6875 167.792969 L 553.65625 186.371094 C 565.035156 193.199219 571.996094 205.496094 571.996094 218.769531 C 572 239.636719 555.085938 256.550781 534.21875 256.550781 Z M 534.21875 256.550781 " style=" stroke:none;fill-rule:nonzero;fill:rgb(81.568627%,84.313725%,87.45098%);fill-opacity:1;" />
<path d="M 49.308594 207.242188 L 0 217.101562 L 0 157.929688 L 49.308594 167.792969 Z M 49.308594 207.242188 " style=" stroke:none;fill-rule:nonzero;fill:rgb(50.196078%,54.509804%,58.823529%);fill-opacity:1;" />
<path d="M 197.242188 118.480469 L 59.171875 118.480469 L 9.863281 0.136719 L 59.171875 0.136719 Z M 197.242188 118.480469 " style=" stroke:none;fill-rule:nonzero;fill:rgb(50.196078%,54.509804%,58.823529%);fill-opacity:1;" />
<path d="M 128.207031 374.894531 L 49.308594 374.894531 L 49.308594 226.964844 L 339.195312 226.964844 C 361.414062 226.964844 382.15625 238.070312 394.480469 256.550781 L 266.277344 296 Z M 128.207031 374.894531 " style=" stroke:none;fill-rule:nonzero;fill:rgb(76.470588%,78.823529%,81.960784%);fill-opacity:1;" />
<path d="M 433.929688 177.652344 L 157.792969 177.652344 L 157.792969 118.480469 L 177.515625 118.480469 L 177.515625 157.929688 L 414.207031 157.929688 L 414.207031 118.480469 L 433.929688 118.480469 Z M 433.929688 177.652344 " style=" stroke:none;fill-rule:nonzero;fill:rgb(65.882353%,69.803922%,74.901961%);fill-opacity:1;" />
<path d="M 49.308594 266.414062 L 98.621094 266.414062 L 98.621094 374.894531 L 49.308594 374.894531 Z M 49.308594 266.414062 " style=" stroke:none;fill-rule:nonzero;fill:rgb(71.764706%,74.117647%,76.862745%);fill-opacity:1;" />
<path d="M 49.308594 315.722656 L 98.621094 315.722656 L 98.621094 335.445312 L 49.308594 335.445312 Z M 49.308594 315.722656 " style=" stroke:none;fill-rule:nonzero;fill:rgb(50.196078%,54.509804%,58.823529%);fill-opacity:1;" />
<path d="M 553.65625 186.371094 L 532.550781 173.710938 L 532.550781 207.238281 L 463.515625 207.238281 L 463.515625 256.550781 L 534.21875 256.550781 C 555.085938 256.550781 572 239.636719 572 218.769531 C 572 205.496094 565.035156 193.195312 553.65625 186.371094 Z M 553.65625 186.371094 " style=" stroke:none;fill-rule:nonzero;fill:rgb(34.117647%,39.607843%,45.098039%);fill-opacity:1;" />
<path d="M 46.84375 88.894531 L 59.171875 118.480469 L 197.242188 118.480469 L 162.722656 88.894531 Z M 46.84375 88.894531 " style=" stroke:none;fill-rule:nonzero;fill:rgb(34.117647%,39.607843%,45.098039%);fill-opacity:1;" />
<path d="M 147.929688 138.207031 C 147.890625 131.261719 146.007812 124.449219 142.457031 118.480469 L 49.308594 118.480469 L 49.308594 177.652344 L 108.484375 177.652344 C 130.269531 177.652344 147.929688 159.992188 147.929688 138.207031 Z M 147.929688 138.207031 " style=" stroke:none;fill-rule:nonzero;fill:rgb(76.470588%,78.823529%,81.960784%);fill-opacity:1;" />
<path d="M 98.621094 157.929688 L 39.449219 157.929688 L 39.449219 98.757812 L 98.621094 98.757812 C 114.960938 98.757812 128.207031 112.003906 128.207031 128.34375 C 128.207031 144.683594 114.960938 157.929688 98.621094 157.929688 Z M 98.621094 157.929688 " style=" stroke:none;fill-rule:nonzero;fill:rgb(81.568627%,84.313725%,87.45098%);fill-opacity:1;" />
<path d="M 0 98.757812 L 39.449219 98.757812 L 39.449219 157.929688 L 0 157.929688 Z M 0 98.757812 " style=" stroke:none;fill-rule:nonzero;fill:rgb(65.882353%,69.803922%,74.901961%);fill-opacity:1;" />
<path d="M 29.585938 163.847656 L 29.585938 211.183594 L 49.308594 207.242188 L 49.308594 167.792969 Z M 29.585938 163.847656 " style=" stroke:none;fill-rule:nonzero;fill:rgb(34.117647%,39.607843%,45.098039%);fill-opacity:1;" />
<path d="M 453.65625 177.652344 L 539.128906 177.652344 L 522.6875 167.792969 L 512.828125 157.929688 L 453.65625 157.929688 Z M 453.65625 177.652344 " style=" stroke:none;fill-rule:nonzero;fill:rgb(16.470588%,56.470588%,87.058824%);fill-opacity:1;" />
</g>
</svg>