<svg xmlns="http://www.w3.org/2000/svg" height="572pt" version="1.1" viewBox="0 -10 572.417 572" width="572pt">
<g id="surface1">
<path d="M 305.722656 394.683594 L 266.277344 394.683594 L 266.277344 59.375 C 266.277344 48.476562 275.101562 39.652344 286 39.652344 C 296.898438 39.652344 305.722656 48.476562 305.722656 59.375 Z M 305.722656 394.683594 " style=" stroke:none;fill-rule:nonzero;fill:rgb(81.568627%,84.313725%,87.45098%);fill-opacity:1;" />
<path d="M 226.828125 394.683594 L 345.171875 394.683594 L 345.171875 434.132812 L 226.828125 434.132812 Z M 226.828125 394.683594 " style=" stroke:none;fill-rule:nonzero;fill:rgb(81.568627%,84.313725%,87.45098%);fill-opacity:1;" />
<path d="M 266.277344 434.132812 L 266.277344 473.582031 L 305.722656 473.582031 L 305.722656 434.132812 Z M 266.277344 434.132812 " style=" stroke:none;fill-rule:nonzero;fill:rgb(76.470588%,78.823529%,81.960784%);fill-opacity:1;" />
<path d="M 305.722656 59.375 C 305.722656 70.269531 296.894531 79.097656 286 79.097656 C 275.105469 79.097656 266.273438 70.269531 266.273438 59.375 C 266.273438 48.480469 275.105469 39.648438 286 39.648438 C 296.894531 39.648438 305.722656 48.480469 305.722656 59.375 Z M 305.722656 59.375 " style=" stroke:none;fill-rule:nonzero;fill:rgb(76.470588%,78.823529%,81.960784%);fill-opacity:1;" />
<path d="M 177.515625 88.960938 L 266.273438 88.960938 L 266.273438 108.683594 L 177.515625 108.683594 Z M 177.515625 88.960938 " style=" stroke:none;fill-rule:nonzero;fill:rgb(71.764706%,74.117647%,76.862745%);fill-opacity:1;" />
<path d="M 305.722656 88.960938 L 394.480469 88.960938 L 394.480469 108.683594 L 305.722656 108.683594 Z M 305.722656 88.960938 " style=" stroke:none;fill-rule:nonzero;fill:rgb(71.764706%,74.117647%,76.862745%);fill-opacity:1;" />
<path d="M 187.378906 138.269531 L 226.828125 138.269531 L 226.828125 217.167969 L 187.378906 217.167969 Z M 187.378906 138.269531 " style=" stroke:none;fill-rule:nonzero;fill:rgb(16.470588%,56.470588%,87.058824%);fill-opacity:1;" />
<path d="M 187.378906 167.855469 L 266.277344 167.855469 L 266.277344 187.582031 L 187.378906 187.582031 Z M 187.378906 167.855469 " style=" stroke:none;fill-rule:nonzero;fill:rgb(71.764706%,74.117647%,76.862745%);fill-opacity:1;" />
<path d="M 345.171875 138.269531 L 384.621094 138.269531 L 384.621094 217.167969 L 345.171875 217.167969 Z M 345.171875 138.269531 " style=" stroke:none;fill-rule:nonzero;fill:rgb(16.470588%,56.470588%,87.058824%);fill-opacity:1;" />
<path d="M 305.722656 167.855469 L 384.621094 167.855469 L 384.621094 187.582031 L 305.722656 187.582031 Z M 305.722656 167.855469 " style=" stroke:none;fill-rule:nonzero;fill:rgb(71.764706%,74.117647%,76.862745%);fill-opacity:1;" />
<path d="M 325.449219 296.0625 C 336.347656 296.0625 345.171875 304.890625 345.171875 315.789062 C 345.171875 326.683594 336.34375 335.511719 325.449219 335.511719 C 314.550781 335.511719 305.722656 326.683594 305.722656 315.789062 C 305.722656 304.890625 314.550781 296.0625 325.449219 296.0625 Z M 325.449219 296.0625 " style=" stroke:none;fill-rule:nonzero;fill:rgb(76.470588%,78.823529%,81.960784%);fill-opacity:1;" />
<path d="M 246.550781 256.617188 L 266.277344 256.617188 L 266.277344 296.0625 L 246.550781 296.0625 Z M 246.550781 256.617188 " style=" stroke:none;fill-rule:nonzero;fill:rgb(76.470588%,78.823529%,81.960784%);fill-opacity:1;" />
<path d="M 0 0.203125 L 147.929688 0.203125 L 147.929688 256.613281 L 0 256.613281 Z M 0 0.203125 " style=" stroke:none;fill-rule:nonzero;fill:rgb(16.470588%,56.470588%,87.058824%);fill-opacity:1;" />
<path d="M 0 217.167969 L 0 256.617188 L 147.929688 256.617188 L 147.929688 69.234375 Z M 0 217.167969 " style=" stroke:none;fill-rule:nonzero;fill:rgb(13.72549%,47.45098%,72.941176%);fill-opacity:1;" />
<path d="M 39.449219 0.203125 L 59.171875 0.203125 L 59.171875 256.613281 L 39.449219 256.613281 Z M 39.449219 0.203125 " style=" stroke:none;fill-rule:nonzero;fill:rgb(76.470588%,78.823529%,81.960784%);fill-opacity:1;" />
<path d="M 88.757812 0.203125 L 108.484375 0.203125 L 108.484375 256.613281 L 88.757812 256.613281 Z M 88.757812 0.203125 " style=" stroke:none;fill-rule:nonzero;fill:rgb(76.470588%,78.823529%,81.960784%);fill-opacity:1;" />
<path d="M 0 296.0625 L 147.929688 296.0625 L 147.929688 552.476562 L 0 552.476562 Z M 0 296.0625 " style=" stroke:none;fill-rule:nonzero;fill:rgb(16.470588%,56.470588%,87.058824%);fill-opacity:1;" />
<path d="M 0 513.027344 L 0 552.476562 L 147.929688 552.476562 L 147.929688 365.097656 Z M 0 513.027344 " style=" stroke:none;fill-rule:nonzero;fill:rgb(13.72549%,47.45098%,72.941176%);fill-opacity:1;" />
<path d="M 39.449219 296.0625 L 59.171875 296.0625 L 59.171875 552.476562 L 39.449219 552.476562 Z M 39.449219 296.0625 " style=" stroke:none;fill-rule:nonzero;fill:rgb(76.470588%,78.823529%,81.960784%);fill-opacity:1;" />
<path d="M 88.757812 296.0625 L 108.484375 296.0625 L 108.484375 552.476562 L 88.757812 552.476562 Z M 88.757812 296.0625 " style=" stroke:none;fill-rule:nonzero;fill:rgb(76.470588%,78.823529%,81.960784%);fill-opacity:1;" />
<path d="M 305.308594 256.617188 L 322.566406 256.617188 L 322.566406 296.0625 L 305.308594 296.0625 Z M 305.308594 256.617188 " style=" stroke:none;fill-rule:nonzero;fill:rgb(76.470588%,78.823529%,81.960784%);fill-opacity:1;" />
<path d="M 424.070312 0.203125 L 572 0.203125 L 572 256.613281 L 424.070312 256.613281 Z M 424.070312 0.203125 " style=" stroke:none;fill-rule:nonzero;fill:rgb(16.470588%,56.470588%,87.058824%);fill-opacity:1;" />
<path d="M 424.070312 217.167969 L 424.070312 256.617188 L 572 256.617188 L 572 69.234375 Z M 424.070312 217.167969 " style=" stroke:none;fill-rule:nonzero;fill:rgb(13.72549%,47.45098%,72.941176%);fill-opacity:1;" />
<path d="M 463.515625 0.203125 L 483.242188 0.203125 L 483.242188 256.613281 L 463.515625 256.613281 Z M 463.515625 0.203125 " style=" stroke:none;fill-rule:nonzero;fill:rgb(76.470588%,78.823529%,81.960784%);fill-opacity:1;" />
<path d="M 512.828125 0.203125 L 532.550781 0.203125 L 532.550781 256.613281 L 512.828125 256.613281 Z M 512.828125 0.203125 " style=" stroke:none;fill-rule:nonzero;fill:rgb(76.470588%,78.823529%,81.960784%);fill-opacity:1;" />
<path d="M 424.070312 296.0625 L 572 296.0625 L 572 552.476562 L 424.070312 552.476562 Z M 424.070312 296.0625 " style=" stroke:none;fill-rule:nonzero;fill:rgb(16.470588%,56.470588%,87.058824%);fill-opacity:1;" />
<path d="M 424.070312 513.027344 L 424.070312 552.476562 L 572 552.476562 L 572 365.097656 Z M 424.070312 513.027344 " style=" stroke:none;fill-rule:nonzero;fill:rgb(13.72549%,47.45098%,72.941176%);fill-opacity:1;" />
<path d="M 463.515625 296.0625 L 483.242188 296.0625 L 483.242188 552.476562 L 463.515625 552.476562 Z M 463.515625 296.0625 " style=" stroke:none;fill-rule:nonzero;fill:rgb(76.470588%,78.823529%,81.960784%);fill-opacity:1;" />
<path d="M 512.828125 296.0625 L 532.550781 296.0625 L 532.550781 552.476562 L 512.828125 552.476562 Z M 512.828125 296.0625 " style=" stroke:none;fill-rule:nonzero;fill:rgb(76.470588%,78.823529%,81.960784%);fill-opacity:1;" />
<path d="M 305.722656 256.617188 L 424.070312 256.617188 L 424.070312 296.0625 L 305.722656 296.0625 Z M 305.722656 256.617188 " style=" stroke:none;fill-rule:nonzero;fill:rgb(81.568627%,84.313725%,87.45098%);fill-opacity:1;" />
<path d="M 424.070312 256.617188 L 522.6875 256.617188 L 522.6875 296.0625 L 424.070312 296.0625 Z M 424.070312 256.617188 " style=" stroke:none;fill-rule:nonzero;fill:rgb(76.470588%,78.823529%,81.960784%);fill-opacity:1;" />
<path d="M 147.929688 256.617188 L 266.277344 256.617188 L 266.277344 296.0625 L 147.929688 296.0625 Z M 147.929688 256.617188 " style=" stroke:none;fill-rule:nonzero;fill:rgb(81.568627%,84.313725%,87.45098%);fill-opacity:1;" />
<path d="M 49.308594 256.617188 L 147.929688 256.617188 L 147.929688 296.0625 L 49.308594 296.0625 Z M 49.308594 256.617188 " style=" stroke:none;fill-rule:nonzero;fill:rgb(76.470588%,78.823529%,81.960784%);fill-opacity:1;" />
</g>
</svg>