<svg xmlns="http://www.w3.org/2000/svg" height="592pt" version="1.1" viewBox="0 0 592 592.15546" width="592pt">
<g id="surface1">
<path d="M 296.078125 592 C 268.183594 592.027344 240.421875 588.113281 213.621094 580.367188 L 219.117188 561.414062 C 257.164062 572.316406 297.085938 575.027344 336.253906 569.375 L 339.085938 588.898438 C 324.839844 590.960938 310.472656 592 296.078125 592 Z M 380.320312 579.84375 L 374.714844 560.917969 C 412.683594 549.703125 447.769531 530.390625 477.542969 504.3125 L 490.507812 519.195312 C 458.601562 547.136719 421.011719 567.824219 380.320312 579.84375 Z M 173.988281 565.722656 C 135.417969 548.132812 101.023438 522.546875 73.089844 490.660156 L 87.949219 477.664062 C 114.027344 507.429688 146.132812 531.308594 182.148438 547.71875 Z M 520.308594 489.265625 L 505.347656 476.371094 C 531.269531 446.445312 550.402344 411.261719 561.410156 373.234375 L 580.355469 378.75 C 568.554688 419.5 548.0625 457.199219 520.289062 489.265625 Z M 47.695312 456.984375 C 24.519531 421.453125 9.34375 381.296875 3.234375 339.3125 L 22.773438 336.453125 C 28.464844 375.625 42.601562 413.078125 64.210938 446.238281 Z M 589.195312 337.4375 L 569.660156 334.707031 C 571.445312 321.878906 572.34375 308.945312 572.34375 296 C 572.363281 269.476562 568.574219 243.085938 561.074219 217.636719 L 580 212.042969 C 588.03125 239.304688 592.097656 267.582031 592.078125 296 C 592.066406 309.863281 591.109375 323.703125 589.195312 337.4375 Z M 19.8125 297.183594 L 0.078125 297.183594 L 0.078125 296 C -0.03125 253.582031 9.066406 211.640625 26.71875 173.070312 L 44.664062 181.28125 C 28.199219 217.273438 19.714844 256.414062 19.8125 296 Z M 547.222656 180.757812 C 530.628906 144.84375 506.582031 112.863281 476.6875 86.953125 L 489.59375 72.027344 C 521.628906 99.789062 547.390625 134.046875 565.160156 172.539062 Z M 63.589844 146.6875 L 46.996094 136.011719 C 69.984375 100.394531 100.285156 70.074219 135.882812 47.042969 L 146.578125 63.628906 C 113.347656 85.121094 85.058594 113.4375 63.589844 146.6875 Z M 445.125 63.34375 C 411.84375 41.894531 374.308594 27.941406 335.101562 22.457031 L 337.855469 2.921875 C 379.875 8.800781 420.121094 23.75 455.789062 46.726562 Z M 181.113281 44.714844 L 172.882812 26.777344 C 211.433594 9.078125 253.347656 -0.0585938 295.761719 0 L 295.761719 19.734375 C 256.1875 19.675781 217.074219 28.199219 181.113281 44.714844 Z M 181.113281 44.714844 " style=" stroke:none;fill-rule:nonzero;fill:rgb(98.039216%,73.72549%,37.254902%);fill-opacity:1;" />
<path d="M 300.488281 532.800781 L 300.125 513.066406 C 338.050781 512.375 375.140625 501.75 407.671875 482.242188 L 417.832031 499.164062 C 382.332031 520.445312 341.871094 532.039062 300.488281 532.800781 Z M 259.480469 530.035156 C 218.554688 523.632812 180.035156 506.59375 147.773438 480.605469 L 160.144531 465.222656 C 189.714844 489.019531 225.027344 504.628906 262.53125 510.480469 Z M 451.152344 475.011719 L 438.214844 460.09375 C 466.898438 435.238281 488.585938 403.308594 501.117188 367.472656 L 519.753906 373.964844 C 506.078125 413.039062 482.429688 447.855469 451.152344 474.960938 Z M 118.074219 452.179688 C 90.742188 421.058594 72.066406 383.320312 63.894531 342.71875 L 83.246094 338.851562 C 90.734375 376.058594 107.863281 410.640625 132.914062 439.15625 Z M 529.828125 334.046875 L 510.351562 330.90625 C 512.207031 319.363281 513.144531 307.691406 513.144531 296 C 513.195312 269.875 508.515625 243.964844 499.332031 219.503906 L 517.792969 212.597656 C 527.816406 239.257812 532.925781 267.515625 532.878906 296 C 532.878906 308.746094 531.863281 321.464844 529.828125 334.046875 Z M 59.347656 301.917969 C 59.300781 299.945312 59.277344 297.972656 59.277344 296 C 59.269531 254.597656 70.113281 213.910156 90.722656 178.003906 L 107.824219 187.871094 C 88.9375 220.777344 79 258.0625 79.011719 296 C 79.011719 297.792969 79.011719 299.582031 79.082031 301.375 Z M 482.972656 185.542969 C 463.613281 152.882812 436.066406 125.847656 403.050781 107.09375 L 412.800781 89.933594 C 448.785156 110.386719 478.808594 139.878906 499.925781 175.476562 Z M 129.410156 156.929688 L 114.265625 144.269531 C 140.804688 112.5 175.183594 88.207031 213.996094 73.8125 L 220.835938 92.332031 C 185.246094 105.523438 153.730469 127.792969 129.410156 156.929688 Z M 368.796875 91.414062 C 333 78.792969 294.550781 75.695312 257.195312 82.414062 L 253.652344 62.988281 C 294.402344 55.675781 336.355469 59.082031 375.398438 72.855469 Z M 368.796875 91.414062 " style=" stroke:none;fill-rule:nonzero;fill:rgb(96.078431%,68.235294%,27.058824%);fill-opacity:1;" />
<path d="M 463.808594 296 C 463.808594 388.636719 388.714844 463.730469 296.078125 463.730469 C 203.441406 463.730469 128.34375 388.636719 128.34375 296 C 128.34375 203.363281 203.441406 128.265625 296.078125 128.265625 C 388.714844 128.265625 463.808594 203.363281 463.808594 296 Z M 463.808594 296 " style=" stroke:none;fill-rule:nonzero;fill:rgb(94.117647%,61.960784%,14.901961%);fill-opacity:1;" />
</g>
</svg>