<svg xmlns="http://www.w3.org/2000/svg" height="588pt" version="1.1" viewBox="-3 1 588 588.96501" width="588pt">
<g id="surface1">
<path d="M 109.726562 421.210938 L 484.78125 421.210938 L 484.78125 519.910156 L 109.726562 519.910156 Z M 109.726562 421.210938 " style=" stroke:none;fill-rule:nonzero;fill:rgb(71.764706%,74.117647%,76.862745%);fill-opacity:1;" />
<path d="M 441.75 399.191406 L 429.113281 384.011719 L 539.964844 291.640625 C 544.148438 288.148438 550.375 288.710938 553.859375 292.894531 C 553.859375 292.894531 553.859375 292.894531 553.871094 292.90625 C 557.363281 297.089844 556.800781 303.316406 552.617188 306.800781 C 552.617188 306.800781 552.617188 306.800781 552.609375 306.8125 Z M 441.75 399.191406 " style=" stroke:none;fill-rule:nonzero;fill:rgb(50.196078%,54.509804%,58.823529%);fill-opacity:1;" />
<path d="M 80.117188 263.292969 L 80.117188 302.773438 L 514.390625 302.773438 L 514.390625 263.292969 C 374.128906 212.289062 220.386719 212.289062 80.117188 263.292969 Z M 80.117188 263.292969 " style=" stroke:none;fill-rule:nonzero;fill:rgb(71.764706%,74.117647%,76.862745%);fill-opacity:1;" />
<path d="M 30.769531 154.726562 L 50.507812 154.726562 L 50.507812 243.554688 L 30.769531 243.554688 Z M 30.769531 154.726562 " style=" stroke:none;fill-rule:nonzero;fill:rgb(50.196078%,54.509804%,58.823529%);fill-opacity:1;" />
<path d="M 89.988281 470.5625 C 57.277344 470.5625 30.769531 497.070312 30.769531 529.78125 C 30.769531 562.488281 57.277344 589 89.988281 589 C 122.695312 589 149.207031 562.488281 149.207031 529.78125 C 149.175781 497.089844 122.6875 470.589844 89.988281 470.5625 Z M 128.066406 519.910156 L 99.859375 519.910156 L 99.859375 491.703125 C 113.675781 495.316406 124.464844 506.101562 128.066406 519.910156 Z M 80.117188 491.703125 L 80.117188 519.910156 L 51.910156 519.910156 C 55.523438 506.101562 66.308594 495.316406 80.117188 491.703125 Z M 51.910156 539.648438 L 80.117188 539.648438 L 80.117188 567.859375 C 66.308594 564.246094 55.523438 553.457031 51.910156 539.648438 Z M 99.859375 567.859375 L 99.859375 539.652344 L 128.066406 539.652344 C 124.464844 553.457031 113.675781 564.246094 99.859375 567.859375 Z M 99.859375 567.859375 " style=" stroke:none;fill-rule:nonzero;fill:rgb(50.196078%,54.509804%,58.823529%);fill-opacity:1;" />
<path d="M 228.164062 470.5625 C 195.457031 470.5625 168.945312 497.070312 168.945312 529.78125 C 168.945312 562.488281 195.457031 589 228.164062 589 C 260.875 589 287.382812 562.488281 287.382812 529.78125 C 287.355469 497.089844 260.863281 470.589844 228.164062 470.5625 Z M 266.242188 519.910156 L 238.035156 519.910156 L 238.035156 491.703125 C 251.851562 495.316406 262.640625 506.101562 266.242188 519.910156 Z M 218.296875 491.703125 L 218.296875 519.910156 L 190.089844 519.910156 C 193.699219 506.101562 204.488281 495.316406 218.296875 491.703125 Z M 190.089844 539.648438 L 218.296875 539.648438 L 218.296875 567.859375 C 204.488281 564.246094 193.699219 553.457031 190.089844 539.648438 Z M 238.035156 567.859375 L 238.035156 539.652344 L 266.242188 539.652344 C 262.640625 553.457031 251.851562 564.246094 238.035156 567.859375 Z M 238.035156 567.859375 " style=" stroke:none;fill-rule:nonzero;fill:rgb(50.196078%,54.509804%,58.823529%);fill-opacity:1;" />
<path d="M 366.34375 470.5625 C 333.632812 470.5625 307.125 497.070312 307.125 529.78125 C 307.125 562.488281 333.636719 589 366.34375 589 C 399.050781 589 425.5625 562.488281 425.5625 529.78125 C 425.53125 497.089844 399.042969 470.589844 366.34375 470.5625 Z M 404.421875 519.910156 L 376.214844 519.910156 L 376.214844 491.703125 C 390.03125 495.316406 400.820312 506.101562 404.421875 519.910156 Z M 356.472656 491.703125 L 356.472656 519.910156 L 328.265625 519.910156 C 331.878906 506.101562 342.664062 495.316406 356.472656 491.703125 Z M 328.265625 539.648438 L 356.472656 539.648438 L 356.472656 567.859375 C 342.664062 564.246094 331.878906 553.457031 328.265625 539.648438 Z M 376.214844 567.859375 L 376.214844 539.652344 L 404.421875 539.652344 C 400.820312 553.457031 390.03125 564.246094 376.214844 567.859375 Z M 376.214844 567.859375 " style=" stroke:none;fill-rule:nonzero;fill:rgb(50.196078%,54.509804%,58.823529%);fill-opacity:1;" />
<path d="M 504.519531 470.5625 C 471.8125 470.5625 445.300781 497.070312 445.300781 529.78125 C 445.300781 562.488281 471.8125 589 504.519531 589 C 537.230469 589 563.738281 562.488281 563.738281 529.78125 C 563.710938 497.089844 537.21875 470.589844 504.519531 470.5625 Z M 542.597656 519.910156 L 514.390625 519.910156 L 514.390625 491.703125 C 528.207031 495.316406 538.996094 506.101562 542.597656 519.910156 Z M 494.652344 491.703125 L 494.652344 519.910156 L 466.441406 519.910156 C 470.054688 506.101562 480.84375 495.316406 494.652344 491.703125 Z M 466.441406 539.648438 L 494.652344 539.648438 L 494.652344 567.859375 C 480.84375 564.246094 470.054688 553.457031 466.441406 539.648438 Z M 514.390625 567.859375 L 514.390625 539.652344 L 542.597656 539.652344 C 538.996094 553.457031 528.207031 564.246094 514.390625 567.859375 Z M 514.390625 567.859375 " style=" stroke:none;fill-rule:nonzero;fill:rgb(50.196078%,54.509804%,58.823529%);fill-opacity:1;" />
<path d="M 455.171875 421.210938 L 139.335938 421.210938 L 99.859375 302.773438 L 494.652344 302.773438 Z M 455.171875 421.210938 " style=" stroke:none;fill-rule:nonzero;fill:rgb(81.568627%,84.313725%,87.45098%);fill-opacity:1;" />
<path d="M 544 302.773438 L 60.378906 302.773438 L 60.378906 263.292969 L 544 262.070312 Z M 544 302.773438 " style=" stroke:none;fill-rule:nonzero;fill:rgb(81.568627%,84.313725%,87.45098%);fill-opacity:1;" />
<path d="M 544 302.773438 C 555.28125 302.558594 564.964844 294.699219 567.492188 283.707031 C 588.808594 199.042969 588.808594 110.410156 567.492188 25.746094 C 564.964844 14.753906 555.28125 6.894531 544 6.679688 Z M 544 302.773438 " style=" stroke:none;fill-rule:nonzero;fill:rgb(81.568627%,84.313725%,87.45098%);fill-opacity:1;" />
<path d="M 20.898438 233.683594 L 60.378906 233.683594 L 60.378906 302.773438 L 20.898438 302.773438 Z M 20.898438 233.683594 " style=" stroke:none;fill-rule:nonzero;fill:rgb(76.470588%,78.823529%,81.960784%);fill-opacity:1;" />
<path d="M 42.136719 139.578125 L 181.710938 0 L 195.671875 13.957031 L 56.09375 153.535156 Z M 42.136719 139.578125 " style=" stroke:none;fill-rule:nonzero;fill:rgb(50.196078%,54.509804%,58.823529%);fill-opacity:1;" />
<path d="M 70.039062 167.488281 L 28.171875 125.609375 L 21.183594 174.464844 Z M 70.039062 167.488281 " style=" stroke:none;fill-rule:nonzero;fill:rgb(76.470588%,78.823529%,81.960784%);fill-opacity:1;" />
<path d="M 49.105469 104.667969 L 63.0625 90.710938 L 104.9375 132.585938 L 90.976562 146.542969 Z M 49.105469 104.667969 " style=" stroke:none;fill-rule:nonzero;fill:rgb(50.196078%,54.509804%,58.823529%);fill-opacity:1;" />
<path d="M 77.023438 76.769531 L 90.980469 62.8125 L 132.855469 104.6875 L 118.894531 118.644531 Z M 77.023438 76.769531 " style=" stroke:none;fill-rule:nonzero;fill:rgb(50.196078%,54.509804%,58.823529%);fill-opacity:1;" />
<path d="M 104.949219 48.859375 L 118.90625 34.902344 L 160.78125 76.773438 L 146.824219 90.730469 Z M 104.949219 48.859375 " style=" stroke:none;fill-rule:nonzero;fill:rgb(50.196078%,54.509804%,58.823529%);fill-opacity:1;" />
<path d="M 132.863281 20.921875 L 146.820312 6.964844 L 188.695312 48.835938 L 174.734375 62.792969 Z M 132.863281 20.921875 " style=" stroke:none;fill-rule:nonzero;fill:rgb(50.196078%,54.509804%,58.823529%);fill-opacity:1;" />
<path d="M 1.160156 292.90625 L 60.378906 292.90625 L 60.378906 312.644531 L 1.160156 312.644531 Z M 1.160156 292.90625 " style=" stroke:none;fill-rule:nonzero;fill:rgb(76.470588%,78.823529%,81.960784%);fill-opacity:1;" />
<path d="M 57.4375 390.347656 L 50.507812 371.863281 L 155.613281 333.003906 L 162.539062 351.5 Z M 57.4375 390.347656 " style=" stroke:none;fill-rule:nonzero;fill:rgb(50.196078%,54.509804%,58.823529%);fill-opacity:1;" />
<path d="M 178.816406 342.253906 C 178.816406 353.15625 169.976562 361.992188 159.074219 361.992188 C 148.175781 361.992188 139.335938 353.15625 139.335938 342.253906 C 139.335938 331.351562 148.175781 322.511719 159.074219 322.511719 C 169.976562 322.511719 178.816406 331.351562 178.816406 342.253906 Z M 178.816406 342.253906 " style=" stroke:none;fill-rule:nonzero;fill:rgb(50.196078%,54.509804%,58.823529%);fill-opacity:1;" />
<path d="M 405.824219 332.382812 L 425.5625 332.382812 L 425.5625 391.601562 L 405.824219 391.601562 Z M 405.824219 332.382812 " style=" stroke:none;fill-rule:nonzero;fill:rgb(50.196078%,54.509804%,58.823529%);fill-opacity:1;" />
<path d="M 544 134.988281 L 544 154.726562 L 583.480469 154.726562 C 583.480469 148.144531 583.113281 141.570312 582.867188 134.988281 Z M 544 134.988281 " style=" stroke:none;fill-rule:nonzero;fill:rgb(71.764706%,74.117647%,76.862745%);fill-opacity:1;" />
<path d="M 575.769531 65.898438 L 544 65.898438 L 544 85.636719 L 578.832031 85.636719 C 577.960938 79.035156 576.886719 72.460938 575.769531 65.898438 Z M 575.769531 65.898438 " style=" stroke:none;fill-rule:nonzero;fill:rgb(71.764706%,74.117647%,76.862745%);fill-opacity:1;" />
<path d="M 544 233.683594 L 577.300781 233.683594 C 578.289062 227.113281 579.273438 220.546875 580.003906 213.945312 L 544 213.945312 Z M 544 233.683594 " style=" stroke:none;fill-rule:nonzero;fill:rgb(71.764706%,74.117647%,76.862745%);fill-opacity:1;" />
<path d="M 16.175781 372.378906 L 72.355469 353.652344 L 84.839844 391.105469 L 28.660156 409.832031 Z M 16.175781 372.378906 " style=" stroke:none;fill-rule:nonzero;fill:rgb(71.764706%,74.117647%,76.862745%);fill-opacity:1;" />
<path d="M 0.484375 356.910156 L 19.210938 350.671875 L 44.160156 425.597656 L 25.429688 431.835938 Z M 0.484375 356.910156 " style=" stroke:none;fill-rule:nonzero;fill:rgb(71.764706%,74.117647%,76.862745%);fill-opacity:1;" />
<path d="M 488.066406 322.515625 L 494.652344 302.773438 L 99.859375 302.773438 L 106.441406 322.515625 Z M 488.066406 322.515625 " style=" stroke:none;fill-rule:nonzero;fill:rgb(76.470588%,78.823529%,81.960784%);fill-opacity:1;" />
<path d="M 331.796875 361.992188 C 312.71875 361.992188 297.253906 346.527344 297.253906 327.449219 C 297.253906 308.371094 312.71875 292.90625 331.796875 292.90625 C 350.875 292.90625 366.34375 308.371094 366.34375 327.449219 C 366.34375 346.527344 350.875 361.992188 331.796875 361.992188 Z M 331.796875 312.644531 C 323.625 312.644531 316.992188 319.277344 316.992188 327.449219 C 316.992188 335.621094 323.625 342.253906 331.796875 342.253906 C 339.972656 342.253906 346.601562 335.621094 346.601562 327.449219 C 346.601562 319.277344 339.980469 312.644531 331.796875 312.644531 Z M 331.796875 312.644531 " style=" stroke:none;fill-rule:nonzero;fill:rgb(50.196078%,54.509804%,58.823529%);fill-opacity:1;" />
</g>
</svg>